<?xml version="1.0" encoding="utf-8" standalone="no"?>
<!DOCTYPE svg PUBLIC "-//W3C//DTD SVG 1.1//EN"
  "http://www.w3.org/Graphics/SVG/1.1/DTD/svg11.dtd">
<svg xmlns:xlink="http://www.w3.org/1999/xlink" width="1382.4pt" height="730.8pt" viewBox="0 0 1382.4 730.8" xmlns="http://www.w3.org/2000/svg" version="1.1">
 <metadata>
  <rdf:RDF xmlns:dc="http://purl.org/dc/elements/1.1/" xmlns:cc="http://creativecommons.org/ns#" xmlns:rdf="http://www.w3.org/1999/02/22-rdf-syntax-ns#">
   <cc:Work>
    <dc:type rdf:resource="http://purl.org/dc/dcmitype/StillImage"/>
    <dc:date>2024-05-19T13:05:31.265109</dc:date>
    <dc:format>image/svg+xml</dc:format>
    <dc:creator>
     <cc:Agent>
      <dc:title>Matplotlib v3.8.4, https://matplotlib.org/</dc:title>
     </cc:Agent>
    </dc:creator>
   </cc:Work>
  </rdf:RDF>
 </metadata>
 <defs>
  <style type="text/css">*{stroke-linejoin: round; stroke-linecap: butt}</style>
 </defs>
 <g id="figure_1">
  <g id="patch_1">
   <path d="M 0 730.8 
L 1382.4 730.8 
L 1382.4 0 
L 0 0 
z
" style="fill: #ffffff"/>
  </g>
  <g id="axes_1">
   <g id="patch_2">
    <path d="M 172.8 650.412 
L 1244.16 650.412 
L 1244.16 87.696 
L 172.8 87.696 
z
" style="fill: #ffffff"/>
   </g>
   <g id="matplotlib.axis_1">
    <g id="xtick_1">
     <g id="line2d_1">
      <defs>
       <path id="m9cf7af3b18" d="M 0 0 
L 0 3.5 
" style="stroke: #000000; stroke-width: 0.8"/>
      </defs>
      <g>
       <use xlink:href="#m9cf7af3b18" x="221.498182" y="650.412" style="stroke: #000000; stroke-width: 0.8"/>
      </g>
     </g>
     <g id="text_1">
      <!-- 0.0 -->
      <g transform="translate(202.414432 675.64825) scale(0.24 -0.24)">
       <defs>
        <path id="DejaVuSans-30" d="M 2034 4250 
Q 1547 4250 1301 3770 
Q 1056 3291 1056 2328 
Q 1056 1369 1301 889 
Q 1547 409 2034 409 
Q 2525 409 2770 889 
Q 3016 1369 3016 2328 
Q 3016 3291 2770 3770 
Q 2525 4250 2034 4250 
z
M 2034 4750 
Q 2819 4750 3233 4129 
Q 3647 3509 3647 2328 
Q 3647 1150 3233 529 
Q 2819 -91 2034 -91 
Q 1250 -91 836 529 
Q 422 1150 422 2328 
Q 422 3509 836 4129 
Q 1250 4750 2034 4750 
z
" transform="scale(0.015625)"/>
        <path id="DejaVuSans-2e" d="M 684 794 
L 1344 794 
L 1344 0 
L 684 0 
L 684 794 
z
" transform="scale(0.015625)"/>
       </defs>
       <use xlink:href="#DejaVuSans-30"/>
       <use xlink:href="#DejaVuSans-2e" x="63.623047"/>
       <use xlink:href="#DejaVuSans-30" x="95.410156"/>
      </g>
     </g>
    </g>
    <g id="xtick_2">
     <g id="line2d_2">
      <g>
       <use xlink:href="#m9cf7af3b18" x="416.290909" y="650.412" style="stroke: #000000; stroke-width: 0.8"/>
      </g>
     </g>
     <g id="text_2">
      <!-- 0.2 -->
      <g transform="translate(397.207159 675.64825) scale(0.24 -0.24)">
       <defs>
        <path id="DejaVuSans-32" d="M 1228 531 
L 3431 531 
L 3431 0 
L 469 0 
L 469 531 
Q 828 903 1448 1529 
Q 2069 2156 2228 2338 
Q 2531 2678 2651 2914 
Q 2772 3150 2772 3378 
Q 2772 3750 2511 3984 
Q 2250 4219 1831 4219 
Q 1534 4219 1204 4116 
Q 875 4013 500 3803 
L 500 4441 
Q 881 4594 1212 4672 
Q 1544 4750 1819 4750 
Q 2544 4750 2975 4387 
Q 3406 4025 3406 3419 
Q 3406 3131 3298 2873 
Q 3191 2616 2906 2266 
Q 2828 2175 2409 1742 
Q 1991 1309 1228 531 
z
" transform="scale(0.015625)"/>
       </defs>
       <use xlink:href="#DejaVuSans-30"/>
       <use xlink:href="#DejaVuSans-2e" x="63.623047"/>
       <use xlink:href="#DejaVuSans-32" x="95.410156"/>
      </g>
     </g>
    </g>
    <g id="xtick_3">
     <g id="line2d_3">
      <g>
       <use xlink:href="#m9cf7af3b18" x="611.083636" y="650.412" style="stroke: #000000; stroke-width: 0.8"/>
      </g>
     </g>
     <g id="text_3">
      <!-- 0.4 -->
      <g transform="translate(591.999886 675.64825) scale(0.24 -0.24)">
       <defs>
        <path id="DejaVuSans-34" d="M 2419 4116 
L 825 1625 
L 2419 1625 
L 2419 4116 
z
M 2253 4666 
L 3047 4666 
L 3047 1625 
L 3713 1625 
L 3713 1100 
L 3047 1100 
L 3047 0 
L 2419 0 
L 2419 1100 
L 313 1100 
L 313 1709 
L 2253 4666 
z
" transform="scale(0.015625)"/>
       </defs>
       <use xlink:href="#DejaVuSans-30"/>
       <use xlink:href="#DejaVuSans-2e" x="63.623047"/>
       <use xlink:href="#DejaVuSans-34" x="95.410156"/>
      </g>
     </g>
    </g>
    <g id="xtick_4">
     <g id="line2d_4">
      <g>
       <use xlink:href="#m9cf7af3b18" x="805.876364" y="650.412" style="stroke: #000000; stroke-width: 0.8"/>
      </g>
     </g>
     <g id="text_4">
      <!-- 0.6 -->
      <g transform="translate(786.792614 675.64825) scale(0.24 -0.24)">
       <defs>
        <path id="DejaVuSans-36" d="M 2113 2584 
Q 1688 2584 1439 2293 
Q 1191 2003 1191 1497 
Q 1191 994 1439 701 
Q 1688 409 2113 409 
Q 2538 409 2786 701 
Q 3034 994 3034 1497 
Q 3034 2003 2786 2293 
Q 2538 2584 2113 2584 
z
M 3366 4563 
L 3366 3988 
Q 3128 4100 2886 4159 
Q 2644 4219 2406 4219 
Q 1781 4219 1451 3797 
Q 1122 3375 1075 2522 
Q 1259 2794 1537 2939 
Q 1816 3084 2150 3084 
Q 2853 3084 3261 2657 
Q 3669 2231 3669 1497 
Q 3669 778 3244 343 
Q 2819 -91 2113 -91 
Q 1303 -91 875 529 
Q 447 1150 447 2328 
Q 447 3434 972 4092 
Q 1497 4750 2381 4750 
Q 2619 4750 2861 4703 
Q 3103 4656 3366 4563 
z
" transform="scale(0.015625)"/>
       </defs>
       <use xlink:href="#DejaVuSans-30"/>
       <use xlink:href="#DejaVuSans-2e" x="63.623047"/>
       <use xlink:href="#DejaVuSans-36" x="95.410156"/>
      </g>
     </g>
    </g>
    <g id="xtick_5">
     <g id="line2d_5">
      <g>
       <use xlink:href="#m9cf7af3b18" x="1000.669091" y="650.412" style="stroke: #000000; stroke-width: 0.8"/>
      </g>
     </g>
     <g id="text_5">
      <!-- 0.8 -->
      <g transform="translate(981.585341 675.64825) scale(0.24 -0.24)">
       <defs>
        <path id="DejaVuSans-38" d="M 2034 2216 
Q 1584 2216 1326 1975 
Q 1069 1734 1069 1313 
Q 1069 891 1326 650 
Q 1584 409 2034 409 
Q 2484 409 2743 651 
Q 3003 894 3003 1313 
Q 3003 1734 2745 1975 
Q 2488 2216 2034 2216 
z
M 1403 2484 
Q 997 2584 770 2862 
Q 544 3141 544 3541 
Q 544 4100 942 4425 
Q 1341 4750 2034 4750 
Q 2731 4750 3128 4425 
Q 3525 4100 3525 3541 
Q 3525 3141 3298 2862 
Q 3072 2584 2669 2484 
Q 3125 2378 3379 2068 
Q 3634 1759 3634 1313 
Q 3634 634 3220 271 
Q 2806 -91 2034 -91 
Q 1263 -91 848 271 
Q 434 634 434 1313 
Q 434 1759 690 2068 
Q 947 2378 1403 2484 
z
M 1172 3481 
Q 1172 3119 1398 2916 
Q 1625 2713 2034 2713 
Q 2441 2713 2670 2916 
Q 2900 3119 2900 3481 
Q 2900 3844 2670 4047 
Q 2441 4250 2034 4250 
Q 1625 4250 1398 4047 
Q 1172 3844 1172 3481 
z
" transform="scale(0.015625)"/>
       </defs>
       <use xlink:href="#DejaVuSans-30"/>
       <use xlink:href="#DejaVuSans-2e" x="63.623047"/>
       <use xlink:href="#DejaVuSans-38" x="95.410156"/>
      </g>
     </g>
    </g>
    <g id="xtick_6">
     <g id="line2d_6">
      <g>
       <use xlink:href="#m9cf7af3b18" x="1195.461818" y="650.412" style="stroke: #000000; stroke-width: 0.8"/>
      </g>
     </g>
     <g id="text_6">
      <!-- 1.0 -->
      <g transform="translate(1176.378068 675.64825) scale(0.24 -0.24)">
       <defs>
        <path id="DejaVuSans-31" d="M 794 531 
L 1825 531 
L 1825 4091 
L 703 3866 
L 703 4441 
L 1819 4666 
L 2450 4666 
L 2450 531 
L 3481 531 
L 3481 0 
L 794 0 
L 794 531 
z
" transform="scale(0.015625)"/>
       </defs>
       <use xlink:href="#DejaVuSans-31"/>
       <use xlink:href="#DejaVuSans-2e" x="63.623047"/>
       <use xlink:href="#DejaVuSans-30" x="95.410156"/>
      </g>
     </g>
    </g>
    <g id="text_7">
     <!-- $n$-values -->
     <g transform="translate(657.48 702.87575) scale(0.24 -0.24)">
      <defs>
       <path id="DejaVuSans-Oblique-6e" d="M 3566 2113 
L 3156 0 
L 2578 0 
L 2988 2091 
Q 3016 2238 3031 2350 
Q 3047 2463 3047 2528 
Q 3047 2791 2881 2937 
Q 2716 3084 2419 3084 
Q 1956 3084 1622 2776 
Q 1288 2469 1184 1941 
L 800 0 
L 225 0 
L 903 3500 
L 1478 3500 
L 1363 2950 
Q 1603 3253 1940 3418 
Q 2278 3584 2650 3584 
Q 3113 3584 3367 3334 
Q 3622 3084 3622 2631 
Q 3622 2519 3608 2391 
Q 3594 2263 3566 2113 
z
" transform="scale(0.015625)"/>
       <path id="DejaVuSans-2d" d="M 313 2009 
L 1997 2009 
L 1997 1497 
L 313 1497 
L 313 2009 
z
" transform="scale(0.015625)"/>
       <path id="DejaVuSans-76" d="M 191 3500 
L 800 3500 
L 1894 563 
L 2988 3500 
L 3597 3500 
L 2284 0 
L 1503 0 
L 191 3500 
z
" transform="scale(0.015625)"/>
       <path id="DejaVuSans-61" d="M 2194 1759 
Q 1497 1759 1228 1600 
Q 959 1441 959 1056 
Q 959 750 1161 570 
Q 1363 391 1709 391 
Q 2188 391 2477 730 
Q 2766 1069 2766 1631 
L 2766 1759 
L 2194 1759 
z
M 3341 1997 
L 3341 0 
L 2766 0 
L 2766 531 
Q 2569 213 2275 61 
Q 1981 -91 1556 -91 
Q 1019 -91 701 211 
Q 384 513 384 1019 
Q 384 1609 779 1909 
Q 1175 2209 1959 2209 
L 2766 2209 
L 2766 2266 
Q 2766 2663 2505 2880 
Q 2244 3097 1772 3097 
Q 1472 3097 1187 3025 
Q 903 2953 641 2809 
L 641 3341 
Q 956 3463 1253 3523 
Q 1550 3584 1831 3584 
Q 2591 3584 2966 3190 
Q 3341 2797 3341 1997 
z
" transform="scale(0.015625)"/>
       <path id="DejaVuSans-6c" d="M 603 4863 
L 1178 4863 
L 1178 0 
L 603 0 
L 603 4863 
z
" transform="scale(0.015625)"/>
       <path id="DejaVuSans-75" d="M 544 1381 
L 544 3500 
L 1119 3500 
L 1119 1403 
Q 1119 906 1312 657 
Q 1506 409 1894 409 
Q 2359 409 2629 706 
Q 2900 1003 2900 1516 
L 2900 3500 
L 3475 3500 
L 3475 0 
L 2900 0 
L 2900 538 
Q 2691 219 2414 64 
Q 2138 -91 1772 -91 
Q 1169 -91 856 284 
Q 544 659 544 1381 
z
M 1991 3584 
L 1991 3584 
z
" transform="scale(0.015625)"/>
       <path id="DejaVuSans-65" d="M 3597 1894 
L 3597 1613 
L 953 1613 
Q 991 1019 1311 708 
Q 1631 397 2203 397 
Q 2534 397 2845 478 
Q 3156 559 3463 722 
L 3463 178 
Q 3153 47 2828 -22 
Q 2503 -91 2169 -91 
Q 1331 -91 842 396 
Q 353 884 353 1716 
Q 353 2575 817 3079 
Q 1281 3584 2069 3584 
Q 2775 3584 3186 3129 
Q 3597 2675 3597 1894 
z
M 3022 2063 
Q 3016 2534 2758 2815 
Q 2500 3097 2075 3097 
Q 1594 3097 1305 2825 
Q 1016 2553 972 2059 
L 3022 2063 
z
" transform="scale(0.015625)"/>
       <path id="DejaVuSans-73" d="M 2834 3397 
L 2834 2853 
Q 2591 2978 2328 3040 
Q 2066 3103 1784 3103 
Q 1356 3103 1142 2972 
Q 928 2841 928 2578 
Q 928 2378 1081 2264 
Q 1234 2150 1697 2047 
L 1894 2003 
Q 2506 1872 2764 1633 
Q 3022 1394 3022 966 
Q 3022 478 2636 193 
Q 2250 -91 1575 -91 
Q 1294 -91 989 -36 
Q 684 19 347 128 
L 347 722 
Q 666 556 975 473 
Q 1284 391 1588 391 
Q 1994 391 2212 530 
Q 2431 669 2431 922 
Q 2431 1156 2273 1281 
Q 2116 1406 1581 1522 
L 1381 1569 
Q 847 1681 609 1914 
Q 372 2147 372 2553 
Q 372 3047 722 3315 
Q 1072 3584 1716 3584 
Q 2034 3584 2315 3537 
Q 2597 3491 2834 3397 
z
" transform="scale(0.015625)"/>
      </defs>
      <use xlink:href="#DejaVuSans-Oblique-6e" transform="translate(0 0.015625)"/>
      <use xlink:href="#DejaVuSans-2d" transform="translate(63.378906 0.015625)"/>
      <use xlink:href="#DejaVuSans-76" transform="translate(99.462891 0.015625)"/>
      <use xlink:href="#DejaVuSans-61" transform="translate(158.642578 0.015625)"/>
      <use xlink:href="#DejaVuSans-6c" transform="translate(219.921875 0.015625)"/>
      <use xlink:href="#DejaVuSans-75" transform="translate(247.705078 0.015625)"/>
      <use xlink:href="#DejaVuSans-65" transform="translate(311.083984 0.015625)"/>
      <use xlink:href="#DejaVuSans-73" transform="translate(372.607422 0.015625)"/>
     </g>
    </g>
    <g id="text_8">
     <!-- 1e18 -->
     <g transform="translate(1183.5825 701.87575) scale(0.24 -0.24)">
      <use xlink:href="#DejaVuSans-31"/>
      <use xlink:href="#DejaVuSans-65" x="63.623047"/>
      <use xlink:href="#DejaVuSans-31" x="125.146484"/>
      <use xlink:href="#DejaVuSans-38" x="188.769531"/>
     </g>
    </g>
   </g>
   <g id="matplotlib.axis_2">
    <g id="ytick_1">
     <g id="line2d_7">
      <defs>
       <path id="m025c3d59a8" d="M 0 0 
L -3.5 0 
" style="stroke: #000000; stroke-width: 0.8"/>
      </defs>
      <g>
       <use xlink:href="#m025c3d59a8" x="172.8" y="624.834" style="stroke: #000000; stroke-width: 0.8"/>
      </g>
     </g>
     <g id="text_9">
      <!-- 0.00 -->
      <g transform="translate(112.3625 633.952125) scale(0.24 -0.24)">
       <use xlink:href="#DejaVuSans-30"/>
       <use xlink:href="#DejaVuSans-2e" x="63.623047"/>
       <use xlink:href="#DejaVuSans-30" x="95.410156"/>
       <use xlink:href="#DejaVuSans-30" x="159.033203"/>
      </g>
     </g>
    </g>
    <g id="ytick_2">
     <g id="line2d_8">
      <g>
       <use xlink:href="#m025c3d59a8" x="172.8" y="560.889" style="stroke: #000000; stroke-width: 0.8"/>
      </g>
     </g>
     <g id="text_10">
      <!-- 0.25 -->
      <g transform="translate(112.3625 570.007125) scale(0.24 -0.24)">
       <defs>
        <path id="DejaVuSans-35" d="M 691 4666 
L 3169 4666 
L 3169 4134 
L 1269 4134 
L 1269 2991 
Q 1406 3038 1543 3061 
Q 1681 3084 1819 3084 
Q 2600 3084 3056 2656 
Q 3513 2228 3513 1497 
Q 3513 744 3044 326 
Q 2575 -91 1722 -91 
Q 1428 -91 1123 -41 
Q 819 9 494 109 
L 494 744 
Q 775 591 1075 516 
Q 1375 441 1709 441 
Q 2250 441 2565 725 
Q 2881 1009 2881 1497 
Q 2881 1984 2565 2268 
Q 2250 2553 1709 2553 
Q 1456 2553 1204 2497 
Q 953 2441 691 2322 
L 691 4666 
z
" transform="scale(0.015625)"/>
       </defs>
       <use xlink:href="#DejaVuSans-30"/>
       <use xlink:href="#DejaVuSans-2e" x="63.623047"/>
       <use xlink:href="#DejaVuSans-32" x="95.410156"/>
       <use xlink:href="#DejaVuSans-35" x="159.033203"/>
      </g>
     </g>
    </g>
    <g id="ytick_3">
     <g id="line2d_9">
      <g>
       <use xlink:href="#m025c3d59a8" x="172.8" y="496.944" style="stroke: #000000; stroke-width: 0.8"/>
      </g>
     </g>
     <g id="text_11">
      <!-- 0.50 -->
      <g transform="translate(112.3625 506.062125) scale(0.24 -0.24)">
       <use xlink:href="#DejaVuSans-30"/>
       <use xlink:href="#DejaVuSans-2e" x="63.623047"/>
       <use xlink:href="#DejaVuSans-35" x="95.410156"/>
       <use xlink:href="#DejaVuSans-30" x="159.033203"/>
      </g>
     </g>
    </g>
    <g id="ytick_4">
     <g id="line2d_10">
      <g>
       <use xlink:href="#m025c3d59a8" x="172.8" y="432.999" style="stroke: #000000; stroke-width: 0.8"/>
      </g>
     </g>
     <g id="text_12">
      <!-- 0.75 -->
      <g transform="translate(112.3625 442.117125) scale(0.24 -0.24)">
       <defs>
        <path id="DejaVuSans-37" d="M 525 4666 
L 3525 4666 
L 3525 4397 
L 1831 0 
L 1172 0 
L 2766 4134 
L 525 4134 
L 525 4666 
z
" transform="scale(0.015625)"/>
       </defs>
       <use xlink:href="#DejaVuSans-30"/>
       <use xlink:href="#DejaVuSans-2e" x="63.623047"/>
       <use xlink:href="#DejaVuSans-37" x="95.410156"/>
       <use xlink:href="#DejaVuSans-35" x="159.033203"/>
      </g>
     </g>
    </g>
    <g id="ytick_5">
     <g id="line2d_11">
      <g>
       <use xlink:href="#m025c3d59a8" x="172.8" y="369.054" style="stroke: #000000; stroke-width: 0.8"/>
      </g>
     </g>
     <g id="text_13">
      <!-- 1.00 -->
      <g transform="translate(112.3625 378.172125) scale(0.24 -0.24)">
       <use xlink:href="#DejaVuSans-31"/>
       <use xlink:href="#DejaVuSans-2e" x="63.623047"/>
       <use xlink:href="#DejaVuSans-30" x="95.410156"/>
       <use xlink:href="#DejaVuSans-30" x="159.033203"/>
      </g>
     </g>
    </g>
    <g id="ytick_6">
     <g id="line2d_12">
      <g>
       <use xlink:href="#m025c3d59a8" x="172.8" y="305.109" style="stroke: #000000; stroke-width: 0.8"/>
      </g>
     </g>
     <g id="text_14">
      <!-- 1.25 -->
      <g transform="translate(112.3625 314.227125) scale(0.24 -0.24)">
       <use xlink:href="#DejaVuSans-31"/>
       <use xlink:href="#DejaVuSans-2e" x="63.623047"/>
       <use xlink:href="#DejaVuSans-32" x="95.410156"/>
       <use xlink:href="#DejaVuSans-35" x="159.033203"/>
      </g>
     </g>
    </g>
    <g id="ytick_7">
     <g id="line2d_13">
      <g>
       <use xlink:href="#m025c3d59a8" x="172.8" y="241.164" style="stroke: #000000; stroke-width: 0.8"/>
      </g>
     </g>
     <g id="text_15">
      <!-- 1.50 -->
      <g transform="translate(112.3625 250.282125) scale(0.24 -0.24)">
       <use xlink:href="#DejaVuSans-31"/>
       <use xlink:href="#DejaVuSans-2e" x="63.623047"/>
       <use xlink:href="#DejaVuSans-35" x="95.410156"/>
       <use xlink:href="#DejaVuSans-30" x="159.033203"/>
      </g>
     </g>
    </g>
    <g id="ytick_8">
     <g id="line2d_14">
      <g>
       <use xlink:href="#m025c3d59a8" x="172.8" y="177.219" style="stroke: #000000; stroke-width: 0.8"/>
      </g>
     </g>
     <g id="text_16">
      <!-- 1.75 -->
      <g transform="translate(112.3625 186.337125) scale(0.24 -0.24)">
       <use xlink:href="#DejaVuSans-31"/>
       <use xlink:href="#DejaVuSans-2e" x="63.623047"/>
       <use xlink:href="#DejaVuSans-37" x="95.410156"/>
       <use xlink:href="#DejaVuSans-35" x="159.033203"/>
      </g>
     </g>
    </g>
    <g id="ytick_9">
     <g id="line2d_15">
      <g>
       <use xlink:href="#m025c3d59a8" x="172.8" y="113.274" style="stroke: #000000; stroke-width: 0.8"/>
      </g>
     </g>
     <g id="text_17">
      <!-- 2.00 -->
      <g transform="translate(112.3625 122.392125) scale(0.24 -0.24)">
       <use xlink:href="#DejaVuSans-32"/>
       <use xlink:href="#DejaVuSans-2e" x="63.623047"/>
       <use xlink:href="#DejaVuSans-30" x="95.410156"/>
       <use xlink:href="#DejaVuSans-30" x="159.033203"/>
      </g>
     </g>
    </g>
    <g id="text_18">
     <!-- 1e18 -->
     <g transform="translate(172.8 84.696) scale(0.24 -0.24)">
      <use xlink:href="#DejaVuSans-31"/>
      <use xlink:href="#DejaVuSans-65" x="63.623047"/>
      <use xlink:href="#DejaVuSans-31" x="125.146484"/>
      <use xlink:href="#DejaVuSans-38" x="188.769531"/>
     </g>
    </g>
   </g>
   <g id="line2d_16">
    <path d="M 221.498182 624.834 
L 221.772321 624.690014 
L 221.772354 624.833961 
L 221.883416 624.692661 
L 222.046448 624.546037 
L 222.046495 624.83397 
L 222.157544 624.680722 
L 222.594739 624.258056 
L 222.594805 624.833944 
L 222.705853 624.67364 
L 223.376839 623.939314 
L 223.691341 623.682079 
L 223.691433 624.833879 
L 223.802528 624.669645 
L 224.684501 623.592513 
L 225.78007 622.610247 
L 225.884411 622.530224 
L 225.884542 624.833973 
L 225.995566 624.667809 
L 227.185252 623.107637 
L 228.574199 621.655044 
L 230.199787 620.280357 
L 230.270817 620.226314 
L 230.271002 624.833794 
L 230.38209 624.666499 
L 232.013336 622.42527 
L 233.834992 620.301115 
L 235.871343 618.269956 
L 238.150676 616.312957 
L 239.043361 615.618699 
L 239.043622 624.833892 
L 239.154651 624.666158 
L 241.414764 621.463362 
L 243.859627 618.384605 
L 246.505571 615.410946 
L 249.370231 612.527163 
L 252.473857 609.719831 
L 255.839239 606.977339 
L 256.588724 606.403257 
L 256.589093 624.833737 
L 256.700104 624.665767 
L 259.852504 620.104675 
L 263.185998 615.672538 
L 266.711668 611.355015 
L 270.441113 607.139968 
L 274.386857 603.016671 
L 278.563318 598.974748 
L 282.985563 595.005443 
L 287.669766 591.100989 
L 291.67942 587.972398 
L 291.679943 624.833569 
L 291.79084 624.665636 
L 296.207317 618.18455 
L 300.802803 611.835456 
L 305.584084 605.608837 
L 310.559492 599.49458 
L 315.737271 593.484138 
L 321.126119 587.569682 
L 326.73585 581.743388 
L 332.576172 575.998716 
L 338.657965 570.329045 
L 344.992001 564.728899 
L 351.591005 559.192072 
L 358.466932 553.714014 
L 361.861088 551.110469 
L 361.861828 624.832949 
L 361.972772 624.664879 
L 368.178498 615.469179 
L 374.56082 606.409011 
L 381.125578 597.475764 
L 387.878087 588.662417 
L 394.823884 579.962388 
L 401.968726 571.369496 
L 409.3186 562.877938 
L 416.879725 554.482257 
L 424.658554 546.177323 
L 432.662687 537.957391 
L 440.899116 529.817968 
L 449.375083 521.754818 
L 458.098084 513.763952 
L 467.076855 505.840762 
L 476.320472 497.980916 
L 485.836326 490.181974 
L 495.634081 482.44002 
L 502.223133 477.387591 
L 502.224179 624.833861 
L 502.335043 624.665878 
L 511.071129 611.633169 
L 519.984152 598.735587 
L 529.076059 585.970021 
L 538.35103 573.330487 
L 547.813381 560.81128 
L 557.466433 548.408406 
L 567.31474 536.11661 
L 577.361828 523.932284 
L 587.612495 511.850578 
L 598.07048 499.868229 
L 608.740829 487.980755 
L 619.628743 476.183872 
L 630.738313 464.474798 
L 642.075 452.849563 
L 653.643123 441.30565 
L 665.448407 429.839376 
L 677.496739 418.44722 
L 689.79282 407.127037 
L 702.342815 395.875554 
L 715.153058 384.689637 
L 728.230052 373.566287 
L 741.579054 362.503797 
L 755.206864 351.499374 
L 769.120462 340.550345 
L 782.949807 329.939878 
L 782.951286 624.832039 
L 783.062214 624.663944 
L 795.379024 606.203163 
L 807.871765 587.879085 
L 820.541795 569.689456 
L 833.392025 551.629931 
L 846.425431 533.696311 
L 859.643486 515.886636 
L 873.050855 498.194836 
L 886.649117 480.619174 
L 900.439863 463.157952 
L 914.427971 445.805476 
L 928.615141 428.560247 
L 943.004757 411.418821 
L 957.600277 394.377863 
L 972.405234 377.434145 
L 987.423235 360.584543 
L 1002.656222 343.827927 
L 1018.107903 327.161312 
L 1033.782068 310.581803 
L 1049.682581 294.086597 
L 1065.811574 277.674804 
L 1082.17485 261.34193 
L 1098.774666 245.087219 
L 1115.615155 228.908147 
L 1132.700532 212.802271 
L 1150.033193 196.768963 
L 1167.619386 180.804152 
L 1185.461638 164.907322 
L 1195.461818 156.125693 
L 1195.461818 156.125693 
" clip-path="url(#p7201a2c493)" style="fill: none; stroke: #1f77b4; stroke-width: 1.5; stroke-linecap: square"/>
   </g>
   <g id="line2d_17">
    <path d="M 221.498182 624.834 
L 222.133391 624.789451 
L 222.259807 624.760931 
L 222.594805 624.546064 
L 222.634506 624.59474 
L 222.857538 624.833998 
L 222.925686 624.770605 
L 223.619925 624.294302 
L 223.762342 624.345271 
L 224.216935 624.833964 
L 224.270195 624.783468 
L 225.195865 624.068879 
L 225.92713 623.735138 
L 226.935606 624.833993 
L 226.947839 624.822281 
L 228.205716 623.77207 
L 229.66386 622.847377 
L 230.331559 622.605864 
L 231.853446 624.319542 
L 232.445148 624.765077 
L 234.19337 623.254383 
L 236.13473 621.872346 
L 238.297454 620.60807 
L 239.106949 620.305535 
L 241.22164 622.765817 
L 243.24817 624.833748 
L 243.263601 624.818943 
L 245.690485 622.645384 
L 248.304398 620.603713 
L 251.124015 618.684835 
L 254.17017 616.882394 
L 256.620528 615.658135 
L 259.57315 619.175412 
L 262.680164 622.531119 
L 265.036932 624.796298 
L 268.434256 621.692782 
L 272.015075 618.723285 
L 275.791881 615.88082 
L 279.778661 613.159514 
L 283.990529 610.554867 
L 288.443263 608.063913 
L 291.716027 606.44866 
L 295.857594 611.456303 
L 300.152142 616.300385 
L 304.605935 620.989085 
L 308.519676 624.812318 
L 313.286703 620.391789 
L 318.234855 616.106761 
L 323.372112 611.952425 
L 328.708181 607.923694 
L 334.25335 604.016262 
L 340.017141 600.227419 
L 346.010947 596.554164 
L 352.246791 592.994152 
L 358.736614 589.546032 
L 361.915815 588.04071 
L 367.739625 595.15582 
L 373.714877 602.105281 
L 379.845894 608.895146 
L 386.138001 615.531805 
L 392.595148 622.019489 
L 395.560118 624.772456 
L 402.267356 618.490958 
L 409.153543 612.346562 
L 416.22506 606.334926 
L 423.487682 600.452842 
L 430.948305 594.696751 
L 438.614113 589.063487 
L 446.491652 583.550898 
L 454.588651 578.156494 
L 462.913148 572.878128 
L 471.473492 567.713985 
L 480.277349 562.663132 
L 489.333663 557.724325 
L 498.65171 552.89662 
L 502.284838 551.186539 
L 510.487248 561.282507 
L 518.840033 571.211322 
L 527.346746 580.978021 
L 536.009962 590.586129 
L 544.833444 600.040163 
L 553.821089 609.344359 
L 562.975768 618.501551 
L 569.534087 624.795328 
L 578.982666 615.880658 
L 588.609211 607.103741 
L 598.418182 598.461413 
L 608.412951 589.951761 
L 618.599451 581.570984 
L 628.981302 573.317546 
L 639.56348 565.189064 
L 650.349813 557.184288 
L 661.34683 549.300233 
L 672.558623 541.535979 
L 683.992053 533.88894 
L 695.651485 526.358505 
L 707.542748 518.943309 
L 719.67183 511.642148 
L 732.044879 504.453978 
L 744.668206 497.377909 
L 757.546842 490.41397 
L 770.688845 483.560763 
L 782.96016 477.399608 
L 794.527051 491.71322 
L 806.243573 505.858529 
L 818.112207 519.839178 
L 830.13396 533.656906 
L 842.312951 547.316847 
L 854.650284 560.820494 
L 867.148651 574.170968 
L 879.810811 587.371253 
L 892.639588 600.424199 
L 905.637873 613.332525 
L 917.503846 624.820147 
L 930.831003 612.181323 
L 944.334889 599.681265 
L 958.018617 587.317662 
L 971.885366 575.088321 
L 985.938386 562.991157 
L 1000.180996 551.024192 
L 1014.614829 539.18698 
L 1029.245071 527.476283 
L 1044.073465 515.891815 
L 1059.105374 504.43058 
L 1074.342656 493.092442 
L 1089.789013 481.875954 
L 1105.448224 470.779765 
L 1121.324143 459.80261 
L 1137.4207 448.943314 
L 1153.7419 438.200787 
L 1170.291828 427.574023 
L 1187.074646 417.0621 
L 1195.461818 411.905693 
L 1195.461818 411.905693 
" clip-path="url(#p7201a2c493)" style="fill: none; stroke: #ff7f0e; stroke-width: 1.5; stroke-linecap: square"/>
   </g>
   <g id="line2d_18">
    <path d="M 221.498182 624.834 
L 1195.461818 369.054 
L 1195.461818 369.054 
" clip-path="url(#p7201a2c493)" style="fill: none; stroke: #2ca02c; stroke-width: 1.5; stroke-linecap: square"/>
   </g>
   <g id="line2d_19">
    <path d="M 221.498182 624.834 
L 1195.461818 113.274 
L 1195.461818 113.274 
" clip-path="url(#p7201a2c493)" style="fill: none; stroke: #d62728; stroke-width: 1.5; stroke-linecap: square"/>
   </g>
   <g id="patch_3">
    <path d="M 172.8 650.412 
L 172.8 87.696 
" style="fill: none; stroke: #000000; stroke-width: 0.8; stroke-linejoin: miter; stroke-linecap: square"/>
   </g>
   <g id="patch_4">
    <path d="M 1244.16 650.412 
L 1244.16 87.696 
" style="fill: none; stroke: #000000; stroke-width: 0.8; stroke-linejoin: miter; stroke-linecap: square"/>
   </g>
   <g id="patch_5">
    <path d="M 172.8 650.412 
L 1244.16 650.412 
" style="fill: none; stroke: #000000; stroke-width: 0.8; stroke-linejoin: miter; stroke-linecap: square"/>
   </g>
   <g id="patch_6">
    <path d="M 172.8 87.696 
L 1244.16 87.696 
" style="fill: none; stroke: #000000; stroke-width: 0.8; stroke-linejoin: miter; stroke-linecap: square"/>
   </g>
   <g id="text_19">
    <g id="patch_7">
     <path d="M 445.900339 253.35525 
L 776.380339 253.35525 
Q 783.580339 253.35525 783.580339 246.15525 
L 783.580339 115.42875 
Q 783.580339 108.22875 776.380339 108.22875 
L 445.900339 108.22875 
Q 438.700339 108.22875 438.700339 115.42875 
L 438.700339 246.15525 
Q 438.700339 253.35525 445.900339 253.35525 
z
" style="fill: #ffebcd; opacity: 0.5; stroke: #ffa500; stroke-linejoin: miter"/>
    </g>
    <!-- Averages: -->
    <g transform="translate(445.900339 133.665) scale(0.24 -0.24)">
     <defs>
      <path id="DejaVuSans-41" d="M 2188 4044 
L 1331 1722 
L 3047 1722 
L 2188 4044 
z
M 1831 4666 
L 2547 4666 
L 4325 0 
L 3669 0 
L 3244 1197 
L 1141 1197 
L 716 0 
L 50 0 
L 1831 4666 
z
" transform="scale(0.015625)"/>
      <path id="DejaVuSans-72" d="M 2631 2963 
Q 2534 3019 2420 3045 
Q 2306 3072 2169 3072 
Q 1681 3072 1420 2755 
Q 1159 2438 1159 1844 
L 1159 0 
L 581 0 
L 581 3500 
L 1159 3500 
L 1159 2956 
Q 1341 3275 1631 3429 
Q 1922 3584 2338 3584 
Q 2397 3584 2469 3576 
Q 2541 3569 2628 3553 
L 2631 2963 
z
" transform="scale(0.015625)"/>
      <path id="DejaVuSans-67" d="M 2906 1791 
Q 2906 2416 2648 2759 
Q 2391 3103 1925 3103 
Q 1463 3103 1205 2759 
Q 947 2416 947 1791 
Q 947 1169 1205 825 
Q 1463 481 1925 481 
Q 2391 481 2648 825 
Q 2906 1169 2906 1791 
z
M 3481 434 
Q 3481 -459 3084 -895 
Q 2688 -1331 1869 -1331 
Q 1566 -1331 1297 -1286 
Q 1028 -1241 775 -1147 
L 775 -588 
Q 1028 -725 1275 -790 
Q 1522 -856 1778 -856 
Q 2344 -856 2625 -561 
Q 2906 -266 2906 331 
L 2906 616 
Q 2728 306 2450 153 
Q 2172 0 1784 0 
Q 1141 0 747 490 
Q 353 981 353 1791 
Q 353 2603 747 3093 
Q 1141 3584 1784 3584 
Q 2172 3584 2450 3431 
Q 2728 3278 2906 2969 
L 2906 3500 
L 3481 3500 
L 3481 434 
z
" transform="scale(0.015625)"/>
      <path id="DejaVuSans-3a" d="M 750 794 
L 1409 794 
L 1409 0 
L 750 0 
L 750 794 
z
M 750 3309 
L 1409 3309 
L 1409 2516 
L 750 2516 
L 750 3309 
z
" transform="scale(0.015625)"/>
     </defs>
     <use xlink:href="#DejaVuSans-41"/>
     <use xlink:href="#DejaVuSans-76" x="62.533203"/>
     <use xlink:href="#DejaVuSans-65" x="121.712891"/>
     <use xlink:href="#DejaVuSans-72" x="183.236328"/>
     <use xlink:href="#DejaVuSans-61" x="224.349609"/>
     <use xlink:href="#DejaVuSans-67" x="285.628906"/>
     <use xlink:href="#DejaVuSans-65" x="349.105469"/>
     <use xlink:href="#DejaVuSans-73" x="410.628906"/>
     <use xlink:href="#DejaVuSans-3a" x="462.728516"/>
    </g>
    <!-- $\omega(n)$ = 4.404e+17 -->
    <g transform="translate(445.900339 160.53975) scale(0.24 -0.24)">
     <defs>
      <path id="DejaVuSans-Oblique-3c9" d="M 1369 -91 
Q 72 -91 434 1766 
Q 575 2500 1256 3500 
L 1875 3500 
Q 1231 2500 1088 1750 
Q 819 397 1519 397 
Q 2166 397 2478 2078 
L 3009 2078 
Q 2669 388 3316 397 
Q 4013 403 4275 1750 
Q 4419 2500 4169 3500 
L 4788 3500 
Q 5075 2500 4934 1766 
Q 4578 -94 3278 -91 
Q 2428 -88 2503 844 
Q 2194 -91 1369 -91 
z
" transform="scale(0.015625)"/>
      <path id="DejaVuSans-28" d="M 1984 4856 
Q 1566 4138 1362 3434 
Q 1159 2731 1159 2009 
Q 1159 1288 1364 580 
Q 1569 -128 1984 -844 
L 1484 -844 
Q 1016 -109 783 600 
Q 550 1309 550 2009 
Q 550 2706 781 3412 
Q 1013 4119 1484 4856 
L 1984 4856 
z
" transform="scale(0.015625)"/>
      <path id="DejaVuSans-29" d="M 513 4856 
L 1013 4856 
Q 1481 4119 1714 3412 
Q 1947 2706 1947 2009 
Q 1947 1309 1714 600 
Q 1481 -109 1013 -844 
L 513 -844 
Q 928 -128 1133 580 
Q 1338 1288 1338 2009 
Q 1338 2731 1133 3434 
Q 928 4138 513 4856 
z
" transform="scale(0.015625)"/>
      <path id="DejaVuSans-20" transform="scale(0.015625)"/>
      <path id="DejaVuSans-3d" d="M 678 2906 
L 4684 2906 
L 4684 2381 
L 678 2381 
L 678 2906 
z
M 678 1631 
L 4684 1631 
L 4684 1100 
L 678 1100 
L 678 1631 
z
" transform="scale(0.015625)"/>
      <path id="DejaVuSans-2b" d="M 2944 4013 
L 2944 2272 
L 4684 2272 
L 4684 1741 
L 2944 1741 
L 2944 0 
L 2419 0 
L 2419 1741 
L 678 1741 
L 678 2272 
L 2419 2272 
L 2419 4013 
L 2944 4013 
z
" transform="scale(0.015625)"/>
     </defs>
     <use xlink:href="#DejaVuSans-Oblique-3c9" transform="translate(0 0.125)"/>
     <use xlink:href="#DejaVuSans-28" transform="translate(83.740234 0.125)"/>
     <use xlink:href="#DejaVuSans-Oblique-6e" transform="translate(122.753906 0.125)"/>
     <use xlink:href="#DejaVuSans-29" transform="translate(186.132812 0.125)"/>
     <use xlink:href="#DejaVuSans-20" transform="translate(225.146484 0.125)"/>
     <use xlink:href="#DejaVuSans-3d" transform="translate(256.933594 0.125)"/>
     <use xlink:href="#DejaVuSans-20" transform="translate(340.722656 0.125)"/>
     <use xlink:href="#DejaVuSans-34" transform="translate(372.509766 0.125)"/>
     <use xlink:href="#DejaVuSans-2e" transform="translate(436.132812 0.125)"/>
     <use xlink:href="#DejaVuSans-34" transform="translate(467.919922 0.125)"/>
     <use xlink:href="#DejaVuSans-30" transform="translate(531.542969 0.125)"/>
     <use xlink:href="#DejaVuSans-34" transform="translate(595.166016 0.125)"/>
     <use xlink:href="#DejaVuSans-65" transform="translate(658.789062 0.125)"/>
     <use xlink:href="#DejaVuSans-2b" transform="translate(720.3125 0.125)"/>
     <use xlink:href="#DejaVuSans-31" transform="translate(804.101562 0.125)"/>
     <use xlink:href="#DejaVuSans-37" transform="translate(867.724609 0.125)"/>
    </g>
    <!-- $Abs(\omega(n) - n)$ = 1.818e+17 -->
    <g transform="translate(445.900339 187.4145) scale(0.24 -0.24)">
     <defs>
      <path id="DejaVuSans-Oblique-41" d="M 2356 4666 
L 3072 4666 
L 3938 0 
L 3278 0 
L 3084 1197 
L 984 1197 
L 325 0 
L -341 0 
L 2356 4666 
z
M 2584 4044 
L 1275 1722 
L 2988 1722 
L 2584 4044 
z
" transform="scale(0.015625)"/>
      <path id="DejaVuSans-Oblique-62" d="M 3169 2138 
Q 3169 2591 2961 2847 
Q 2753 3103 2388 3103 
Q 2122 3103 1889 2973 
Q 1656 2844 1484 2597 
Q 1303 2338 1198 1995 
Q 1094 1653 1094 1313 
Q 1094 881 1298 636 
Q 1503 391 1863 391 
Q 2134 391 2365 517 
Q 2597 644 2772 891 
Q 2950 1147 3059 1487 
Q 3169 1828 3169 2138 
z
M 1381 2969 
Q 1594 3256 1914 3420 
Q 2234 3584 2584 3584 
Q 3122 3584 3439 3221 
Q 3756 2859 3756 2241 
Q 3756 1734 3570 1259 
Q 3384 784 3041 416 
Q 2816 172 2522 40 
Q 2228 -91 1906 -91 
Q 1566 -91 1316 65 
Q 1066 222 909 531 
L 806 0 
L 231 0 
L 1178 4863 
L 1753 4863 
L 1381 2969 
z
" transform="scale(0.015625)"/>
      <path id="DejaVuSans-Oblique-73" d="M 3200 3397 
L 3091 2853 
Q 2863 2978 2609 3040 
Q 2356 3103 2088 3103 
Q 1634 3103 1373 2948 
Q 1113 2794 1113 2528 
Q 1113 2219 1719 2053 
Q 1766 2041 1788 2034 
L 1972 1978 
Q 2547 1819 2739 1644 
Q 2931 1469 2931 1166 
Q 2931 609 2489 259 
Q 2047 -91 1331 -91 
Q 1053 -91 747 -37 
Q 441 16 72 128 
L 184 722 
Q 500 559 806 475 
Q 1113 391 1394 391 
Q 1816 391 2080 572 
Q 2344 753 2344 1031 
Q 2344 1331 1650 1516 
L 1591 1531 
L 1394 1581 
Q 956 1697 753 1886 
Q 550 2075 550 2369 
Q 550 2928 970 3256 
Q 1391 3584 2113 3584 
Q 2397 3584 2667 3537 
Q 2938 3491 3200 3397 
z
" transform="scale(0.015625)"/>
      <path id="DejaVuSans-2212" d="M 678 2272 
L 4684 2272 
L 4684 1741 
L 678 1741 
L 678 2272 
z
" transform="scale(0.015625)"/>
     </defs>
     <use xlink:href="#DejaVuSans-Oblique-41" transform="translate(0 0.015625)"/>
     <use xlink:href="#DejaVuSans-Oblique-62" transform="translate(68.408203 0.015625)"/>
     <use xlink:href="#DejaVuSans-Oblique-73" transform="translate(131.884766 0.015625)"/>
     <use xlink:href="#DejaVuSans-28" transform="translate(183.984375 0.015625)"/>
     <use xlink:href="#DejaVuSans-Oblique-3c9" transform="translate(222.998047 0.015625)"/>
     <use xlink:href="#DejaVuSans-28" transform="translate(306.738281 0.015625)"/>
     <use xlink:href="#DejaVuSans-Oblique-6e" transform="translate(345.751953 0.015625)"/>
     <use xlink:href="#DejaVuSans-29" transform="translate(409.130859 0.015625)"/>
     <use xlink:href="#DejaVuSans-2212" transform="translate(467.626953 0.015625)"/>
     <use xlink:href="#DejaVuSans-Oblique-6e" transform="translate(570.898438 0.015625)"/>
     <use xlink:href="#DejaVuSans-29" transform="translate(634.277344 0.015625)"/>
     <use xlink:href="#DejaVuSans-20" transform="translate(673.291016 0.015625)"/>
     <use xlink:href="#DejaVuSans-3d" transform="translate(705.078125 0.015625)"/>
     <use xlink:href="#DejaVuSans-20" transform="translate(788.867188 0.015625)"/>
     <use xlink:href="#DejaVuSans-31" transform="translate(820.654297 0.015625)"/>
     <use xlink:href="#DejaVuSans-2e" transform="translate(884.277344 0.015625)"/>
     <use xlink:href="#DejaVuSans-38" transform="translate(913.439453 0.015625)"/>
     <use xlink:href="#DejaVuSans-31" transform="translate(977.0625 0.015625)"/>
     <use xlink:href="#DejaVuSans-38" transform="translate(1040.685547 0.015625)"/>
     <use xlink:href="#DejaVuSans-65" transform="translate(1104.308594 0.015625)"/>
     <use xlink:href="#DejaVuSans-2b" transform="translate(1165.832031 0.015625)"/>
     <use xlink:href="#DejaVuSans-31" transform="translate(1249.621094 0.015625)"/>
     <use xlink:href="#DejaVuSans-37" transform="translate(1313.244141 0.015625)"/>
    </g>
    <!-- $n$-size = 3.333e+17 -->
    <g transform="translate(445.900339 214.28925) scale(0.24 -0.24)">
     <defs>
      <path id="DejaVuSans-69" d="M 603 3500 
L 1178 3500 
L 1178 0 
L 603 0 
L 603 3500 
z
M 603 4863 
L 1178 4863 
L 1178 4134 
L 603 4134 
L 603 4863 
z
" transform="scale(0.015625)"/>
      <path id="DejaVuSans-7a" d="M 353 3500 
L 3084 3500 
L 3084 2975 
L 922 459 
L 3084 459 
L 3084 0 
L 275 0 
L 275 525 
L 2438 3041 
L 353 3041 
L 353 3500 
z
" transform="scale(0.015625)"/>
      <path id="DejaVuSans-33" d="M 2597 2516 
Q 3050 2419 3304 2112 
Q 3559 1806 3559 1356 
Q 3559 666 3084 287 
Q 2609 -91 1734 -91 
Q 1441 -91 1130 -33 
Q 819 25 488 141 
L 488 750 
Q 750 597 1062 519 
Q 1375 441 1716 441 
Q 2309 441 2620 675 
Q 2931 909 2931 1356 
Q 2931 1769 2642 2001 
Q 2353 2234 1838 2234 
L 1294 2234 
L 1294 2753 
L 1863 2753 
Q 2328 2753 2575 2939 
Q 2822 3125 2822 3475 
Q 2822 3834 2567 4026 
Q 2313 4219 1838 4219 
Q 1578 4219 1281 4162 
Q 984 4106 628 3988 
L 628 4550 
Q 988 4650 1302 4700 
Q 1616 4750 1894 4750 
Q 2613 4750 3031 4423 
Q 3450 4097 3450 3541 
Q 3450 3153 3228 2886 
Q 3006 2619 2597 2516 
z
" transform="scale(0.015625)"/>
     </defs>
     <use xlink:href="#DejaVuSans-Oblique-6e" transform="translate(0 0.015625)"/>
     <use xlink:href="#DejaVuSans-2d" transform="translate(63.378906 0.015625)"/>
     <use xlink:href="#DejaVuSans-73" transform="translate(99.462891 0.015625)"/>
     <use xlink:href="#DejaVuSans-69" transform="translate(151.5625 0.015625)"/>
     <use xlink:href="#DejaVuSans-7a" transform="translate(179.345703 0.015625)"/>
     <use xlink:href="#DejaVuSans-65" transform="translate(231.835938 0.015625)"/>
     <use xlink:href="#DejaVuSans-20" transform="translate(293.359375 0.015625)"/>
     <use xlink:href="#DejaVuSans-3d" transform="translate(325.146484 0.015625)"/>
     <use xlink:href="#DejaVuSans-20" transform="translate(408.935547 0.015625)"/>
     <use xlink:href="#DejaVuSans-33" transform="translate(440.722656 0.015625)"/>
     <use xlink:href="#DejaVuSans-2e" transform="translate(504.345703 0.015625)"/>
     <use xlink:href="#DejaVuSans-33" transform="translate(536.132812 0.015625)"/>
     <use xlink:href="#DejaVuSans-33" transform="translate(599.755859 0.015625)"/>
     <use xlink:href="#DejaVuSans-33" transform="translate(663.378906 0.015625)"/>
     <use xlink:href="#DejaVuSans-65" transform="translate(727.001953 0.015625)"/>
     <use xlink:href="#DejaVuSans-2b" transform="translate(788.525391 0.015625)"/>
     <use xlink:href="#DejaVuSans-31" transform="translate(872.314453 0.015625)"/>
     <use xlink:href="#DejaVuSans-37" transform="translate(935.9375 0.015625)"/>
    </g>
    <!-- $2n$ = 6.667e+17 -->
    <g transform="translate(445.900339 241.164) scale(0.24 -0.24)">
     <use xlink:href="#DejaVuSans-32" transform="translate(0 0.78125)"/>
     <use xlink:href="#DejaVuSans-Oblique-6e" transform="translate(63.623047 0.78125)"/>
     <use xlink:href="#DejaVuSans-20" transform="translate(127.001953 0.78125)"/>
     <use xlink:href="#DejaVuSans-3d" transform="translate(158.789062 0.78125)"/>
     <use xlink:href="#DejaVuSans-20" transform="translate(242.578125 0.78125)"/>
     <use xlink:href="#DejaVuSans-36" transform="translate(274.365234 0.78125)"/>
     <use xlink:href="#DejaVuSans-2e" transform="translate(337.988281 0.78125)"/>
     <use xlink:href="#DejaVuSans-36" transform="translate(369.775391 0.78125)"/>
     <use xlink:href="#DejaVuSans-36" transform="translate(433.398438 0.78125)"/>
     <use xlink:href="#DejaVuSans-37" transform="translate(497.021484 0.78125)"/>
     <use xlink:href="#DejaVuSans-65" transform="translate(560.644531 0.78125)"/>
     <use xlink:href="#DejaVuSans-2b" transform="translate(622.167969 0.78125)"/>
     <use xlink:href="#DejaVuSans-31" transform="translate(705.957031 0.78125)"/>
     <use xlink:href="#DejaVuSans-37" transform="translate(769.580078 0.78125)"/>
    </g>
   </g>
   <g id="text_20">
    <!-- Stronger Bounds of $\omega(n)$ -->
    <g transform="translate(532.224 81.648) scale(0.288 -0.288)">
     <defs>
      <path id="DejaVuSans-53" d="M 3425 4513 
L 3425 3897 
Q 3066 4069 2747 4153 
Q 2428 4238 2131 4238 
Q 1616 4238 1336 4038 
Q 1056 3838 1056 3469 
Q 1056 3159 1242 3001 
Q 1428 2844 1947 2747 
L 2328 2669 
Q 3034 2534 3370 2195 
Q 3706 1856 3706 1288 
Q 3706 609 3251 259 
Q 2797 -91 1919 -91 
Q 1588 -91 1214 -16 
Q 841 59 441 206 
L 441 856 
Q 825 641 1194 531 
Q 1563 422 1919 422 
Q 2459 422 2753 634 
Q 3047 847 3047 1241 
Q 3047 1584 2836 1778 
Q 2625 1972 2144 2069 
L 1759 2144 
Q 1053 2284 737 2584 
Q 422 2884 422 3419 
Q 422 4038 858 4394 
Q 1294 4750 2059 4750 
Q 2388 4750 2728 4690 
Q 3069 4631 3425 4513 
z
" transform="scale(0.015625)"/>
      <path id="DejaVuSans-74" d="M 1172 4494 
L 1172 3500 
L 2356 3500 
L 2356 3053 
L 1172 3053 
L 1172 1153 
Q 1172 725 1289 603 
Q 1406 481 1766 481 
L 2356 481 
L 2356 0 
L 1766 0 
Q 1100 0 847 248 
Q 594 497 594 1153 
L 594 3053 
L 172 3053 
L 172 3500 
L 594 3500 
L 594 4494 
L 1172 4494 
z
" transform="scale(0.015625)"/>
      <path id="DejaVuSans-6f" d="M 1959 3097 
Q 1497 3097 1228 2736 
Q 959 2375 959 1747 
Q 959 1119 1226 758 
Q 1494 397 1959 397 
Q 2419 397 2687 759 
Q 2956 1122 2956 1747 
Q 2956 2369 2687 2733 
Q 2419 3097 1959 3097 
z
M 1959 3584 
Q 2709 3584 3137 3096 
Q 3566 2609 3566 1747 
Q 3566 888 3137 398 
Q 2709 -91 1959 -91 
Q 1206 -91 779 398 
Q 353 888 353 1747 
Q 353 2609 779 3096 
Q 1206 3584 1959 3584 
z
" transform="scale(0.015625)"/>
      <path id="DejaVuSans-6e" d="M 3513 2113 
L 3513 0 
L 2938 0 
L 2938 2094 
Q 2938 2591 2744 2837 
Q 2550 3084 2163 3084 
Q 1697 3084 1428 2787 
Q 1159 2491 1159 1978 
L 1159 0 
L 581 0 
L 581 3500 
L 1159 3500 
L 1159 2956 
Q 1366 3272 1645 3428 
Q 1925 3584 2291 3584 
Q 2894 3584 3203 3211 
Q 3513 2838 3513 2113 
z
" transform="scale(0.015625)"/>
      <path id="DejaVuSans-42" d="M 1259 2228 
L 1259 519 
L 2272 519 
Q 2781 519 3026 730 
Q 3272 941 3272 1375 
Q 3272 1813 3026 2020 
Q 2781 2228 2272 2228 
L 1259 2228 
z
M 1259 4147 
L 1259 2741 
L 2194 2741 
Q 2656 2741 2882 2914 
Q 3109 3088 3109 3444 
Q 3109 3797 2882 3972 
Q 2656 4147 2194 4147 
L 1259 4147 
z
M 628 4666 
L 2241 4666 
Q 2963 4666 3353 4366 
Q 3744 4066 3744 3513 
Q 3744 3084 3544 2831 
Q 3344 2578 2956 2516 
Q 3422 2416 3680 2098 
Q 3938 1781 3938 1306 
Q 3938 681 3513 340 
Q 3088 0 2303 0 
L 628 0 
L 628 4666 
z
" transform="scale(0.015625)"/>
      <path id="DejaVuSans-64" d="M 2906 2969 
L 2906 4863 
L 3481 4863 
L 3481 0 
L 2906 0 
L 2906 525 
Q 2725 213 2448 61 
Q 2172 -91 1784 -91 
Q 1150 -91 751 415 
Q 353 922 353 1747 
Q 353 2572 751 3078 
Q 1150 3584 1784 3584 
Q 2172 3584 2448 3432 
Q 2725 3281 2906 2969 
z
M 947 1747 
Q 947 1113 1208 752 
Q 1469 391 1925 391 
Q 2381 391 2643 752 
Q 2906 1113 2906 1747 
Q 2906 2381 2643 2742 
Q 2381 3103 1925 3103 
Q 1469 3103 1208 2742 
Q 947 2381 947 1747 
z
" transform="scale(0.015625)"/>
      <path id="DejaVuSans-66" d="M 2375 4863 
L 2375 4384 
L 1825 4384 
Q 1516 4384 1395 4259 
Q 1275 4134 1275 3809 
L 1275 3500 
L 2222 3500 
L 2222 3053 
L 1275 3053 
L 1275 0 
L 697 0 
L 697 3053 
L 147 3053 
L 147 3500 
L 697 3500 
L 697 3744 
Q 697 4328 969 4595 
Q 1241 4863 1831 4863 
L 2375 4863 
z
" transform="scale(0.015625)"/>
     </defs>
     <use xlink:href="#DejaVuSans-53" transform="translate(0 0.015625)"/>
     <use xlink:href="#DejaVuSans-74" transform="translate(63.476562 0.015625)"/>
     <use xlink:href="#DejaVuSans-72" transform="translate(102.685547 0.015625)"/>
     <use xlink:href="#DejaVuSans-6f" transform="translate(143.798828 0.015625)"/>
     <use xlink:href="#DejaVuSans-6e" transform="translate(204.980469 0.015625)"/>
     <use xlink:href="#DejaVuSans-67" transform="translate(268.359375 0.015625)"/>
     <use xlink:href="#DejaVuSans-65" transform="translate(331.835938 0.015625)"/>
     <use xlink:href="#DejaVuSans-72" transform="translate(393.359375 0.015625)"/>
     <use xlink:href="#DejaVuSans-20" transform="translate(434.472656 0.015625)"/>
     <use xlink:href="#DejaVuSans-42" transform="translate(466.259766 0.015625)"/>
     <use xlink:href="#DejaVuSans-6f" transform="translate(534.863281 0.015625)"/>
     <use xlink:href="#DejaVuSans-75" transform="translate(596.044922 0.015625)"/>
     <use xlink:href="#DejaVuSans-6e" transform="translate(659.423828 0.015625)"/>
     <use xlink:href="#DejaVuSans-64" transform="translate(722.802734 0.015625)"/>
     <use xlink:href="#DejaVuSans-73" transform="translate(786.279297 0.015625)"/>
     <use xlink:href="#DejaVuSans-20" transform="translate(838.378906 0.015625)"/>
     <use xlink:href="#DejaVuSans-6f" transform="translate(870.166016 0.015625)"/>
     <use xlink:href="#DejaVuSans-66" transform="translate(931.347656 0.015625)"/>
     <use xlink:href="#DejaVuSans-20" transform="translate(966.552734 0.015625)"/>
     <use xlink:href="#DejaVuSans-Oblique-3c9" transform="translate(998.339844 0.015625)"/>
     <use xlink:href="#DejaVuSans-28" transform="translate(1082.080078 0.015625)"/>
     <use xlink:href="#DejaVuSans-Oblique-6e" transform="translate(1121.09375 0.015625)"/>
     <use xlink:href="#DejaVuSans-29" transform="translate(1184.472656 0.015625)"/>
    </g>
   </g>
   <g id="legend_1">
    <g id="patch_8">
     <path d="M 189.6 247.806 
L 428.16 247.806 
Q 432.96 247.806 432.96 243.006 
L 432.96 104.496 
Q 432.96 99.696 428.16 99.696 
L 189.6 99.696 
Q 184.8 99.696 184.8 104.496 
L 184.8 243.006 
Q 184.8 247.806 189.6 247.806 
z
" style="fill: #ffffff; opacity: 0.8; stroke: #cccccc; stroke-linejoin: miter"/>
    </g>
    <g id="line2d_20">
     <path d="M 194.4 119.13225 
L 218.4 119.13225 
L 242.4 119.13225 
" style="fill: none; stroke: #1f77b4; stroke-width: 1.5; stroke-linecap: square"/>
    </g>
    <g id="text_21">
     <!-- $\omega(n)$ -->
     <g transform="translate(261.6 127.53225) scale(0.24 -0.24)">
      <use xlink:href="#DejaVuSans-Oblique-3c9" transform="translate(0 0.125)"/>
      <use xlink:href="#DejaVuSans-28" transform="translate(83.740234 0.125)"/>
      <use xlink:href="#DejaVuSans-Oblique-6e" transform="translate(122.753906 0.125)"/>
      <use xlink:href="#DejaVuSans-29" transform="translate(186.132812 0.125)"/>
     </g>
    </g>
    <g id="line2d_21">
     <path d="M 194.4 154.35975 
L 218.4 154.35975 
L 242.4 154.35975 
" style="fill: none; stroke: #ff7f0e; stroke-width: 1.5; stroke-linecap: square"/>
    </g>
    <g id="text_22">
     <!-- $Abs(\omega(n) - n)$ -->
     <g transform="translate(261.6 162.75975) scale(0.24 -0.24)">
      <use xlink:href="#DejaVuSans-Oblique-41" transform="translate(0 0.015625)"/>
      <use xlink:href="#DejaVuSans-Oblique-62" transform="translate(68.408203 0.015625)"/>
      <use xlink:href="#DejaVuSans-Oblique-73" transform="translate(131.884766 0.015625)"/>
      <use xlink:href="#DejaVuSans-28" transform="translate(183.984375 0.015625)"/>
      <use xlink:href="#DejaVuSans-Oblique-3c9" transform="translate(222.998047 0.015625)"/>
      <use xlink:href="#DejaVuSans-28" transform="translate(306.738281 0.015625)"/>
      <use xlink:href="#DejaVuSans-Oblique-6e" transform="translate(345.751953 0.015625)"/>
      <use xlink:href="#DejaVuSans-29" transform="translate(409.130859 0.015625)"/>
      <use xlink:href="#DejaVuSans-2212" transform="translate(467.626953 0.015625)"/>
      <use xlink:href="#DejaVuSans-Oblique-6e" transform="translate(570.898438 0.015625)"/>
      <use xlink:href="#DejaVuSans-29" transform="translate(634.277344 0.015625)"/>
     </g>
    </g>
    <g id="line2d_22">
     <path d="M 194.4 189.58725 
L 218.4 189.58725 
L 242.4 189.58725 
" style="fill: none; stroke: #2ca02c; stroke-width: 1.5; stroke-linecap: square"/>
    </g>
    <g id="text_23">
     <!-- $n$ -->
     <g transform="translate(261.6 197.98725) scale(0.24 -0.24)">
      <use xlink:href="#DejaVuSans-Oblique-6e"/>
     </g>
    </g>
    <g id="line2d_23">
     <path d="M 194.4 224.81475 
L 218.4 224.81475 
L 242.4 224.81475 
" style="fill: none; stroke: #d62728; stroke-width: 1.5; stroke-linecap: square"/>
    </g>
    <g id="text_24">
     <!-- $2n$ -->
     <g transform="translate(261.6 233.21475) scale(0.24 -0.24)">
      <use xlink:href="#DejaVuSans-32" transform="translate(0 0.78125)"/>
      <use xlink:href="#DejaVuSans-Oblique-6e" transform="translate(63.623047 0.78125)"/>
     </g>
    </g>
   </g>
  </g>
 </g>
 <defs>
  <clipPath id="p7201a2c493">
   <rect x="172.8" y="87.696" width="1071.36" height="562.716"/>
  </clipPath>
 </defs>
</svg>
