<?xml version="1.0" encoding="utf-8" standalone="no"?>
<!DOCTYPE svg PUBLIC "-//W3C//DTD SVG 1.1//EN"
  "http://www.w3.org/Graphics/SVG/1.1/DTD/svg11.dtd">
<svg xmlns:xlink="http://www.w3.org/1999/xlink" width="1382.4pt" height="730.8pt" viewBox="0 0 1382.4 730.8" xmlns="http://www.w3.org/2000/svg" version="1.1">
 <metadata>
  <rdf:RDF xmlns:dc="http://purl.org/dc/elements/1.1/" xmlns:cc="http://creativecommons.org/ns#" xmlns:rdf="http://www.w3.org/1999/02/22-rdf-syntax-ns#">
   <cc:Work>
    <dc:type rdf:resource="http://purl.org/dc/dcmitype/StillImage"/>
    <dc:date>2024-05-19T12:49:36.032500</dc:date>
    <dc:format>image/svg+xml</dc:format>
    <dc:creator>
     <cc:Agent>
      <dc:title>Matplotlib v3.8.4, https://matplotlib.org/</dc:title>
     </cc:Agent>
    </dc:creator>
   </cc:Work>
  </rdf:RDF>
 </metadata>
 <defs>
  <style type="text/css">*{stroke-linejoin: round; stroke-linecap: butt}</style>
 </defs>
 <g id="figure_1">
  <g id="patch_1">
   <path d="M 0 730.8 
L 1382.4 730.8 
L 1382.4 0 
L 0 0 
z
" style="fill: #ffffff"/>
  </g>
  <g id="axes_1">
   <g id="patch_2">
    <path d="M 172.8 650.412 
L 1244.16 650.412 
L 1244.16 87.696 
L 172.8 87.696 
z
" style="fill: #ffffff"/>
   </g>
   <g id="matplotlib.axis_1">
    <g id="xtick_1">
     <g id="line2d_1">
      <defs>
       <path id="mecf0bf53a5" d="M 0 0 
L 0 3.5 
" style="stroke: #000000; stroke-width: 0.8"/>
      </defs>
      <g>
       <use xlink:href="#mecf0bf53a5" x="221.498182" y="650.412" style="stroke: #000000; stroke-width: 0.8"/>
      </g>
     </g>
     <g id="text_1">
      <!-- 0.0 -->
      <g transform="translate(202.414432 675.64825) scale(0.24 -0.24)">
       <defs>
        <path id="DejaVuSans-30" d="M 2034 4250 
Q 1547 4250 1301 3770 
Q 1056 3291 1056 2328 
Q 1056 1369 1301 889 
Q 1547 409 2034 409 
Q 2525 409 2770 889 
Q 3016 1369 3016 2328 
Q 3016 3291 2770 3770 
Q 2525 4250 2034 4250 
z
M 2034 4750 
Q 2819 4750 3233 4129 
Q 3647 3509 3647 2328 
Q 3647 1150 3233 529 
Q 2819 -91 2034 -91 
Q 1250 -91 836 529 
Q 422 1150 422 2328 
Q 422 3509 836 4129 
Q 1250 4750 2034 4750 
z
" transform="scale(0.015625)"/>
        <path id="DejaVuSans-2e" d="M 684 794 
L 1344 794 
L 1344 0 
L 684 0 
L 684 794 
z
" transform="scale(0.015625)"/>
       </defs>
       <use xlink:href="#DejaVuSans-30"/>
       <use xlink:href="#DejaVuSans-2e" x="63.623047"/>
       <use xlink:href="#DejaVuSans-30" x="95.410156"/>
      </g>
     </g>
    </g>
    <g id="xtick_2">
     <g id="line2d_2">
      <g>
       <use xlink:href="#mecf0bf53a5" x="416.290909" y="650.412" style="stroke: #000000; stroke-width: 0.8"/>
      </g>
     </g>
     <g id="text_2">
      <!-- 0.2 -->
      <g transform="translate(397.207159 675.64825) scale(0.24 -0.24)">
       <defs>
        <path id="DejaVuSans-32" d="M 1228 531 
L 3431 531 
L 3431 0 
L 469 0 
L 469 531 
Q 828 903 1448 1529 
Q 2069 2156 2228 2338 
Q 2531 2678 2651 2914 
Q 2772 3150 2772 3378 
Q 2772 3750 2511 3984 
Q 2250 4219 1831 4219 
Q 1534 4219 1204 4116 
Q 875 4013 500 3803 
L 500 4441 
Q 881 4594 1212 4672 
Q 1544 4750 1819 4750 
Q 2544 4750 2975 4387 
Q 3406 4025 3406 3419 
Q 3406 3131 3298 2873 
Q 3191 2616 2906 2266 
Q 2828 2175 2409 1742 
Q 1991 1309 1228 531 
z
" transform="scale(0.015625)"/>
       </defs>
       <use xlink:href="#DejaVuSans-30"/>
       <use xlink:href="#DejaVuSans-2e" x="63.623047"/>
       <use xlink:href="#DejaVuSans-32" x="95.410156"/>
      </g>
     </g>
    </g>
    <g id="xtick_3">
     <g id="line2d_3">
      <g>
       <use xlink:href="#mecf0bf53a5" x="611.083636" y="650.412" style="stroke: #000000; stroke-width: 0.8"/>
      </g>
     </g>
     <g id="text_3">
      <!-- 0.4 -->
      <g transform="translate(591.999886 675.64825) scale(0.24 -0.24)">
       <defs>
        <path id="DejaVuSans-34" d="M 2419 4116 
L 825 1625 
L 2419 1625 
L 2419 4116 
z
M 2253 4666 
L 3047 4666 
L 3047 1625 
L 3713 1625 
L 3713 1100 
L 3047 1100 
L 3047 0 
L 2419 0 
L 2419 1100 
L 313 1100 
L 313 1709 
L 2253 4666 
z
" transform="scale(0.015625)"/>
       </defs>
       <use xlink:href="#DejaVuSans-30"/>
       <use xlink:href="#DejaVuSans-2e" x="63.623047"/>
       <use xlink:href="#DejaVuSans-34" x="95.410156"/>
      </g>
     </g>
    </g>
    <g id="xtick_4">
     <g id="line2d_4">
      <g>
       <use xlink:href="#mecf0bf53a5" x="805.876364" y="650.412" style="stroke: #000000; stroke-width: 0.8"/>
      </g>
     </g>
     <g id="text_4">
      <!-- 0.6 -->
      <g transform="translate(786.792614 675.64825) scale(0.24 -0.24)">
       <defs>
        <path id="DejaVuSans-36" d="M 2113 2584 
Q 1688 2584 1439 2293 
Q 1191 2003 1191 1497 
Q 1191 994 1439 701 
Q 1688 409 2113 409 
Q 2538 409 2786 701 
Q 3034 994 3034 1497 
Q 3034 2003 2786 2293 
Q 2538 2584 2113 2584 
z
M 3366 4563 
L 3366 3988 
Q 3128 4100 2886 4159 
Q 2644 4219 2406 4219 
Q 1781 4219 1451 3797 
Q 1122 3375 1075 2522 
Q 1259 2794 1537 2939 
Q 1816 3084 2150 3084 
Q 2853 3084 3261 2657 
Q 3669 2231 3669 1497 
Q 3669 778 3244 343 
Q 2819 -91 2113 -91 
Q 1303 -91 875 529 
Q 447 1150 447 2328 
Q 447 3434 972 4092 
Q 1497 4750 2381 4750 
Q 2619 4750 2861 4703 
Q 3103 4656 3366 4563 
z
" transform="scale(0.015625)"/>
       </defs>
       <use xlink:href="#DejaVuSans-30"/>
       <use xlink:href="#DejaVuSans-2e" x="63.623047"/>
       <use xlink:href="#DejaVuSans-36" x="95.410156"/>
      </g>
     </g>
    </g>
    <g id="xtick_5">
     <g id="line2d_5">
      <g>
       <use xlink:href="#mecf0bf53a5" x="1000.669091" y="650.412" style="stroke: #000000; stroke-width: 0.8"/>
      </g>
     </g>
     <g id="text_5">
      <!-- 0.8 -->
      <g transform="translate(981.585341 675.64825) scale(0.24 -0.24)">
       <defs>
        <path id="DejaVuSans-38" d="M 2034 2216 
Q 1584 2216 1326 1975 
Q 1069 1734 1069 1313 
Q 1069 891 1326 650 
Q 1584 409 2034 409 
Q 2484 409 2743 651 
Q 3003 894 3003 1313 
Q 3003 1734 2745 1975 
Q 2488 2216 2034 2216 
z
M 1403 2484 
Q 997 2584 770 2862 
Q 544 3141 544 3541 
Q 544 4100 942 4425 
Q 1341 4750 2034 4750 
Q 2731 4750 3128 4425 
Q 3525 4100 3525 3541 
Q 3525 3141 3298 2862 
Q 3072 2584 2669 2484 
Q 3125 2378 3379 2068 
Q 3634 1759 3634 1313 
Q 3634 634 3220 271 
Q 2806 -91 2034 -91 
Q 1263 -91 848 271 
Q 434 634 434 1313 
Q 434 1759 690 2068 
Q 947 2378 1403 2484 
z
M 1172 3481 
Q 1172 3119 1398 2916 
Q 1625 2713 2034 2713 
Q 2441 2713 2670 2916 
Q 2900 3119 2900 3481 
Q 2900 3844 2670 4047 
Q 2441 4250 2034 4250 
Q 1625 4250 1398 4047 
Q 1172 3844 1172 3481 
z
" transform="scale(0.015625)"/>
       </defs>
       <use xlink:href="#DejaVuSans-30"/>
       <use xlink:href="#DejaVuSans-2e" x="63.623047"/>
       <use xlink:href="#DejaVuSans-38" x="95.410156"/>
      </g>
     </g>
    </g>
    <g id="xtick_6">
     <g id="line2d_6">
      <g>
       <use xlink:href="#mecf0bf53a5" x="1195.461818" y="650.412" style="stroke: #000000; stroke-width: 0.8"/>
      </g>
     </g>
     <g id="text_6">
      <!-- 1.0 -->
      <g transform="translate(1176.378068 675.64825) scale(0.24 -0.24)">
       <defs>
        <path id="DejaVuSans-31" d="M 794 531 
L 1825 531 
L 1825 4091 
L 703 3866 
L 703 4441 
L 1819 4666 
L 2450 4666 
L 2450 531 
L 3481 531 
L 3481 0 
L 794 0 
L 794 531 
z
" transform="scale(0.015625)"/>
       </defs>
       <use xlink:href="#DejaVuSans-31"/>
       <use xlink:href="#DejaVuSans-2e" x="63.623047"/>
       <use xlink:href="#DejaVuSans-30" x="95.410156"/>
      </g>
     </g>
    </g>
    <g id="text_7">
     <!-- $n$-values -->
     <g transform="translate(657.48 702.87575) scale(0.24 -0.24)">
      <defs>
       <path id="DejaVuSans-Oblique-6e" d="M 3566 2113 
L 3156 0 
L 2578 0 
L 2988 2091 
Q 3016 2238 3031 2350 
Q 3047 2463 3047 2528 
Q 3047 2791 2881 2937 
Q 2716 3084 2419 3084 
Q 1956 3084 1622 2776 
Q 1288 2469 1184 1941 
L 800 0 
L 225 0 
L 903 3500 
L 1478 3500 
L 1363 2950 
Q 1603 3253 1940 3418 
Q 2278 3584 2650 3584 
Q 3113 3584 3367 3334 
Q 3622 3084 3622 2631 
Q 3622 2519 3608 2391 
Q 3594 2263 3566 2113 
z
" transform="scale(0.015625)"/>
       <path id="DejaVuSans-2d" d="M 313 2009 
L 1997 2009 
L 1997 1497 
L 313 1497 
L 313 2009 
z
" transform="scale(0.015625)"/>
       <path id="DejaVuSans-76" d="M 191 3500 
L 800 3500 
L 1894 563 
L 2988 3500 
L 3597 3500 
L 2284 0 
L 1503 0 
L 191 3500 
z
" transform="scale(0.015625)"/>
       <path id="DejaVuSans-61" d="M 2194 1759 
Q 1497 1759 1228 1600 
Q 959 1441 959 1056 
Q 959 750 1161 570 
Q 1363 391 1709 391 
Q 2188 391 2477 730 
Q 2766 1069 2766 1631 
L 2766 1759 
L 2194 1759 
z
M 3341 1997 
L 3341 0 
L 2766 0 
L 2766 531 
Q 2569 213 2275 61 
Q 1981 -91 1556 -91 
Q 1019 -91 701 211 
Q 384 513 384 1019 
Q 384 1609 779 1909 
Q 1175 2209 1959 2209 
L 2766 2209 
L 2766 2266 
Q 2766 2663 2505 2880 
Q 2244 3097 1772 3097 
Q 1472 3097 1187 3025 
Q 903 2953 641 2809 
L 641 3341 
Q 956 3463 1253 3523 
Q 1550 3584 1831 3584 
Q 2591 3584 2966 3190 
Q 3341 2797 3341 1997 
z
" transform="scale(0.015625)"/>
       <path id="DejaVuSans-6c" d="M 603 4863 
L 1178 4863 
L 1178 0 
L 603 0 
L 603 4863 
z
" transform="scale(0.015625)"/>
       <path id="DejaVuSans-75" d="M 544 1381 
L 544 3500 
L 1119 3500 
L 1119 1403 
Q 1119 906 1312 657 
Q 1506 409 1894 409 
Q 2359 409 2629 706 
Q 2900 1003 2900 1516 
L 2900 3500 
L 3475 3500 
L 3475 0 
L 2900 0 
L 2900 538 
Q 2691 219 2414 64 
Q 2138 -91 1772 -91 
Q 1169 -91 856 284 
Q 544 659 544 1381 
z
M 1991 3584 
L 1991 3584 
z
" transform="scale(0.015625)"/>
       <path id="DejaVuSans-65" d="M 3597 1894 
L 3597 1613 
L 953 1613 
Q 991 1019 1311 708 
Q 1631 397 2203 397 
Q 2534 397 2845 478 
Q 3156 559 3463 722 
L 3463 178 
Q 3153 47 2828 -22 
Q 2503 -91 2169 -91 
Q 1331 -91 842 396 
Q 353 884 353 1716 
Q 353 2575 817 3079 
Q 1281 3584 2069 3584 
Q 2775 3584 3186 3129 
Q 3597 2675 3597 1894 
z
M 3022 2063 
Q 3016 2534 2758 2815 
Q 2500 3097 2075 3097 
Q 1594 3097 1305 2825 
Q 1016 2553 972 2059 
L 3022 2063 
z
" transform="scale(0.015625)"/>
       <path id="DejaVuSans-73" d="M 2834 3397 
L 2834 2853 
Q 2591 2978 2328 3040 
Q 2066 3103 1784 3103 
Q 1356 3103 1142 2972 
Q 928 2841 928 2578 
Q 928 2378 1081 2264 
Q 1234 2150 1697 2047 
L 1894 2003 
Q 2506 1872 2764 1633 
Q 3022 1394 3022 966 
Q 3022 478 2636 193 
Q 2250 -91 1575 -91 
Q 1294 -91 989 -36 
Q 684 19 347 128 
L 347 722 
Q 666 556 975 473 
Q 1284 391 1588 391 
Q 1994 391 2212 530 
Q 2431 669 2431 922 
Q 2431 1156 2273 1281 
Q 2116 1406 1581 1522 
L 1381 1569 
Q 847 1681 609 1914 
Q 372 2147 372 2553 
Q 372 3047 722 3315 
Q 1072 3584 1716 3584 
Q 2034 3584 2315 3537 
Q 2597 3491 2834 3397 
z
" transform="scale(0.015625)"/>
      </defs>
      <use xlink:href="#DejaVuSans-Oblique-6e" transform="translate(0 0.015625)"/>
      <use xlink:href="#DejaVuSans-2d" transform="translate(63.378906 0.015625)"/>
      <use xlink:href="#DejaVuSans-76" transform="translate(99.462891 0.015625)"/>
      <use xlink:href="#DejaVuSans-61" transform="translate(158.642578 0.015625)"/>
      <use xlink:href="#DejaVuSans-6c" transform="translate(219.921875 0.015625)"/>
      <use xlink:href="#DejaVuSans-75" transform="translate(247.705078 0.015625)"/>
      <use xlink:href="#DejaVuSans-65" transform="translate(311.083984 0.015625)"/>
      <use xlink:href="#DejaVuSans-73" transform="translate(372.607422 0.015625)"/>
     </g>
    </g>
    <g id="text_8">
     <!-- 1e18 -->
     <g transform="translate(1183.5825 701.87575) scale(0.24 -0.24)">
      <use xlink:href="#DejaVuSans-31"/>
      <use xlink:href="#DejaVuSans-65" x="63.623047"/>
      <use xlink:href="#DejaVuSans-31" x="125.146484"/>
      <use xlink:href="#DejaVuSans-38" x="188.769531"/>
     </g>
    </g>
   </g>
   <g id="matplotlib.axis_2">
    <g id="ytick_1">
     <g id="line2d_7">
      <defs>
       <path id="md63736139e" d="M 0 0 
L -3.5 0 
" style="stroke: #000000; stroke-width: 0.8"/>
      </defs>
      <g>
       <use xlink:href="#md63736139e" x="172.8" y="624.834" style="stroke: #000000; stroke-width: 0.8"/>
      </g>
     </g>
     <g id="text_9">
      <!-- 0.00 -->
      <g transform="translate(112.3625 633.952125) scale(0.24 -0.24)">
       <use xlink:href="#DejaVuSans-30"/>
       <use xlink:href="#DejaVuSans-2e" x="63.623047"/>
       <use xlink:href="#DejaVuSans-30" x="95.410156"/>
       <use xlink:href="#DejaVuSans-30" x="159.033203"/>
      </g>
     </g>
    </g>
    <g id="ytick_2">
     <g id="line2d_8">
      <g>
       <use xlink:href="#md63736139e" x="172.8" y="555.042823" style="stroke: #000000; stroke-width: 0.8"/>
      </g>
     </g>
     <g id="text_10">
      <!-- 0.25 -->
      <g transform="translate(112.3625 564.160948) scale(0.24 -0.24)">
       <defs>
        <path id="DejaVuSans-35" d="M 691 4666 
L 3169 4666 
L 3169 4134 
L 1269 4134 
L 1269 2991 
Q 1406 3038 1543 3061 
Q 1681 3084 1819 3084 
Q 2600 3084 3056 2656 
Q 3513 2228 3513 1497 
Q 3513 744 3044 326 
Q 2575 -91 1722 -91 
Q 1428 -91 1123 -41 
Q 819 9 494 109 
L 494 744 
Q 775 591 1075 516 
Q 1375 441 1709 441 
Q 2250 441 2565 725 
Q 2881 1009 2881 1497 
Q 2881 1984 2565 2268 
Q 2250 2553 1709 2553 
Q 1456 2553 1204 2497 
Q 953 2441 691 2322 
L 691 4666 
z
" transform="scale(0.015625)"/>
       </defs>
       <use xlink:href="#DejaVuSans-30"/>
       <use xlink:href="#DejaVuSans-2e" x="63.623047"/>
       <use xlink:href="#DejaVuSans-32" x="95.410156"/>
       <use xlink:href="#DejaVuSans-35" x="159.033203"/>
      </g>
     </g>
    </g>
    <g id="ytick_3">
     <g id="line2d_9">
      <g>
       <use xlink:href="#md63736139e" x="172.8" y="485.251647" style="stroke: #000000; stroke-width: 0.8"/>
      </g>
     </g>
     <g id="text_11">
      <!-- 0.50 -->
      <g transform="translate(112.3625 494.369772) scale(0.24 -0.24)">
       <use xlink:href="#DejaVuSans-30"/>
       <use xlink:href="#DejaVuSans-2e" x="63.623047"/>
       <use xlink:href="#DejaVuSans-35" x="95.410156"/>
       <use xlink:href="#DejaVuSans-30" x="159.033203"/>
      </g>
     </g>
    </g>
    <g id="ytick_4">
     <g id="line2d_10">
      <g>
       <use xlink:href="#md63736139e" x="172.8" y="415.46047" style="stroke: #000000; stroke-width: 0.8"/>
      </g>
     </g>
     <g id="text_12">
      <!-- 0.75 -->
      <g transform="translate(112.3625 424.578595) scale(0.24 -0.24)">
       <defs>
        <path id="DejaVuSans-37" d="M 525 4666 
L 3525 4666 
L 3525 4397 
L 1831 0 
L 1172 0 
L 2766 4134 
L 525 4134 
L 525 4666 
z
" transform="scale(0.015625)"/>
       </defs>
       <use xlink:href="#DejaVuSans-30"/>
       <use xlink:href="#DejaVuSans-2e" x="63.623047"/>
       <use xlink:href="#DejaVuSans-37" x="95.410156"/>
       <use xlink:href="#DejaVuSans-35" x="159.033203"/>
      </g>
     </g>
    </g>
    <g id="ytick_5">
     <g id="line2d_11">
      <g>
       <use xlink:href="#md63736139e" x="172.8" y="345.669294" style="stroke: #000000; stroke-width: 0.8"/>
      </g>
     </g>
     <g id="text_13">
      <!-- 1.00 -->
      <g transform="translate(112.3625 354.787419) scale(0.24 -0.24)">
       <use xlink:href="#DejaVuSans-31"/>
       <use xlink:href="#DejaVuSans-2e" x="63.623047"/>
       <use xlink:href="#DejaVuSans-30" x="95.410156"/>
       <use xlink:href="#DejaVuSans-30" x="159.033203"/>
      </g>
     </g>
    </g>
    <g id="ytick_6">
     <g id="line2d_12">
      <g>
       <use xlink:href="#md63736139e" x="172.8" y="275.878117" style="stroke: #000000; stroke-width: 0.8"/>
      </g>
     </g>
     <g id="text_14">
      <!-- 1.25 -->
      <g transform="translate(112.3625 284.996242) scale(0.24 -0.24)">
       <use xlink:href="#DejaVuSans-31"/>
       <use xlink:href="#DejaVuSans-2e" x="63.623047"/>
       <use xlink:href="#DejaVuSans-32" x="95.410156"/>
       <use xlink:href="#DejaVuSans-35" x="159.033203"/>
      </g>
     </g>
    </g>
    <g id="ytick_7">
     <g id="line2d_13">
      <g>
       <use xlink:href="#md63736139e" x="172.8" y="206.086941" style="stroke: #000000; stroke-width: 0.8"/>
      </g>
     </g>
     <g id="text_15">
      <!-- 1.50 -->
      <g transform="translate(112.3625 215.205066) scale(0.24 -0.24)">
       <use xlink:href="#DejaVuSans-31"/>
       <use xlink:href="#DejaVuSans-2e" x="63.623047"/>
       <use xlink:href="#DejaVuSans-35" x="95.410156"/>
       <use xlink:href="#DejaVuSans-30" x="159.033203"/>
      </g>
     </g>
    </g>
    <g id="ytick_8">
     <g id="line2d_14">
      <g>
       <use xlink:href="#md63736139e" x="172.8" y="136.295764" style="stroke: #000000; stroke-width: 0.8"/>
      </g>
     </g>
     <g id="text_16">
      <!-- 1.75 -->
      <g transform="translate(112.3625 145.413889) scale(0.24 -0.24)">
       <use xlink:href="#DejaVuSans-31"/>
       <use xlink:href="#DejaVuSans-2e" x="63.623047"/>
       <use xlink:href="#DejaVuSans-37" x="95.410156"/>
       <use xlink:href="#DejaVuSans-35" x="159.033203"/>
      </g>
     </g>
    </g>
    <g id="text_17">
     <!-- 1e18 -->
     <g transform="translate(172.8 84.696) scale(0.24 -0.24)">
      <use xlink:href="#DejaVuSans-31"/>
      <use xlink:href="#DejaVuSans-65" x="63.623047"/>
      <use xlink:href="#DejaVuSans-31" x="125.146484"/>
      <use xlink:href="#DejaVuSans-38" x="188.769531"/>
     </g>
    </g>
   </g>
   <g id="line2d_15">
    <path d="M 221.498182 624.834 
L 221.772321 624.67685 
L 221.772354 624.833958 
L 221.883416 624.679739 
L 222.046448 624.51971 
L 222.046495 624.833967 
L 222.157544 624.666708 
L 222.594739 624.2054 
L 222.594805 624.833939 
L 222.705853 624.658979 
L 223.365905 623.868105 
L 223.691341 623.576764 
L 223.691433 624.833867 
L 223.802528 624.654618 
L 224.671478 623.493866 
L 225.740253 622.440831 
L 225.884411 622.319601 
L 225.884542 624.833971 
L 225.995566 624.652616 
L 227.168742 622.970898 
L 228.52911 621.410787 
L 230.109069 619.940077 
L 230.270817 619.805056 
L 230.271002 624.833775 
L 230.38209 624.651186 
L 231.99169 622.234952 
L 233.780682 619.950716 
L 235.770007 617.772506 
L 237.98426 615.67966 
L 239.043361 614.776189 
L 239.043622 624.833882 
L 239.154651 624.650813 
L 241.385248 621.198242 
L 243.790614 617.884674 
L 246.3843 614.690521 
L 249.181734 611.598945 
L 252.200722 608.595053 
L 255.460983 605.666225 
L 256.588724 604.718225 
L 256.589093 624.833713 
L 256.700104 624.650386 
L 259.811927 619.733735 
L 263.095372 614.961267 
L 266.559446 610.318441 
L 270.214312 605.791883 
L 274.070945 601.369754 
L 278.141631 597.041064 
L 282.439593 592.796047 
L 286.979027 588.626011 
L 291.67942 584.602323 
L 291.679943 624.833529 
L 291.79084 624.650244 
L 296.15122 617.663821 
L 300.681121 610.825316 
L 305.386167 604.124731 
L 310.274036 597.55059 
L 315.351089 591.094655 
L 320.625852 584.747159 
L 326.106095 578.500577 
L 331.799974 572.347977 
L 337.717396 566.281624 
L 343.868125 560.29507 
L 350.262422 554.382373 
L 356.91033 548.538679 
L 361.861088 544.37029 
L 361.861828 624.832853 
L 361.972772 624.649417 
L 368.09989 614.737454 
L 374.39484 604.976405 
L 380.862295 595.357781 
L 387.506337 585.874754 
L 394.332013 576.519794 
L 401.344582 567.285832 
L 408.548669 558.167286 
L 415.949924 549.157851 
L 423.554219 540.251593 
L 431.367655 531.442925 
L 439.396564 522.726584 
L 447.647514 514.097611 
L 456.127315 505.551328 
L 464.843018 497.083322 
L 473.801928 488.68943 
L 483.011601 480.365721 
L 492.479853 472.108483 
L 502.214767 463.914212 
L 502.223133 463.907292 
L 502.224179 624.833848 
L 502.335043 624.650508 
L 510.961739 610.601725 
L 519.755584 596.705245 
L 528.719304 582.955771 
L 537.855699 569.348235 
L 547.168765 555.876178 
L 556.661494 542.535023 
L 566.336952 529.320381 
L 576.199456 516.226507 
L 586.252271 503.24943 
L 596.498739 490.38534 
L 606.943507 477.629103 
L 617.591366 464.975811 
L 628.444736 452.423641 
L 639.508604 439.967987 
L 650.788107 427.604442 
L 662.287223 415.330167 
L 674.011343 403.141069 
L 685.96467 391.034572 
L 698.152855 379.006873 
L 710.58033 367.055635 
L 723.251618 355.178612 
L 736.174163 343.371082 
L 749.351349 331.632319 
L 762.790935 319.957865 
L 776.496513 308.347152 
L 782.949807 302.97916 
L 782.951286 624.831859 
L 783.062214 624.648396 
L 795.225024 604.749079 
L 807.554407 585.003235 
L 820.051512 565.408243 
L 832.719038 545.959204 
L 845.559749 526.651385 
L 858.574902 507.482504 
L 871.767351 488.448061 
L 885.140018 469.543706 
L 898.694272 450.767454 
L 912.433125 432.115164 
L 926.35966 413.582827 
L 940.475358 395.168723 
L 954.783396 376.869029 
L 969.287021 358.680045 
L 983.989554 340.598184 
L 998.892647 322.622052 
L 1013.999718 304.748225 
L 1029.312482 286.975422 
L 1044.836245 269.298348 
L 1060.572839 251.715888 
L 1076.525929 234.224963 
L 1092.697414 216.824553 
L 1109.09106 199.511709 
L 1125.712588 182.281646 
L 1142.562183 165.135462 
L 1159.645705 148.068524 
L 1176.965305 131.080098 
L 1194.525091 114.167602 
L 1195.461818 113.274 
L 1195.461818 113.274 
" clip-path="url(#p36892ce869)" style="fill: none; stroke: #1f77b4; stroke-width: 1.5; stroke-linecap: square"/>
   </g>
   <g id="line2d_16">
    <path d="M 221.498182 624.834 
L 222.126445 624.777399 
L 222.17787 624.83399 
L 222.256162 624.757557 
L 222.594805 624.519739 
L 222.630252 624.567281 
L 222.857538 624.833998 
L 222.922407 624.768041 
L 223.597709 624.257685 
L 223.757179 624.293788 
L 224.216935 624.833961 
L 224.266871 624.782249 
L 225.169388 624.017408 
L 225.920696 623.625971 
L 226.935606 624.833992 
L 226.944342 624.824864 
L 228.172618 623.701385 
L 229.583263 622.714616 
L 230.324141 622.392091 
L 231.819328 624.2344 
L 232.373193 624.833845 
L 232.440811 624.763282 
L 234.148708 623.148303 
L 236.032943 621.673665 
L 238.117835 620.326214 
L 239.098307 619.87975 
L 241.177036 622.523813 
L 243.24817 624.833725 
L 243.257777 624.823663 
L 245.630043 622.500562 
L 248.173355 620.321617 
L 250.9036 618.276193 
L 253.839215 616.35603 
L 256.604254 614.796995 
L 259.50732 618.576503 
L 262.553688 622.178298 
L 264.997815 624.83381 
L 265.029108 624.80104 
L 268.350907 621.484868 
L 271.840436 618.315558 
L 275.508944 615.28444 
L 279.368167 612.384777 
L 283.430772 609.611194 
L 287.711407 606.95896 
L 291.694061 604.737756 
L 295.767199 610.117951 
L 299.982292 615.317931 
L 304.344395 620.346634 
L 308.497552 624.833512 
L 308.508614 624.821923 
L 313.170729 620.099183 
L 317.998648 615.524966 
L 322.9995 611.093293 
L 328.181467 606.798417 
L 333.553219 602.635374 
L 339.12324 598.600403 
L 344.901847 594.689439 
L 350.898524 590.90001 
L 357.123953 587.229758 
L 361.891409 584.643519 
L 367.62039 592.287294 
L 373.490098 599.748635 
L 379.503632 607.033669 
L 385.66582 614.14988 
L 391.980109 621.10238 
L 395.496716 624.833239 
L 395.549413 624.77804 
L 402.109622 618.068508 
L 408.834752 611.50827 
L 415.728911 605.093741 
L 422.798119 598.820094 
L 430.047761 592.683708 
L 437.483436 586.681312 
L 445.111886 580.809264 
L 452.939189 575.065003 
L 460.971643 569.446268 
L 469.216755 563.950446 
L 477.68233 558.575281 
L 486.37546 553.319457 
L 495.30348 548.181911 
L 502.25137 544.407558 
L 510.320685 555.252342 
L 518.530142 565.9135 
L 526.881911 576.395471 
L 535.379329 586.703784 
L 544.023616 596.841059 
L 552.819407 606.813612 
L 561.769219 616.624875 
L 569.494498 624.833267 
L 569.514292 624.812529 
L 578.757296 615.290326 
L 588.16327 605.91932 
L 597.736255 596.695685 
L 607.479199 587.616965 
L 617.396361 578.679753 
L 627.492134 569.880871 
L 637.771048 561.217366 
L 648.236482 552.687533 
L 658.891887 544.289787 
L 669.743437 536.020681 
L 680.794835 527.878988 
L 692.051216 519.862639 
L 703.516494 511.970677 
L 715.196049 504.20134 
L 727.095411 496.55304 
L 739.220261 489.024362 
L 751.576434 481.614057 
L 764.168467 474.32187 
L 777.002459 467.146816 
L 783.001572 463.977032 
L 794.382129 479.349284 
L 805.902514 494.537125 
L 817.563487 509.542777 
L 829.367354 524.370311 
L 841.316477 539.023629 
L 853.411716 553.50461 
L 865.655514 567.816916 
L 878.050378 581.964049 
L 890.598879 595.949365 
L 903.30202 609.77432 
L 916.162453 623.442058 
L 917.490673 624.832682 
L 917.564774 624.755052 
L 930.603277 611.257471 
L 943.804702 597.911124 
L 957.170206 584.714927 
L 970.704363 571.664569 
L 984.408429 558.759167 
L 998.285404 545.996285 
L 1012.338354 533.3736 
L 1026.568642 520.890444 
L 1040.981209 508.543139 
L 1055.577523 496.331192 
L 1070.360876 484.252655 
L 1085.334629 472.305687 
L 1100.502214 460.488549 
L 1115.865267 448.801003 
L 1131.429194 437.240062 
L 1147.195744 425.805638 
L 1163.168585 414.496317 
L 1179.353391 403.309455 
L 1195.461818 392.438706 
L 1195.461818 392.438706 
" clip-path="url(#p36892ce869)" style="fill: none; stroke: #ff7f0e; stroke-width: 1.5; stroke-linecap: square"/>
   </g>
   <g id="line2d_17">
    <path d="M 221.498182 624.834 
L 1195.461818 345.669294 
L 1195.461818 345.669294 
" clip-path="url(#p36892ce869)" style="fill: none; stroke: #2ca02c; stroke-width: 1.5; stroke-linecap: square"/>
   </g>
   <g id="patch_3">
    <path d="M 172.8 650.412 
L 172.8 87.696 
" style="fill: none; stroke: #000000; stroke-width: 0.8; stroke-linejoin: miter; stroke-linecap: square"/>
   </g>
   <g id="patch_4">
    <path d="M 1244.16 650.412 
L 1244.16 87.696 
" style="fill: none; stroke: #000000; stroke-width: 0.8; stroke-linejoin: miter; stroke-linecap: square"/>
   </g>
   <g id="patch_5">
    <path d="M 172.8 650.412 
L 1244.16 650.412 
" style="fill: none; stroke: #000000; stroke-width: 0.8; stroke-linejoin: miter; stroke-linecap: square"/>
   </g>
   <g id="patch_6">
    <path d="M 172.8 87.696 
L 1244.16 87.696 
" style="fill: none; stroke: #000000; stroke-width: 0.8; stroke-linejoin: miter; stroke-linecap: square"/>
   </g>
   <g id="text_18">
    <g id="patch_7">
     <path d="M 444.03422 214.98825 
L 774.51422 214.98825 
Q 781.71422 214.98825 781.71422 207.78825 
L 781.71422 103.9365 
Q 781.71422 96.7365 774.51422 96.7365 
L 444.03422 96.7365 
Q 436.83422 96.7365 436.83422 103.9365 
L 436.83422 207.78825 
Q 436.83422 214.98825 444.03422 214.98825 
z
" style="fill: #ffebcd; opacity: 0.5; stroke: #ffa500; stroke-linejoin: miter"/>
    </g>
    <!-- Averages: -->
    <g transform="translate(444.03422 122.17275) scale(0.24 -0.24)">
     <defs>
      <path id="DejaVuSans-41" d="M 2188 4044 
L 1331 1722 
L 3047 1722 
L 2188 4044 
z
M 1831 4666 
L 2547 4666 
L 4325 0 
L 3669 0 
L 3244 1197 
L 1141 1197 
L 716 0 
L 50 0 
L 1831 4666 
z
" transform="scale(0.015625)"/>
      <path id="DejaVuSans-72" d="M 2631 2963 
Q 2534 3019 2420 3045 
Q 2306 3072 2169 3072 
Q 1681 3072 1420 2755 
Q 1159 2438 1159 1844 
L 1159 0 
L 581 0 
L 581 3500 
L 1159 3500 
L 1159 2956 
Q 1341 3275 1631 3429 
Q 1922 3584 2338 3584 
Q 2397 3584 2469 3576 
Q 2541 3569 2628 3553 
L 2631 2963 
z
" transform="scale(0.015625)"/>
      <path id="DejaVuSans-67" d="M 2906 1791 
Q 2906 2416 2648 2759 
Q 2391 3103 1925 3103 
Q 1463 3103 1205 2759 
Q 947 2416 947 1791 
Q 947 1169 1205 825 
Q 1463 481 1925 481 
Q 2391 481 2648 825 
Q 2906 1169 2906 1791 
z
M 3481 434 
Q 3481 -459 3084 -895 
Q 2688 -1331 1869 -1331 
Q 1566 -1331 1297 -1286 
Q 1028 -1241 775 -1147 
L 775 -588 
Q 1028 -725 1275 -790 
Q 1522 -856 1778 -856 
Q 2344 -856 2625 -561 
Q 2906 -266 2906 331 
L 2906 616 
Q 2728 306 2450 153 
Q 2172 0 1784 0 
Q 1141 0 747 490 
Q 353 981 353 1791 
Q 353 2603 747 3093 
Q 1141 3584 1784 3584 
Q 2172 3584 2450 3431 
Q 2728 3278 2906 2969 
L 2906 3500 
L 3481 3500 
L 3481 434 
z
" transform="scale(0.015625)"/>
      <path id="DejaVuSans-3a" d="M 750 794 
L 1409 794 
L 1409 0 
L 750 0 
L 750 794 
z
M 750 3309 
L 1409 3309 
L 1409 2516 
L 750 2516 
L 750 3309 
z
" transform="scale(0.015625)"/>
     </defs>
     <use xlink:href="#DejaVuSans-41"/>
     <use xlink:href="#DejaVuSans-76" x="62.533203"/>
     <use xlink:href="#DejaVuSans-65" x="121.712891"/>
     <use xlink:href="#DejaVuSans-72" x="183.236328"/>
     <use xlink:href="#DejaVuSans-61" x="224.349609"/>
     <use xlink:href="#DejaVuSans-67" x="285.628906"/>
     <use xlink:href="#DejaVuSans-65" x="349.105469"/>
     <use xlink:href="#DejaVuSans-73" x="410.628906"/>
     <use xlink:href="#DejaVuSans-3a" x="462.728516"/>
    </g>
    <!-- $\omega(n)$ = 4.404e+17 -->
    <g transform="translate(444.03422 149.0475) scale(0.24 -0.24)">
     <defs>
      <path id="DejaVuSans-Oblique-3c9" d="M 1369 -91 
Q 72 -91 434 1766 
Q 575 2500 1256 3500 
L 1875 3500 
Q 1231 2500 1088 1750 
Q 819 397 1519 397 
Q 2166 397 2478 2078 
L 3009 2078 
Q 2669 388 3316 397 
Q 4013 403 4275 1750 
Q 4419 2500 4169 3500 
L 4788 3500 
Q 5075 2500 4934 1766 
Q 4578 -94 3278 -91 
Q 2428 -88 2503 844 
Q 2194 -91 1369 -91 
z
" transform="scale(0.015625)"/>
      <path id="DejaVuSans-28" d="M 1984 4856 
Q 1566 4138 1362 3434 
Q 1159 2731 1159 2009 
Q 1159 1288 1364 580 
Q 1569 -128 1984 -844 
L 1484 -844 
Q 1016 -109 783 600 
Q 550 1309 550 2009 
Q 550 2706 781 3412 
Q 1013 4119 1484 4856 
L 1984 4856 
z
" transform="scale(0.015625)"/>
      <path id="DejaVuSans-29" d="M 513 4856 
L 1013 4856 
Q 1481 4119 1714 3412 
Q 1947 2706 1947 2009 
Q 1947 1309 1714 600 
Q 1481 -109 1013 -844 
L 513 -844 
Q 928 -128 1133 580 
Q 1338 1288 1338 2009 
Q 1338 2731 1133 3434 
Q 928 4138 513 4856 
z
" transform="scale(0.015625)"/>
      <path id="DejaVuSans-20" transform="scale(0.015625)"/>
      <path id="DejaVuSans-3d" d="M 678 2906 
L 4684 2906 
L 4684 2381 
L 678 2381 
L 678 2906 
z
M 678 1631 
L 4684 1631 
L 4684 1100 
L 678 1100 
L 678 1631 
z
" transform="scale(0.015625)"/>
      <path id="DejaVuSans-2b" d="M 2944 4013 
L 2944 2272 
L 4684 2272 
L 4684 1741 
L 2944 1741 
L 2944 0 
L 2419 0 
L 2419 1741 
L 678 1741 
L 678 2272 
L 2419 2272 
L 2419 4013 
L 2944 4013 
z
" transform="scale(0.015625)"/>
     </defs>
     <use xlink:href="#DejaVuSans-Oblique-3c9" transform="translate(0 0.125)"/>
     <use xlink:href="#DejaVuSans-28" transform="translate(83.740234 0.125)"/>
     <use xlink:href="#DejaVuSans-Oblique-6e" transform="translate(122.753906 0.125)"/>
     <use xlink:href="#DejaVuSans-29" transform="translate(186.132812 0.125)"/>
     <use xlink:href="#DejaVuSans-20" transform="translate(225.146484 0.125)"/>
     <use xlink:href="#DejaVuSans-3d" transform="translate(256.933594 0.125)"/>
     <use xlink:href="#DejaVuSans-20" transform="translate(340.722656 0.125)"/>
     <use xlink:href="#DejaVuSans-34" transform="translate(372.509766 0.125)"/>
     <use xlink:href="#DejaVuSans-2e" transform="translate(436.132812 0.125)"/>
     <use xlink:href="#DejaVuSans-34" transform="translate(467.919922 0.125)"/>
     <use xlink:href="#DejaVuSans-30" transform="translate(531.542969 0.125)"/>
     <use xlink:href="#DejaVuSans-34" transform="translate(595.166016 0.125)"/>
     <use xlink:href="#DejaVuSans-65" transform="translate(658.789062 0.125)"/>
     <use xlink:href="#DejaVuSans-2b" transform="translate(720.3125 0.125)"/>
     <use xlink:href="#DejaVuSans-31" transform="translate(804.101562 0.125)"/>
     <use xlink:href="#DejaVuSans-37" transform="translate(867.724609 0.125)"/>
    </g>
    <!-- $Abs(\omega(n) - n)$ = 1.818e+17 -->
    <g transform="translate(444.03422 175.92225) scale(0.24 -0.24)">
     <defs>
      <path id="DejaVuSans-Oblique-41" d="M 2356 4666 
L 3072 4666 
L 3938 0 
L 3278 0 
L 3084 1197 
L 984 1197 
L 325 0 
L -341 0 
L 2356 4666 
z
M 2584 4044 
L 1275 1722 
L 2988 1722 
L 2584 4044 
z
" transform="scale(0.015625)"/>
      <path id="DejaVuSans-Oblique-62" d="M 3169 2138 
Q 3169 2591 2961 2847 
Q 2753 3103 2388 3103 
Q 2122 3103 1889 2973 
Q 1656 2844 1484 2597 
Q 1303 2338 1198 1995 
Q 1094 1653 1094 1313 
Q 1094 881 1298 636 
Q 1503 391 1863 391 
Q 2134 391 2365 517 
Q 2597 644 2772 891 
Q 2950 1147 3059 1487 
Q 3169 1828 3169 2138 
z
M 1381 2969 
Q 1594 3256 1914 3420 
Q 2234 3584 2584 3584 
Q 3122 3584 3439 3221 
Q 3756 2859 3756 2241 
Q 3756 1734 3570 1259 
Q 3384 784 3041 416 
Q 2816 172 2522 40 
Q 2228 -91 1906 -91 
Q 1566 -91 1316 65 
Q 1066 222 909 531 
L 806 0 
L 231 0 
L 1178 4863 
L 1753 4863 
L 1381 2969 
z
" transform="scale(0.015625)"/>
      <path id="DejaVuSans-Oblique-73" d="M 3200 3397 
L 3091 2853 
Q 2863 2978 2609 3040 
Q 2356 3103 2088 3103 
Q 1634 3103 1373 2948 
Q 1113 2794 1113 2528 
Q 1113 2219 1719 2053 
Q 1766 2041 1788 2034 
L 1972 1978 
Q 2547 1819 2739 1644 
Q 2931 1469 2931 1166 
Q 2931 609 2489 259 
Q 2047 -91 1331 -91 
Q 1053 -91 747 -37 
Q 441 16 72 128 
L 184 722 
Q 500 559 806 475 
Q 1113 391 1394 391 
Q 1816 391 2080 572 
Q 2344 753 2344 1031 
Q 2344 1331 1650 1516 
L 1591 1531 
L 1394 1581 
Q 956 1697 753 1886 
Q 550 2075 550 2369 
Q 550 2928 970 3256 
Q 1391 3584 2113 3584 
Q 2397 3584 2667 3537 
Q 2938 3491 3200 3397 
z
" transform="scale(0.015625)"/>
      <path id="DejaVuSans-2212" d="M 678 2272 
L 4684 2272 
L 4684 1741 
L 678 1741 
L 678 2272 
z
" transform="scale(0.015625)"/>
     </defs>
     <use xlink:href="#DejaVuSans-Oblique-41" transform="translate(0 0.015625)"/>
     <use xlink:href="#DejaVuSans-Oblique-62" transform="translate(68.408203 0.015625)"/>
     <use xlink:href="#DejaVuSans-Oblique-73" transform="translate(131.884766 0.015625)"/>
     <use xlink:href="#DejaVuSans-28" transform="translate(183.984375 0.015625)"/>
     <use xlink:href="#DejaVuSans-Oblique-3c9" transform="translate(222.998047 0.015625)"/>
     <use xlink:href="#DejaVuSans-28" transform="translate(306.738281 0.015625)"/>
     <use xlink:href="#DejaVuSans-Oblique-6e" transform="translate(345.751953 0.015625)"/>
     <use xlink:href="#DejaVuSans-29" transform="translate(409.130859 0.015625)"/>
     <use xlink:href="#DejaVuSans-2212" transform="translate(467.626953 0.015625)"/>
     <use xlink:href="#DejaVuSans-Oblique-6e" transform="translate(570.898438 0.015625)"/>
     <use xlink:href="#DejaVuSans-29" transform="translate(634.277344 0.015625)"/>
     <use xlink:href="#DejaVuSans-20" transform="translate(673.291016 0.015625)"/>
     <use xlink:href="#DejaVuSans-3d" transform="translate(705.078125 0.015625)"/>
     <use xlink:href="#DejaVuSans-20" transform="translate(788.867188 0.015625)"/>
     <use xlink:href="#DejaVuSans-31" transform="translate(820.654297 0.015625)"/>
     <use xlink:href="#DejaVuSans-2e" transform="translate(884.277344 0.015625)"/>
     <use xlink:href="#DejaVuSans-38" transform="translate(913.439453 0.015625)"/>
     <use xlink:href="#DejaVuSans-31" transform="translate(977.0625 0.015625)"/>
     <use xlink:href="#DejaVuSans-38" transform="translate(1040.685547 0.015625)"/>
     <use xlink:href="#DejaVuSans-65" transform="translate(1104.308594 0.015625)"/>
     <use xlink:href="#DejaVuSans-2b" transform="translate(1165.832031 0.015625)"/>
     <use xlink:href="#DejaVuSans-31" transform="translate(1249.621094 0.015625)"/>
     <use xlink:href="#DejaVuSans-37" transform="translate(1313.244141 0.015625)"/>
    </g>
    <!-- $n$-size = 3.333e+17 -->
    <g transform="translate(444.03422 202.797) scale(0.24 -0.24)">
     <defs>
      <path id="DejaVuSans-69" d="M 603 3500 
L 1178 3500 
L 1178 0 
L 603 0 
L 603 3500 
z
M 603 4863 
L 1178 4863 
L 1178 4134 
L 603 4134 
L 603 4863 
z
" transform="scale(0.015625)"/>
      <path id="DejaVuSans-7a" d="M 353 3500 
L 3084 3500 
L 3084 2975 
L 922 459 
L 3084 459 
L 3084 0 
L 275 0 
L 275 525 
L 2438 3041 
L 353 3041 
L 353 3500 
z
" transform="scale(0.015625)"/>
      <path id="DejaVuSans-33" d="M 2597 2516 
Q 3050 2419 3304 2112 
Q 3559 1806 3559 1356 
Q 3559 666 3084 287 
Q 2609 -91 1734 -91 
Q 1441 -91 1130 -33 
Q 819 25 488 141 
L 488 750 
Q 750 597 1062 519 
Q 1375 441 1716 441 
Q 2309 441 2620 675 
Q 2931 909 2931 1356 
Q 2931 1769 2642 2001 
Q 2353 2234 1838 2234 
L 1294 2234 
L 1294 2753 
L 1863 2753 
Q 2328 2753 2575 2939 
Q 2822 3125 2822 3475 
Q 2822 3834 2567 4026 
Q 2313 4219 1838 4219 
Q 1578 4219 1281 4162 
Q 984 4106 628 3988 
L 628 4550 
Q 988 4650 1302 4700 
Q 1616 4750 1894 4750 
Q 2613 4750 3031 4423 
Q 3450 4097 3450 3541 
Q 3450 3153 3228 2886 
Q 3006 2619 2597 2516 
z
" transform="scale(0.015625)"/>
     </defs>
     <use xlink:href="#DejaVuSans-Oblique-6e" transform="translate(0 0.015625)"/>
     <use xlink:href="#DejaVuSans-2d" transform="translate(63.378906 0.015625)"/>
     <use xlink:href="#DejaVuSans-73" transform="translate(99.462891 0.015625)"/>
     <use xlink:href="#DejaVuSans-69" transform="translate(151.5625 0.015625)"/>
     <use xlink:href="#DejaVuSans-7a" transform="translate(179.345703 0.015625)"/>
     <use xlink:href="#DejaVuSans-65" transform="translate(231.835938 0.015625)"/>
     <use xlink:href="#DejaVuSans-20" transform="translate(293.359375 0.015625)"/>
     <use xlink:href="#DejaVuSans-3d" transform="translate(325.146484 0.015625)"/>
     <use xlink:href="#DejaVuSans-20" transform="translate(408.935547 0.015625)"/>
     <use xlink:href="#DejaVuSans-33" transform="translate(440.722656 0.015625)"/>
     <use xlink:href="#DejaVuSans-2e" transform="translate(504.345703 0.015625)"/>
     <use xlink:href="#DejaVuSans-33" transform="translate(536.132812 0.015625)"/>
     <use xlink:href="#DejaVuSans-33" transform="translate(599.755859 0.015625)"/>
     <use xlink:href="#DejaVuSans-33" transform="translate(663.378906 0.015625)"/>
     <use xlink:href="#DejaVuSans-65" transform="translate(727.001953 0.015625)"/>
     <use xlink:href="#DejaVuSans-2b" transform="translate(788.525391 0.015625)"/>
     <use xlink:href="#DejaVuSans-31" transform="translate(872.314453 0.015625)"/>
     <use xlink:href="#DejaVuSans-37" transform="translate(935.9375 0.015625)"/>
    </g>
   </g>
   <g id="text_19">
    <!-- Empirical Bounds of $\omega(n)$ -->
    <g transform="translate(527.904 81.648) scale(0.288 -0.288)">
     <defs>
      <path id="DejaVuSans-45" d="M 628 4666 
L 3578 4666 
L 3578 4134 
L 1259 4134 
L 1259 2753 
L 3481 2753 
L 3481 2222 
L 1259 2222 
L 1259 531 
L 3634 531 
L 3634 0 
L 628 0 
L 628 4666 
z
" transform="scale(0.015625)"/>
      <path id="DejaVuSans-6d" d="M 3328 2828 
Q 3544 3216 3844 3400 
Q 4144 3584 4550 3584 
Q 5097 3584 5394 3201 
Q 5691 2819 5691 2113 
L 5691 0 
L 5113 0 
L 5113 2094 
Q 5113 2597 4934 2840 
Q 4756 3084 4391 3084 
Q 3944 3084 3684 2787 
Q 3425 2491 3425 1978 
L 3425 0 
L 2847 0 
L 2847 2094 
Q 2847 2600 2669 2842 
Q 2491 3084 2119 3084 
Q 1678 3084 1418 2786 
Q 1159 2488 1159 1978 
L 1159 0 
L 581 0 
L 581 3500 
L 1159 3500 
L 1159 2956 
Q 1356 3278 1631 3431 
Q 1906 3584 2284 3584 
Q 2666 3584 2933 3390 
Q 3200 3197 3328 2828 
z
" transform="scale(0.015625)"/>
      <path id="DejaVuSans-70" d="M 1159 525 
L 1159 -1331 
L 581 -1331 
L 581 3500 
L 1159 3500 
L 1159 2969 
Q 1341 3281 1617 3432 
Q 1894 3584 2278 3584 
Q 2916 3584 3314 3078 
Q 3713 2572 3713 1747 
Q 3713 922 3314 415 
Q 2916 -91 2278 -91 
Q 1894 -91 1617 61 
Q 1341 213 1159 525 
z
M 3116 1747 
Q 3116 2381 2855 2742 
Q 2594 3103 2138 3103 
Q 1681 3103 1420 2742 
Q 1159 2381 1159 1747 
Q 1159 1113 1420 752 
Q 1681 391 2138 391 
Q 2594 391 2855 752 
Q 3116 1113 3116 1747 
z
" transform="scale(0.015625)"/>
      <path id="DejaVuSans-63" d="M 3122 3366 
L 3122 2828 
Q 2878 2963 2633 3030 
Q 2388 3097 2138 3097 
Q 1578 3097 1268 2742 
Q 959 2388 959 1747 
Q 959 1106 1268 751 
Q 1578 397 2138 397 
Q 2388 397 2633 464 
Q 2878 531 3122 666 
L 3122 134 
Q 2881 22 2623 -34 
Q 2366 -91 2075 -91 
Q 1284 -91 818 406 
Q 353 903 353 1747 
Q 353 2603 823 3093 
Q 1294 3584 2113 3584 
Q 2378 3584 2631 3529 
Q 2884 3475 3122 3366 
z
" transform="scale(0.015625)"/>
      <path id="DejaVuSans-42" d="M 1259 2228 
L 1259 519 
L 2272 519 
Q 2781 519 3026 730 
Q 3272 941 3272 1375 
Q 3272 1813 3026 2020 
Q 2781 2228 2272 2228 
L 1259 2228 
z
M 1259 4147 
L 1259 2741 
L 2194 2741 
Q 2656 2741 2882 2914 
Q 3109 3088 3109 3444 
Q 3109 3797 2882 3972 
Q 2656 4147 2194 4147 
L 1259 4147 
z
M 628 4666 
L 2241 4666 
Q 2963 4666 3353 4366 
Q 3744 4066 3744 3513 
Q 3744 3084 3544 2831 
Q 3344 2578 2956 2516 
Q 3422 2416 3680 2098 
Q 3938 1781 3938 1306 
Q 3938 681 3513 340 
Q 3088 0 2303 0 
L 628 0 
L 628 4666 
z
" transform="scale(0.015625)"/>
      <path id="DejaVuSans-6f" d="M 1959 3097 
Q 1497 3097 1228 2736 
Q 959 2375 959 1747 
Q 959 1119 1226 758 
Q 1494 397 1959 397 
Q 2419 397 2687 759 
Q 2956 1122 2956 1747 
Q 2956 2369 2687 2733 
Q 2419 3097 1959 3097 
z
M 1959 3584 
Q 2709 3584 3137 3096 
Q 3566 2609 3566 1747 
Q 3566 888 3137 398 
Q 2709 -91 1959 -91 
Q 1206 -91 779 398 
Q 353 888 353 1747 
Q 353 2609 779 3096 
Q 1206 3584 1959 3584 
z
" transform="scale(0.015625)"/>
      <path id="DejaVuSans-6e" d="M 3513 2113 
L 3513 0 
L 2938 0 
L 2938 2094 
Q 2938 2591 2744 2837 
Q 2550 3084 2163 3084 
Q 1697 3084 1428 2787 
Q 1159 2491 1159 1978 
L 1159 0 
L 581 0 
L 581 3500 
L 1159 3500 
L 1159 2956 
Q 1366 3272 1645 3428 
Q 1925 3584 2291 3584 
Q 2894 3584 3203 3211 
Q 3513 2838 3513 2113 
z
" transform="scale(0.015625)"/>
      <path id="DejaVuSans-64" d="M 2906 2969 
L 2906 4863 
L 3481 4863 
L 3481 0 
L 2906 0 
L 2906 525 
Q 2725 213 2448 61 
Q 2172 -91 1784 -91 
Q 1150 -91 751 415 
Q 353 922 353 1747 
Q 353 2572 751 3078 
Q 1150 3584 1784 3584 
Q 2172 3584 2448 3432 
Q 2725 3281 2906 2969 
z
M 947 1747 
Q 947 1113 1208 752 
Q 1469 391 1925 391 
Q 2381 391 2643 752 
Q 2906 1113 2906 1747 
Q 2906 2381 2643 2742 
Q 2381 3103 1925 3103 
Q 1469 3103 1208 2742 
Q 947 2381 947 1747 
z
" transform="scale(0.015625)"/>
      <path id="DejaVuSans-66" d="M 2375 4863 
L 2375 4384 
L 1825 4384 
Q 1516 4384 1395 4259 
Q 1275 4134 1275 3809 
L 1275 3500 
L 2222 3500 
L 2222 3053 
L 1275 3053 
L 1275 0 
L 697 0 
L 697 3053 
L 147 3053 
L 147 3500 
L 697 3500 
L 697 3744 
Q 697 4328 969 4595 
Q 1241 4863 1831 4863 
L 2375 4863 
z
" transform="scale(0.015625)"/>
     </defs>
     <use xlink:href="#DejaVuSans-45" transform="translate(0 0.015625)"/>
     <use xlink:href="#DejaVuSans-6d" transform="translate(63.183594 0.015625)"/>
     <use xlink:href="#DejaVuSans-70" transform="translate(160.595703 0.015625)"/>
     <use xlink:href="#DejaVuSans-69" transform="translate(224.072266 0.015625)"/>
     <use xlink:href="#DejaVuSans-72" transform="translate(251.855469 0.015625)"/>
     <use xlink:href="#DejaVuSans-69" transform="translate(292.96875 0.015625)"/>
     <use xlink:href="#DejaVuSans-63" transform="translate(320.751953 0.015625)"/>
     <use xlink:href="#DejaVuSans-61" transform="translate(375.732422 0.015625)"/>
     <use xlink:href="#DejaVuSans-6c" transform="translate(437.011719 0.015625)"/>
     <use xlink:href="#DejaVuSans-20" transform="translate(464.794922 0.015625)"/>
     <use xlink:href="#DejaVuSans-42" transform="translate(496.582031 0.015625)"/>
     <use xlink:href="#DejaVuSans-6f" transform="translate(565.185547 0.015625)"/>
     <use xlink:href="#DejaVuSans-75" transform="translate(626.367188 0.015625)"/>
     <use xlink:href="#DejaVuSans-6e" transform="translate(689.746094 0.015625)"/>
     <use xlink:href="#DejaVuSans-64" transform="translate(753.125 0.015625)"/>
     <use xlink:href="#DejaVuSans-73" transform="translate(816.601562 0.015625)"/>
     <use xlink:href="#DejaVuSans-20" transform="translate(868.701172 0.015625)"/>
     <use xlink:href="#DejaVuSans-6f" transform="translate(900.488281 0.015625)"/>
     <use xlink:href="#DejaVuSans-66" transform="translate(961.669922 0.015625)"/>
     <use xlink:href="#DejaVuSans-20" transform="translate(996.875 0.015625)"/>
     <use xlink:href="#DejaVuSans-Oblique-3c9" transform="translate(1028.662109 0.015625)"/>
     <use xlink:href="#DejaVuSans-28" transform="translate(1112.402344 0.015625)"/>
     <use xlink:href="#DejaVuSans-Oblique-6e" transform="translate(1151.416016 0.015625)"/>
     <use xlink:href="#DejaVuSans-29" transform="translate(1214.794922 0.015625)"/>
    </g>
   </g>
   <g id="legend_1">
    <g id="patch_8">
     <path d="M 189.6 212.5785 
L 428.16 212.5785 
Q 432.96 212.5785 432.96 207.7785 
L 432.96 104.496 
Q 432.96 99.696 428.16 99.696 
L 189.6 99.696 
Q 184.8 99.696 184.8 104.496 
L 184.8 207.7785 
Q 184.8 212.5785 189.6 212.5785 
z
" style="fill: #ffffff; opacity: 0.8; stroke: #cccccc; stroke-linejoin: miter"/>
    </g>
    <g id="line2d_18">
     <path d="M 194.4 119.13225 
L 218.4 119.13225 
L 242.4 119.13225 
" style="fill: none; stroke: #1f77b4; stroke-width: 1.5; stroke-linecap: square"/>
    </g>
    <g id="text_20">
     <!-- $\omega(n)$ -->
     <g transform="translate(261.6 127.53225) scale(0.24 -0.24)">
      <use xlink:href="#DejaVuSans-Oblique-3c9" transform="translate(0 0.125)"/>
      <use xlink:href="#DejaVuSans-28" transform="translate(83.740234 0.125)"/>
      <use xlink:href="#DejaVuSans-Oblique-6e" transform="translate(122.753906 0.125)"/>
      <use xlink:href="#DejaVuSans-29" transform="translate(186.132812 0.125)"/>
     </g>
    </g>
    <g id="line2d_19">
     <path d="M 194.4 154.35975 
L 218.4 154.35975 
L 242.4 154.35975 
" style="fill: none; stroke: #ff7f0e; stroke-width: 1.5; stroke-linecap: square"/>
    </g>
    <g id="text_21">
     <!-- $Abs(\omega(n) - n)$ -->
     <g transform="translate(261.6 162.75975) scale(0.24 -0.24)">
      <use xlink:href="#DejaVuSans-Oblique-41" transform="translate(0 0.015625)"/>
      <use xlink:href="#DejaVuSans-Oblique-62" transform="translate(68.408203 0.015625)"/>
      <use xlink:href="#DejaVuSans-Oblique-73" transform="translate(131.884766 0.015625)"/>
      <use xlink:href="#DejaVuSans-28" transform="translate(183.984375 0.015625)"/>
      <use xlink:href="#DejaVuSans-Oblique-3c9" transform="translate(222.998047 0.015625)"/>
      <use xlink:href="#DejaVuSans-28" transform="translate(306.738281 0.015625)"/>
      <use xlink:href="#DejaVuSans-Oblique-6e" transform="translate(345.751953 0.015625)"/>
      <use xlink:href="#DejaVuSans-29" transform="translate(409.130859 0.015625)"/>
      <use xlink:href="#DejaVuSans-2212" transform="translate(467.626953 0.015625)"/>
      <use xlink:href="#DejaVuSans-Oblique-6e" transform="translate(570.898438 0.015625)"/>
      <use xlink:href="#DejaVuSans-29" transform="translate(634.277344 0.015625)"/>
     </g>
    </g>
    <g id="line2d_20">
     <path d="M 194.4 189.58725 
L 218.4 189.58725 
L 242.4 189.58725 
" style="fill: none; stroke: #2ca02c; stroke-width: 1.5; stroke-linecap: square"/>
    </g>
    <g id="text_22">
     <!-- $n$ -->
     <g transform="translate(261.6 197.98725) scale(0.24 -0.24)">
      <use xlink:href="#DejaVuSans-Oblique-6e"/>
     </g>
    </g>
   </g>
  </g>
 </g>
 <defs>
  <clipPath id="p36892ce869">
   <rect x="172.8" y="87.696" width="1071.36" height="562.716"/>
  </clipPath>
 </defs>
</svg>
