<?xml version="1.0" standalone="no"?>
<!DOCTYPE svg PUBLIC "-//W3C//DTD SVG 20010904//EN"
 "http://www.w3.org/TR/2001/REC-SVG-20010904/DTD/svg10.dtd">
<svg version="1.0" xmlns="http://www.w3.org/2000/svg"
 width="2956.000000pt" height="728.000000pt" viewBox="0 0 2956.000000 728.000000"
 preserveAspectRatio="xMidYMid meet">

<g transform="translate(0.000000,728.000000) scale(0.100000,-0.100000)"
fill="#000000" stroke="none">
<path d="M27387 7123 c-3 -5 -62 -147 -132 -318 -70 -170 -129 -312 -130 -315
-2 -3 0 -12 5 -20 8 -13 11 -13 24 0 17 17 266 621 266 645 0 15 -25 21 -33 8z"/>
<path d="M25504 7090 c-136 -19 -217 -107 -217 -235 0 -98 43 -164 136 -205
145 -64 308 -8 324 110 7 54 -13 52 -32 -3 -7 -20 -18 -43 -24 -51 -41 -49
-164 -62 -222 -23 -48 31 -79 98 -79 167 0 109 37 177 108 198 96 29 160 2
202 -85 37 -79 50 -70 50 37 0 96 -9 110 -45 70 -17 -19 -18 -19 -54 -1 -48
24 -85 29 -147 21z"/>
<path d="M1342 7072 c-140 -50 -211 -183 -172 -323 37 -132 214 -220 361 -179
81 23 149 94 149 157 0 46 -21 39 -38 -13 -24 -73 -83 -114 -163 -114 -133 0
-199 75 -199 225 0 149 66 225 194 225 81 0 146 -53 163 -133 4 -21 11 -27 27
-25 19 3 21 10 24 92 2 50 -2 94 -7 99 -7 7 -21 2 -43 -15 l-32 -25 -34 20
c-49 29 -161 33 -230 9z"/>
<path d="M2191 7081 c-20 -13 -7 -39 21 -43 l23 -3 3 -212 2 -212 -27 -3 c-17
-2 -29 -10 -31 -20 -3 -16 6 -18 92 -18 89 0 96 1 96 20 0 15 -7 20 -25 20
l-25 0 0 240 0 240 -57 0 c-32 0 -64 -4 -72 -9z"/>
<path d="M2431 7081 c-20 -13 -7 -39 21 -43 l23 -3 3 -212 2 -212 -27 -3 c-17
-2 -29 -10 -31 -20 -3 -16 6 -18 92 -18 89 0 96 1 96 20 0 15 -7 20 -25 20
l-25 0 0 240 0 240 -57 0 c-32 0 -64 -4 -72 -9z"/>
<path d="M27500 7070 c0 -16 7 -20 35 -20 l35 0 0 -195 0 -195 -35 0 c-24 0
-35 -5 -35 -15 0 -13 28 -15 189 -15 l189 0 5 33 c4 17 9 60 13 95 5 52 4 62
-9 62 -9 0 -22 -21 -33 -57 -23 -70 -52 -92 -127 -100 l-57 -6 0 196 0 196 42
3 c31 2 44 8 46 21 3 15 -8 17 -127 17 -124 0 -131 -1 -131 -20z"/>
<path d="M29070 7071 c0 -13 8 -21 23 -23 22 -3 22 -4 25 -195 l2 -193 -25 0
c-16 0 -25 -6 -25 -15 0 -12 16 -15 85 -15 69 0 85 3 85 15 0 9 -9 15 -25 15
l-25 0 0 215 0 215 -60 0 c-53 0 -60 -2 -60 -19z"/>
<path d="M26606 7048 c-2 -7 -7 -25 -10 -40 -8 -36 -53 -88 -78 -88 -29 0 -16
-24 15 -28 l26 -3 3 -111 c3 -106 4 -112 28 -130 37 -27 105 -28 131 -1 28 28
32 96 7 101 -14 3 -18 -3 -18 -30 0 -44 -12 -60 -41 -56 -23 3 -24 5 -27 116
l-3 112 46 0 c38 0 45 3 45 20 0 17 -7 20 -45 20 l-44 0 -3 62 c-2 38 -8 63
-15 66 -7 2 -15 -2 -17 -10z"/>
<path d="M25915 6916 c-92 -40 -122 -168 -57 -240 47 -51 153 -66 226 -31 105
50 103 214 -4 267 -41 21 -122 23 -165 4z m139 -38 c11 -16 16 -46 16 -98 0
-97 -14 -120 -73 -120 -51 0 -63 7 -76 43 -22 58 -9 170 22 189 7 4 31 8 54 8
32 0 46 -5 57 -22z"/>
<path d="M26264 6916 c-50 -22 -61 -89 -22 -126 20 -18 76 -40 105 -40 21 0
62 -22 67 -37 10 -24 -13 -52 -47 -58 -46 -9 -84 9 -108 50 -12 19 -25 32 -30
29 -5 -3 -9 -28 -9 -56 0 -49 1 -50 25 -44 14 4 42 2 63 -3 45 -12 107 0 134
26 10 11 21 36 25 56 5 31 1 40 -24 66 -17 16 -43 33 -59 36 -90 20 -109 30
-109 55 0 20 7 27 35 33 45 11 87 -5 100 -39 14 -36 34 -25 38 22 l3 40 -78 1
c-48 2 -90 -3 -109 -11z"/>
<path d="M26864 6916 c-50 -22 -61 -89 -22 -126 20 -18 76 -40 105 -40 21 0
62 -22 67 -37 10 -24 -13 -52 -47 -58 -46 -9 -84 9 -108 50 -12 19 -25 32 -30
29 -5 -3 -9 -28 -9 -56 0 -49 1 -50 25 -44 14 4 42 2 63 -3 45 -12 107 0 134
26 10 11 21 36 25 56 5 31 1 40 -24 66 -17 16 -43 33 -59 36 -90 20 -109 30
-109 55 0 20 7 27 35 33 45 11 87 -5 100 -39 14 -36 34 -25 38 22 l3 40 -78 1
c-48 2 -90 -3 -109 -11z"/>
<path d="M28035 6912 c-50 -24 -79 -72 -79 -132 1 -62 26 -105 77 -131 74 -38
188 -22 217 30 25 48 4 54 -38 11 -24 -24 -39 -30 -72 -30 -54 0 -75 12 -89
51 -20 58 -20 58 97 61 l107 3 -1 43 c-1 35 -7 50 -32 75 -26 26 -40 31 -89
34 -42 3 -69 -2 -98 -15z m134 -26 c7 -8 15 -30 18 -50 l6 -36 -78 0 -77 0 6
32 c3 17 14 40 23 50 20 22 85 24 102 4z"/>
<path d="M28300 6910 c0 -14 7 -20 23 -20 19 0 31 -19 77 -122 58 -128 73
-150 93 -142 7 2 40 63 72 134 52 113 62 130 83 130 17 0 23 5 20 18 -3 14
-14 17 -58 17 -44 0 -55 -3 -58 -17 -2 -11 3 -18 12 -18 22 0 21 -8 -21 -96
l-37 -78 -38 83 c-21 46 -38 85 -38 87 0 2 7 4 15 4 8 0 15 9 15 20 0 18 -7
20 -80 20 -73 0 -80 -2 -80 -20z"/>
<path d="M28795 6912 c-50 -24 -79 -72 -79 -132 1 -62 26 -105 77 -131 74 -38
188 -22 217 30 25 48 4 54 -38 11 -24 -24 -39 -30 -72 -30 -54 0 -75 12 -89
51 -20 58 -20 58 97 61 l107 3 -1 43 c-1 35 -7 50 -32 75 -26 26 -40 31 -89
34 -42 3 -69 -2 -98 -15z m134 -26 c7 -8 15 -30 18 -50 l6 -36 -78 0 -77 0 6
32 c3 17 14 40 23 50 20 22 85 24 102 4z"/>
<path d="M1843 6899 c-18 -5 -40 -21 -49 -34 -15 -23 -15 -27 0 -50 29 -45 90
-20 84 34 -2 21 2 27 20 29 39 6 80 -17 91 -50 18 -50 14 -55 -41 -62 -80 -9
-124 -24 -158 -52 -24 -21 -30 -34 -30 -65 0 -46 20 -62 95 -79 41 -9 57 -8
92 5 24 9 47 24 52 32 7 14 10 13 15 -4 8 -24 33 -33 94 -33 36 0 43 3 40 18
-2 10 -14 18 -31 20 l-27 3 0 87 c0 116 -12 155 -54 182 -40 24 -144 35 -193
19z m155 -211 c-6 -62 -32 -88 -88 -88 -46 0 -62 18 -58 62 3 28 10 37 48 56
24 12 57 22 73 22 29 0 30 0 25 -52z"/>
<path d="M2724 6896 c-107 -47 -76 -160 52 -186 73 -15 104 -34 104 -63 0 -35
-19 -47 -76 -47 -53 0 -73 14 -110 75 -18 31 -34 7 -34 -50 0 -60 8 -71 36
-51 11 8 25 11 34 6 31 -15 84 -20 123 -9 56 15 87 49 87 96 0 68 -38 101
-139 122 -62 13 -81 25 -81 52 0 24 29 39 77 39 45 0 83 -23 83 -51 0 -13 7
-19 21 -19 18 0 20 5 17 46 l-3 47 -80 3 c-53 2 -91 -1 -111 -10z"/>
<path d="M14601 5921 c-61 -77 -76 -124 -76 -246 0 -98 3 -116 26 -165 26 -55
87 -135 96 -126 3 3 -9 25 -26 49 -56 77 -80 203 -62 318 11 66 43 153 61 164
6 3 15 15 20 26 18 34 -7 21 -39 -20z"/>
<path d="M15060 5952 c0 -5 9 -17 19 -26 11 -10 30 -41 43 -69 20 -46 23 -67
23 -182 0 -121 -2 -134 -27 -185 -15 -30 -35 -65 -44 -77 -10 -14 -12 -23 -5
-23 18 0 79 91 98 145 12 34 18 80 18 145 -1 86 -4 101 -32 160 -35 73 -93
143 -93 112z"/>
<path d="M13350 5917 c0 -4 14 -10 30 -14 l30 -6 -2 -171 -3 -171 -27 -3 c-16
-2 -28 -8 -28 -13 0 -5 64 -9 150 -9 170 0 152 -10 165 98 7 60 -9 65 -20 6
-3 -20 -17 -47 -30 -60 -21 -20 -34 -24 -90 -24 l-65 0 2 172 3 171 40 13 c22
6 38 13 35 13 -19 6 -190 4 -190 -2z"/>
<path d="M1731 5841 c-61 -77 -76 -124 -76 -246 0 -98 3 -116 26 -165 26 -55
87 -135 96 -126 3 3 -9 25 -26 49 -56 77 -80 203 -62 318 11 66 43 153 61 164
6 3 15 15 20 26 18 34 -7 21 -39 -20z"/>
<path d="M2281 5600 c-57 -154 -102 -282 -99 -285 2 -3 42 95 88 218 45 122
93 250 106 285 13 34 20 62 16 62 -4 0 -54 -126 -111 -280z"/>
<path d="M2770 5872 c0 -5 9 -17 19 -26 11 -10 30 -41 43 -69 20 -46 23 -67
23 -182 0 -121 -2 -134 -27 -185 -15 -30 -35 -65 -44 -77 -10 -14 -12 -23 -5
-23 18 0 79 91 98 145 12 34 18 80 18 145 -1 86 -4 101 -32 160 -35 73 -93
143 -93 112z"/>
<path d="M26511 5841 c-61 -77 -76 -124 -76 -246 0 -98 3 -116 26 -165 26 -55
87 -135 96 -126 3 3 -9 25 -26 49 -56 77 -80 203 -62 318 11 66 43 153 61 164
6 3 15 15 20 26 18 34 -7 21 -39 -20z"/>
<path d="M26970 5872 c0 -5 9 -17 19 -26 11 -10 30 -41 43 -69 20 -46 23 -67
23 -182 0 -121 -2 -134 -27 -185 -15 -30 -35 -65 -44 -77 -10 -14 -12 -23 -5
-23 18 0 79 91 98 145 12 34 18 80 18 145 -1 86 -4 101 -32 160 -35 73 -93
143 -93 112z"/>
<path d="M25260 5837 c0 -4 14 -10 30 -14 l30 -6 -2 -171 -3 -171 -27 -3 c-16
-2 -28 -8 -28 -13 0 -5 64 -9 150 -9 170 0 152 -10 165 98 7 60 -9 65 -20 6
-3 -20 -17 -47 -30 -60 -21 -20 -34 -24 -90 -24 l-65 0 2 172 3 171 40 13 c22
6 38 13 35 13 -19 6 -190 4 -190 -2z"/>
<path d="M1304 5788 c-9 -29 -19 -59 -22 -65 -10 -29 17 -10 28 20 23 58 48
77 101 77 l47 0 -35 -137 c-58 -235 -49 -213 -88 -213 -19 0 -37 -4 -40 -10
-4 -6 30 -10 94 -10 61 0 101 4 101 10 0 6 -16 10 -36 10 -42 0 -43 -21 14
200 l37 145 43 3 c60 4 76 -11 68 -65 -3 -24 -2 -43 3 -43 5 0 12 21 15 48 4
26 9 55 12 65 5 16 -7 17 -160 17 l-164 0 -18 -52z"/>
<path d="M2532 5828 c-61 -17 -97 -119 -44 -126 30 -5 39 23 16 49 -17 19 -17
20 4 41 24 24 73 28 96 8 9 -7 21 -29 27 -50 16 -52 -10 -105 -100 -207 -39
-45 -71 -84 -71 -87 0 -3 47 -6 105 -6 76 0 107 4 110 13 12 38 15 87 5 87 -5
0 -10 -11 -10 -24 0 -27 -28 -36 -113 -36 l-51 0 86 88 c66 67 88 96 93 124
16 84 -66 151 -153 126z"/>
<path d="M13783 5775 c-98 -42 -95 -200 4 -241 50 -21 99 -10 140 31 28 28 33
40 33 82 0 60 -28 109 -75 129 -42 17 -61 17 -102 -1z m101 -18 c39 -28 39
-155 0 -198 -26 -29 -78 -25 -103 7 -35 44 -26 170 13 196 18 12 71 9 90 -5z"/>
<path d="M14080 5778 c-42 -16 -60 -39 -60 -78 0 -20 5 -41 10 -46 7 -7 7 -19
2 -35 -6 -14 -6 -34 0 -48 7 -19 4 -29 -12 -46 -11 -12 -20 -33 -20 -48 0 -21
8 -31 40 -47 106 -54 249 14 197 94 -19 29 -71 46 -139 46 -38 0 -48 4 -53 20
-9 29 2 40 33 31 71 -20 136 42 111 107 -8 21 -7 29 7 39 24 17 35 16 28 -2
-4 -9 0 -15 9 -15 23 0 29 16 11 31 -12 10 -22 10 -48 1 -20 -8 -43 -9 -62 -3
-16 5 -40 4 -54 -1z m61 -24 c7 -9 14 -33 14 -54 0 -44 -19 -70 -49 -70 -33 0
-46 19 -46 70 0 25 5 51 12 58 17 17 53 15 69 -4z m60 -243 c20 -16 22 -22 12
-44 -30 -64 -183 -50 -183 16 0 36 19 47 86 47 46 0 68 -5 85 -19z"/>
<path d="M14873 5769 c-32 -17 -38 -17 -46 -4 -4 8 -21 15 -36 15 -23 0 -32
-7 -45 -34 -18 -38 -20 -56 -7 -56 5 0 12 12 16 27 7 31 23 53 36 53 15 0 10
-51 -15 -148 -15 -57 -20 -94 -14 -98 17 -11 28 10 53 101 26 94 61 145 101
145 33 0 36 -33 9 -124 -21 -72 -22 -83 -9 -103 16 -26 26 -28 55 -13 22 12
52 66 46 83 -2 7 -13 -6 -23 -28 -20 -42 -54 -60 -54 -28 0 10 9 47 20 81 11
35 20 76 20 92 0 50 -50 68 -107 39z"/>
<path d="M2003 5689 c-32 -17 -38 -17 -46 -4 -4 8 -21 15 -36 15 -23 0 -32 -7
-45 -34 -18 -38 -20 -56 -7 -56 5 0 12 12 16 27 7 31 23 53 36 53 15 0 10 -51
-15 -148 -15 -57 -20 -94 -14 -98 17 -11 28 10 53 101 26 94 61 145 101 145
33 0 36 -33 9 -124 -21 -72 -22 -83 -9 -103 16 -26 26 -28 55 -13 22 12 52 66
46 83 -2 7 -13 -6 -23 -28 -20 -42 -54 -60 -54 -28 0 10 9 47 20 81 11 35 20
76 20 92 0 50 -50 68 -107 39z"/>
<path d="M25693 5695 c-98 -42 -95 -200 4 -241 50 -21 99 -10 140 31 28 28 33
40 33 82 0 60 -28 109 -75 129 -42 17 -61 17 -102 -1z m101 -18 c39 -28 39
-155 0 -198 -26 -29 -78 -25 -103 7 -35 44 -26 170 13 196 18 12 71 9 90 -5z"/>
<path d="M25990 5698 c-42 -16 -60 -39 -60 -78 0 -20 5 -41 10 -46 7 -7 7 -19
2 -35 -6 -14 -6 -34 0 -48 7 -19 4 -29 -12 -46 -11 -12 -20 -33 -20 -48 0 -21
8 -31 40 -47 106 -54 249 14 197 94 -19 29 -71 46 -139 46 -38 0 -48 4 -53 20
-9 29 2 40 33 31 71 -20 136 42 111 107 -8 21 -7 29 7 39 24 17 35 16 28 -2
-4 -9 0 -15 9 -15 23 0 29 16 11 31 -12 10 -22 10 -48 1 -20 -8 -43 -9 -62 -3
-16 5 -40 4 -54 -1z m61 -24 c7 -9 14 -33 14 -54 0 -44 -19 -70 -49 -70 -33 0
-46 19 -46 70 0 25 5 51 12 58 17 17 53 15 69 -4z m60 -243 c20 -16 22 -22 12
-44 -30 -64 -183 -50 -183 16 0 36 19 47 86 47 46 0 68 -5 85 -19z"/>
<path d="M26783 5689 c-32 -17 -38 -17 -46 -4 -4 8 -21 15 -36 15 -23 0 -32
-7 -45 -34 -18 -38 -20 -56 -7 -56 5 0 12 12 16 27 7 31 23 53 36 53 15 0 10
-51 -15 -148 -15 -57 -20 -94 -14 -98 17 -11 28 10 53 101 26 94 61 145 101
145 33 0 36 -33 9 -124 -21 -72 -22 -83 -9 -103 16 -26 26 -28 55 -13 22 12
52 66 46 83 -2 7 -13 -6 -23 -28 -20 -42 -54 -60 -54 -28 0 10 9 47 20 81 11
35 20 76 20 92 0 50 -50 68 -107 39z"/>
<path d="M11888 4897 c-1463 -318 -1658 -363 -1658 -379 0 -10 7 -18 17 -18
15 0 3266 704 3306 716 19 6 24 44 5 43 -7 0 -759 -163 -1670 -362z"/>
<path d="M15363 5195 c-3 -9 -4 -17 -2 -19 4 -3 3848 -666 3862 -666 4 0 7 9
7 19 0 13 -9 21 -27 25 -76 16 -3802 656 -3817 656 -9 0 -19 -7 -23 -15z"/>
<path d="M1023 4260 c3 -27 3 -50 0 -50 -3 0 -21 11 -39 25 -37 29 -54 32 -54
10 0 -8 18 -22 40 -31 22 -9 40 -19 40 -24 0 -4 -18 -15 -40 -25 -22 -10 -40
-24 -40 -32 0 -20 18 -16 54 12 18 14 36 25 39 25 3 0 3 -22 0 -50 -5 -43 -3
-50 12 -50 15 0 17 7 13 50 -3 28 -3 50 0 50 3 0 20 -11 38 -25 37 -29 54 -32
54 -10 0 8 -18 22 -40 31 -22 9 -40 20 -40 24 0 4 18 14 40 23 23 9 40 22 40
31 0 23 -16 20 -54 -9 -18 -14 -35 -25 -38 -25 -3 0 -3 23 0 50 4 43 2 50 -13
50 -15 0 -17 -7 -12 -50z"/>
<path d="M1741 4271 c-61 -77 -76 -124 -76 -246 0 -98 3 -116 26 -165 26 -55
87 -135 96 -126 3 3 -9 25 -26 49 -56 77 -80 203 -62 318 11 66 43 153 61 164
6 3 15 15 20 26 18 34 -7 21 -39 -20z"/>
<path d="M2291 4030 c-57 -154 -102 -282 -99 -285 2 -3 42 95 88 218 45 122
93 250 106 285 13 34 20 62 16 62 -4 0 -54 -126 -111 -280z"/>
<path d="M2770 4302 c0 -5 9 -17 19 -26 11 -10 30 -41 43 -69 20 -46 23 -67
23 -182 0 -121 -2 -134 -27 -185 -15 -30 -35 -65 -44 -77 -10 -14 -12 -23 -5
-23 18 0 79 91 98 145 12 34 18 80 18 145 -1 86 -4 101 -32 160 -35 73 -93
143 -93 112z"/>
<path d="M8821 4271 c-61 -77 -76 -124 -76 -246 0 -98 3 -116 26 -165 26 -55
87 -135 96 -126 3 3 -9 25 -26 49 -56 77 -80 203 -62 318 11 66 43 153 61 164
6 3 15 15 20 26 18 34 -7 21 -39 -20z"/>
<path d="M9371 4030 c-57 -154 -102 -282 -99 -285 2 -3 42 95 88 218 45 122
93 250 106 285 13 34 20 62 16 62 -4 0 -54 -126 -111 -280z"/>
<path d="M9850 4302 c0 -5 9 -17 19 -26 11 -10 30 -41 43 -69 20 -46 23 -67
23 -182 0 -121 -2 -134 -27 -185 -15 -30 -35 -65 -44 -77 -10 -14 -12 -23 -5
-23 18 0 79 91 98 145 12 34 18 80 18 145 -1 86 -4 101 -32 160 -35 73 -93
143 -93 112z"/>
<path d="M25853 4260 c3 -27 3 -50 0 -50 -3 0 -21 11 -39 25 -37 29 -54 32
-54 10 0 -8 18 -22 40 -31 22 -9 40 -19 40 -24 0 -4 -18 -15 -40 -25 -22 -10
-40 -24 -40 -32 0 -20 18 -16 54 12 18 14 36 25 39 25 3 0 3 -22 0 -50 -5 -43
-3 -50 12 -50 15 0 17 7 13 50 -3 28 -3 50 0 50 3 0 20 -11 38 -25 37 -29 54
-32 54 -10 0 8 -18 22 -40 31 -22 9 -40 20 -40 24 0 4 18 14 40 23 23 9 40 22
40 31 0 23 -16 20 -54 -9 -18 -14 -35 -25 -38 -25 -3 0 -3 23 0 50 4 43 2 50
-13 50 -15 0 -17 -7 -12 -50z"/>
<path d="M27291 4271 c-61 -77 -76 -124 -76 -246 0 -98 3 -116 26 -165 26 -55
87 -135 96 -126 3 3 -9 25 -26 49 -56 77 -80 203 -62 318 11 66 43 153 61 164
6 3 15 15 20 26 18 34 -7 21 -39 -20z"/>
<path d="M27841 4030 c-57 -154 -102 -282 -99 -285 2 -3 42 95 88 218 45 122
93 250 106 285 13 34 20 62 16 62 -4 0 -54 -126 -111 -280z"/>
<path d="M28320 4302 c0 -5 9 -17 19 -26 11 -10 30 -41 43 -69 20 -46 23 -67
23 -182 0 -121 -2 -134 -27 -185 -15 -30 -35 -65 -44 -77 -10 -14 -12 -23 -5
-23 18 0 79 91 98 145 12 34 18 80 18 145 -1 86 -4 101 -32 160 -35 73 -93
143 -93 112z"/>
<path d="M19471 4261 c-61 -77 -76 -124 -76 -246 0 -98 3 -116 26 -165 26 -55
87 -135 96 -126 3 3 -9 25 -26 49 -56 77 -80 203 -62 318 11 66 43 153 61 164
6 3 15 15 20 26 18 34 -7 21 -39 -20z"/>
<path d="M20021 4020 c-57 -154 -102 -282 -99 -285 2 -3 42 95 88 218 45 122
93 250 106 285 13 34 20 62 16 62 -4 0 -54 -126 -111 -280z"/>
<path d="M20500 4292 c0 -5 9 -17 19 -26 11 -10 30 -41 43 -69 20 -46 23 -67
23 -182 0 -121 -2 -134 -27 -185 -15 -30 -35 -65 -44 -77 -10 -14 -12 -23 -5
-23 18 0 79 91 98 145 12 34 18 80 18 145 -1 86 -4 101 -32 160 -35 73 -93
143 -93 112z"/>
<path d="M7760 4267 c0 -4 14 -10 30 -14 l30 -6 -2 -171 -3 -171 -27 -3 c-16
-2 -28 -8 -28 -13 0 -5 64 -9 150 -9 170 0 152 -10 165 98 7 60 -9 65 -20 6
-3 -20 -17 -47 -30 -60 -21 -20 -34 -24 -90 -24 l-65 0 2 172 3 171 40 13 c22
6 38 13 35 13 -19 6 -190 4 -190 -2z"/>
<path d="M26220 4267 c0 -4 14 -10 30 -14 l30 -6 -2 -171 -3 -171 -27 -3 c-16
-2 -28 -8 -28 -13 0 -5 64 -9 150 -9 170 0 152 -10 165 98 7 60 -9 65 -20 6
-3 -20 -17 -47 -30 -60 -21 -20 -34 -24 -90 -24 l-65 0 2 172 3 171 40 13 c22
6 38 13 35 13 -19 6 -190 4 -190 -2z"/>
<path d="M512 4258 c-61 -17 -97 -119 -44 -126 30 -5 39 23 16 49 -17 19 -17
20 4 41 24 24 73 28 96 8 9 -7 21 -29 27 -50 16 -52 -10 -105 -100 -207 -39
-45 -71 -84 -71 -87 0 -3 47 -6 105 -6 76 0 107 4 110 13 12 38 15 87 5 87 -5
0 -10 -11 -10 -24 0 -27 -28 -36 -113 -36 l-51 0 86 88 c66 67 88 96 93 124
16 84 -66 151 -153 126z"/>
<path d="M1304 4218 c-9 -29 -19 -59 -22 -65 -10 -29 17 -10 28 20 23 58 48
77 101 77 l47 0 -35 -137 c-58 -235 -49 -213 -88 -213 -19 0 -37 -4 -40 -10
-4 -6 30 -10 94 -10 61 0 101 4 101 10 0 6 -16 10 -36 10 -42 0 -43 -21 14
200 l37 145 43 3 c60 4 76 -11 68 -65 -3 -24 -2 -43 3 -43 5 0 12 21 15 48 4
26 9 55 12 65 5 16 -7 17 -160 17 l-164 0 -18 -52z"/>
<path d="M2542 4258 c-61 -17 -97 -119 -44 -126 30 -5 39 23 16 49 -17 19 -17
20 4 41 24 24 73 28 96 8 9 -7 21 -29 27 -50 16 -52 -10 -105 -100 -207 -39
-45 -71 -84 -71 -87 0 -3 47 -6 105 -6 76 0 107 4 110 13 12 38 15 87 5 87 -5
0 -10 -11 -10 -24 0 -27 -28 -36 -113 -36 l-51 0 86 88 c66 67 88 96 93 124
16 84 -66 151 -153 126z"/>
<path d="M9622 4258 c-61 -17 -97 -119 -44 -126 30 -5 39 23 16 49 -17 19 -17
20 4 41 24 24 73 28 96 8 9 -7 21 -29 27 -50 16 -52 -10 -105 -100 -207 -39
-45 -71 -84 -71 -87 0 -3 47 -6 105 -6 76 0 107 4 110 13 12 38 15 87 5 87 -5
0 -10 -11 -10 -24 0 -27 -28 -36 -113 -36 l-51 0 86 88 c66 67 88 96 93 124
16 84 -66 151 -153 126z"/>
<path d="M18410 4257 c0 -4 14 -10 30 -14 l30 -6 -2 -171 -3 -171 -27 -3 c-16
-2 -28 -8 -28 -13 0 -5 64 -9 150 -9 170 0 152 -10 165 98 7 60 -9 65 -20 6
-3 -20 -17 -47 -30 -60 -21 -20 -34 -24 -90 -24 l-65 0 2 172 3 171 40 13 c22
6 38 13 35 13 -19 6 -190 4 -190 -2z"/>
<path d="M25342 4258 c-61 -17 -97 -119 -44 -126 30 -5 39 23 16 49 -17 19
-17 20 4 41 24 24 73 28 96 8 9 -7 21 -29 27 -50 16 -52 -10 -105 -100 -207
-39 -45 -71 -84 -71 -87 0 -3 47 -6 105 -6 76 0 107 4 110 13 12 38 15 87 5
87 -5 0 -10 -11 -10 -24 0 -27 -28 -36 -113 -36 l-51 0 86 88 c66 67 88 96 93
124 16 84 -66 151 -153 126z"/>
<path d="M28092 4258 c-61 -17 -97 -119 -44 -126 30 -5 39 23 16 49 -17 19
-17 20 4 41 24 24 73 28 96 8 9 -7 21 -29 27 -50 16 -52 -10 -105 -100 -207
-39 -45 -71 -84 -71 -87 0 -3 47 -6 105 -6 76 0 107 4 110 13 12 38 15 87 5
87 -5 0 -10 -11 -10 -24 0 -27 -28 -36 -113 -36 l-51 0 86 88 c66 67 88 96 93
124 16 84 -66 151 -153 126z"/>
<path d="M20272 4248 c-61 -17 -97 -119 -44 -126 30 -5 39 23 16 49 -17 19
-17 20 4 41 24 24 73 28 96 8 9 -7 21 -29 27 -50 16 -52 -10 -105 -100 -207
-39 -45 -71 -84 -71 -87 0 -3 47 -6 105 -6 76 0 107 4 110 13 12 38 15 87 5
87 -5 0 -10 -11 -10 -24 0 -27 -28 -36 -113 -36 l-51 0 86 88 c66 67 88 96 93
124 16 84 -66 151 -153 126z"/>
<path d="M2013 4119 c-32 -17 -38 -17 -46 -4 -4 8 -21 15 -36 15 -23 0 -32 -7
-45 -34 -18 -38 -20 -56 -7 -56 5 0 12 12 16 27 7 31 23 53 36 53 15 0 10 -51
-15 -148 -15 -57 -20 -94 -14 -98 17 -11 28 10 53 101 26 94 61 145 101 145
33 0 36 -33 9 -124 -21 -72 -22 -83 -9 -103 16 -26 26 -28 55 -13 22 12 52 66
46 83 -2 7 -13 -6 -23 -28 -20 -42 -54 -60 -54 -28 0 10 9 47 20 81 11 35 20
76 20 92 0 50 -50 68 -107 39z"/>
<path d="M8193 4125 c-98 -42 -95 -200 4 -241 50 -21 99 -10 140 31 28 28 33
40 33 82 0 60 -28 109 -75 129 -42 17 -61 17 -102 -1z m101 -18 c39 -28 39
-155 0 -198 -26 -29 -78 -25 -103 7 -35 44 -26 170 13 196 18 12 71 9 90 -5z"/>
<path d="M8490 4128 c-42 -16 -60 -39 -60 -78 0 -20 5 -41 10 -46 7 -7 7 -19
2 -35 -6 -14 -6 -34 0 -48 7 -19 4 -29 -12 -46 -11 -12 -20 -33 -20 -48 0 -21
8 -31 40 -47 106 -54 249 14 197 94 -19 29 -71 46 -139 46 -38 0 -48 4 -53 20
-9 29 2 40 33 31 71 -20 136 42 111 107 -8 21 -7 29 7 39 24 17 35 16 28 -2
-4 -9 0 -15 9 -15 23 0 29 16 11 31 -12 10 -22 10 -48 1 -20 -8 -43 -9 -62 -3
-16 5 -40 4 -54 -1z m61 -24 c7 -9 14 -33 14 -54 0 -44 -19 -70 -49 -70 -33 0
-46 19 -46 70 0 25 5 51 12 58 17 17 53 15 69 -4z m60 -243 c20 -16 22 -22 12
-44 -30 -64 -183 -50 -183 16 0 36 19 47 86 47 46 0 68 -5 85 -19z"/>
<path d="M9093 4119 c-32 -17 -38 -17 -46 -4 -4 8 -21 15 -36 15 -23 0 -32 -7
-45 -34 -18 -38 -20 -56 -7 -56 5 0 12 12 16 27 7 31 23 53 36 53 15 0 10 -51
-15 -148 -15 -57 -20 -94 -14 -98 17 -11 28 10 53 101 26 94 61 145 101 145
33 0 36 -33 9 -124 -21 -72 -22 -83 -9 -103 16 -26 26 -28 55 -13 22 12 52 66
46 83 -2 7 -13 -6 -23 -28 -20 -42 -54 -60 -54 -28 0 10 9 47 20 81 11 35 20
76 20 92 0 50 -50 68 -107 39z"/>
<path d="M26663 4125 c-98 -42 -95 -200 4 -241 50 -21 99 -10 140 31 28 28 33
40 33 82 0 60 -28 109 -75 129 -42 17 -61 17 -102 -1z m101 -18 c39 -28 39
-155 0 -198 -26 -29 -78 -25 -103 7 -35 44 -26 170 13 196 18 12 71 9 90 -5z"/>
<path d="M26960 4128 c-42 -16 -60 -39 -60 -78 0 -20 5 -41 10 -46 7 -7 7 -19
2 -35 -6 -14 -6 -34 0 -48 7 -19 4 -29 -12 -46 -11 -12 -20 -33 -20 -48 0 -21
8 -31 40 -47 106 -54 249 14 197 94 -19 29 -71 46 -139 46 -38 0 -48 4 -53 20
-9 29 2 40 33 31 71 -20 136 42 111 107 -8 21 -7 29 7 39 24 17 35 16 28 -2
-4 -9 0 -15 9 -15 23 0 29 16 11 31 -12 10 -22 10 -48 1 -20 -8 -43 -9 -62 -3
-16 5 -40 4 -54 -1z m61 -24 c7 -9 14 -33 14 -54 0 -44 -19 -70 -49 -70 -33 0
-46 19 -46 70 0 25 5 51 12 58 17 17 53 15 69 -4z m60 -243 c20 -16 22 -22 12
-44 -30 -64 -183 -50 -183 16 0 36 19 47 86 47 46 0 68 -5 85 -19z"/>
<path d="M27563 4119 c-32 -17 -38 -17 -46 -4 -4 8 -21 15 -36 15 -23 0 -32
-7 -45 -34 -18 -38 -20 -56 -7 -56 5 0 12 12 16 27 7 31 23 53 36 53 15 0 10
-51 -15 -148 -15 -57 -20 -94 -14 -98 17 -11 28 10 53 101 26 94 61 145 101
145 33 0 36 -33 9 -124 -21 -72 -22 -83 -9 -103 16 -26 26 -28 55 -13 22 12
52 66 46 83 -2 7 -13 -6 -23 -28 -20 -42 -54 -60 -54 -28 0 10 9 47 20 81 11
35 20 76 20 92 0 50 -50 68 -107 39z"/>
<path d="M18843 4115 c-98 -42 -95 -200 4 -241 50 -21 99 -10 140 31 28 28 33
40 33 82 0 60 -28 109 -75 129 -42 17 -61 17 -102 -1z m101 -18 c39 -28 39
-155 0 -198 -26 -29 -78 -25 -103 7 -35 44 -26 170 13 196 18 12 71 9 90 -5z"/>
<path d="M19140 4118 c-42 -16 -60 -39 -60 -78 0 -20 5 -41 10 -46 7 -7 7 -19
2 -35 -6 -14 -6 -34 0 -48 7 -19 4 -29 -12 -46 -11 -12 -20 -33 -20 -48 0 -21
8 -31 40 -47 106 -54 249 14 197 94 -19 29 -71 46 -139 46 -38 0 -48 4 -53 20
-9 29 2 40 33 31 71 -20 136 42 111 107 -8 21 -7 29 7 39 24 17 35 16 28 -2
-4 -9 0 -15 9 -15 23 0 29 16 11 31 -12 10 -22 10 -48 1 -20 -8 -43 -9 -62 -3
-16 5 -40 4 -54 -1z m61 -24 c7 -9 14 -33 14 -54 0 -44 -19 -70 -49 -70 -33 0
-46 19 -46 70 0 25 5 51 12 58 17 17 53 15 69 -4z m60 -243 c20 -16 22 -22 12
-44 -30 -64 -183 -50 -183 16 0 36 19 47 86 47 46 0 68 -5 85 -19z"/>
<path d="M19743 4109 c-32 -17 -38 -17 -46 -4 -4 8 -21 15 -36 15 -23 0 -32
-7 -45 -34 -18 -38 -20 -56 -7 -56 5 0 12 12 16 27 7 31 23 53 36 53 15 0 10
-51 -15 -148 -15 -57 -20 -94 -14 -98 17 -11 28 10 53 101 26 94 61 145 101
145 33 0 36 -33 9 -124 -21 -72 -22 -83 -9 -103 16 -26 26 -28 55 -13 22 12
52 66 46 83 -2 7 -13 -6 -23 -28 -20 -42 -54 -60 -54 -28 0 10 9 47 20 81 11
35 20 76 20 92 0 50 -50 68 -107 39z"/>
<path d="M20971 3476 c-16 -19 -38 8 359 -435 261 -291 307 -338 319 -326 12
12 12 16 0 32 -14 18 -617 693 -649 726 -15 16 -18 16 -29 3z"/>
<path d="M18812 3067 c-350 -350 -392 -395 -377 -407 14 -12 61 31 411 381
217 217 393 398 391 404 -2 5 -10 11 -18 13 -8 1 -191 -175 -407 -391z"/>
<path d="M7849 3089 c-244 -199 -456 -372 -471 -385 -27 -22 -30 -60 -5 -51 6
2 223 176 483 387 368 298 471 387 462 397 -6 7 -14 13 -17 13 -4 0 -207 -163
-452 -361z"/>
<path d="M9665 3440 c-3 -5 -2 -16 2 -23 4 -7 156 -179 338 -380 287 -320 331
-365 344 -353 16 17 48 -21 -364 440 -159 178 -295 325 -302 325 -6 1 -15 -3
-18 -9z"/>
<path d="M1316 2394 l7 -47 -38 26 c-21 14 -42 24 -47 21 -14 -9 2 -25 41 -41
l36 -15 -37 -19 c-20 -10 -40 -23 -43 -29 -11 -17 21 -11 48 10 35 28 39 26
35 -20 -2 -22 1 -38 7 -37 6 1 9 19 8 40 -2 43 0 44 34 17 27 -21 53 -26 53
-10 0 5 -19 18 -42 28 l-43 19 36 15 c39 17 55 33 41 42 -5 3 -24 -6 -42 -19
-19 -14 -36 -25 -38 -25 -2 0 0 20 4 45 5 38 4 45 -10 45 -15 0 -16 -7 -10
-46z"/>
<path d="M1935 2408 c-52 -61 -69 -114 -70 -213 0 -78 4 -98 27 -145 30 -62
64 -108 72 -99 4 3 -3 18 -15 33 -75 95 -77 303 -4 411 33 48 26 56 -10 13z"/>
<path d="M2472 2388 c-11 -29 -52 -138 -91 -242 -39 -104 -69 -191 -66 -194 2
-3 8 6 13 19 5 13 46 122 91 242 46 120 81 221 78 223 -3 3 -14 -19 -25 -48z"/>
<path d="M2835 2405 c74 -96 78 -303 10 -405 -35 -52 -34 -66 2 -27 79 85 102
261 48 369 -24 46 -64 98 -76 98 -6 0 2 -16 16 -35z"/>
<path d="M17341 2401 c-61 -77 -76 -124 -76 -246 0 -98 3 -116 26 -165 26 -55
87 -135 96 -126 3 3 -9 25 -26 49 -56 77 -80 203 -62 318 11 66 43 153 61 164
6 3 15 15 20 26 18 34 -7 21 -39 -20z"/>
<path d="M17891 2160 c-57 -154 -102 -282 -99 -285 2 -3 42 95 88 218 45 122
93 250 106 285 13 34 20 62 16 62 -4 0 -54 -126 -111 -280z"/>
<path d="M18370 2432 c0 -5 9 -17 19 -26 11 -10 30 -41 43 -69 20 -46 23 -67
23 -182 0 -121 -2 -134 -27 -185 -15 -30 -35 -65 -44 -77 -10 -14 -12 -23 -5
-23 18 0 79 91 98 145 12 34 18 80 18 145 -1 86 -4 101 -32 160 -35 73 -93
143 -93 112z"/>
<path d="M25853 2390 c3 -27 3 -50 0 -50 -3 0 -21 11 -39 25 -37 29 -54 32
-54 10 0 -8 18 -22 40 -31 22 -9 40 -19 40 -24 0 -4 -18 -15 -40 -25 -22 -10
-40 -24 -40 -32 0 -20 18 -16 54 12 18 14 36 25 39 25 3 0 3 -22 0 -50 -5 -43
-3 -50 12 -50 15 0 17 7 13 50 -3 28 -3 50 0 50 3 0 20 -11 38 -25 37 -29 54
-32 54 -10 0 8 -18 22 -40 31 -22 9 -40 20 -40 24 0 4 18 14 40 23 23 9 40 22
40 31 0 23 -16 20 -54 -9 -18 -14 -35 -25 -38 -25 -3 0 -3 23 0 50 4 43 2 50
-13 50 -15 0 -17 -7 -12 -50z"/>
<path d="M27291 2401 c-61 -77 -76 -124 -76 -246 0 -98 3 -116 26 -165 26 -55
87 -135 96 -126 3 3 -9 25 -26 49 -56 77 -80 203 -62 318 11 66 43 153 61 164
6 3 15 15 20 26 18 34 -7 21 -39 -20z"/>
<path d="M27841 2160 c-57 -154 -102 -282 -99 -285 2 -3 42 95 88 218 45 122
93 250 106 285 13 34 20 62 16 62 -4 0 -54 -126 -111 -280z"/>
<path d="M28320 2432 c0 -5 9 -17 19 -26 11 -10 30 -41 43 -69 20 -46 23 -67
23 -182 0 -121 -2 -134 -27 -185 -15 -30 -35 -65 -44 -77 -10 -14 -12 -23 -5
-23 18 0 79 91 98 145 12 34 18 80 18 145 -1 86 -4 101 -32 160 -35 73 -93
143 -93 112z"/>
<path d="M21021 2391 c-61 -77 -76 -124 -76 -246 0 -98 3 -116 26 -165 26 -55
87 -135 96 -126 3 3 -9 25 -26 49 -56 77 -80 203 -62 318 11 66 43 153 61 164
6 3 15 15 20 26 18 34 -7 21 -39 -20z"/>
<path d="M21571 2150 c-57 -154 -102 -282 -99 -285 2 -3 42 95 88 218 45 122
93 250 106 285 13 34 20 62 16 62 -4 0 -54 -126 -111 -280z"/>
<path d="M22050 2422 c0 -5 9 -17 19 -26 11 -10 30 -41 43 -69 20 -46 23 -67
23 -182 0 -121 -2 -134 -27 -185 -15 -30 -35 -65 -44 -77 -10 -14 -12 -23 -5
-23 18 0 79 91 98 145 12 34 18 80 18 145 -1 86 -4 101 -32 160 -35 73 -93
143 -93 112z"/>
<path d="M872 2287 c-44 -67 -78 -125 -75 -129 2 -5 33 -8 69 -8 l64 0 0 -30
c0 -25 -4 -30 -25 -30 -14 0 -25 -4 -25 -10 0 -6 28 -10 65 -10 37 0 65 4 65
10 0 6 -9 10 -20 10 -16 0 -20 7 -20 30 0 23 4 30 20 30 11 0 20 5 20 10 0 6
-9 10 -20 10 -19 0 -20 7 -20 114 0 63 -4 117 -9 120 -5 3 -45 -49 -89 -117z
m58 -32 l0 -85 -60 0 -60 0 56 85 c32 47 59 85 61 85 1 0 3 -38 3 -85z"/>
<path d="M1566 2378 c-23 -55 -28 -78 -18 -78 6 0 13 11 16 25 11 42 41 65 86
65 39 0 40 -1 34 -27 -64 -256 -68 -268 -94 -271 -14 -2 -29 -8 -34 -13 -6 -5
24 -9 78 -9 55 0 85 4 81 10 -3 6 -17 10 -31 10 -30 0 -30 -1 2 123 49 195 40
177 83 177 47 0 66 -19 57 -60 -3 -17 -2 -30 3 -30 5 0 11 17 15 38 12 77 21
72 -130 72 l-135 0 -13 -32z"/>
<path d="M2622 2287 c-44 -67 -78 -125 -75 -129 2 -5 33 -8 69 -8 l64 0 0 -30
c0 -25 -4 -30 -25 -30 -14 0 -25 -4 -25 -10 0 -6 28 -10 65 -10 37 0 65 4 65
10 0 6 -9 10 -20 10 -16 0 -20 7 -20 30 0 23 4 30 20 30 11 0 20 5 20 10 0 6
-9 10 -20 10 -19 0 -20 7 -20 114 0 63 -4 117 -9 120 -5 3 -45 -49 -89 -117z
m58 -32 l0 -85 -60 0 -60 0 56 85 c32 47 59 85 61 85 1 0 3 -38 3 -85z"/>
<path d="M16280 2397 c0 -4 14 -10 30 -14 l30 -6 -2 -171 -3 -171 -27 -3 c-16
-2 -28 -8 -28 -13 0 -5 64 -9 150 -9 170 0 152 -10 165 98 7 60 -9 65 -20 6
-3 -20 -17 -47 -30 -60 -21 -20 -34 -24 -90 -24 l-65 0 2 172 3 171 40 13 c22
6 38 13 35 13 -19 6 -190 4 -190 -2z"/>
<path d="M26220 2397 c0 -4 14 -10 30 -14 l30 -6 -2 -171 -3 -171 -27 -3 c-16
-2 -28 -8 -28 -13 0 -5 64 -9 150 -9 170 0 152 -10 165 98 7 60 -9 65 -20 6
-3 -20 -17 -47 -30 -60 -21 -20 -34 -24 -90 -24 l-65 0 2 172 3 171 40 13 c22
6 38 13 35 13 -19 6 -190 4 -190 -2z"/>
<path d="M6771 2361 c-61 -77 -76 -124 -76 -246 0 -98 3 -116 26 -165 26 -55
87 -135 96 -126 3 3 -9 25 -26 49 -56 77 -80 203 -62 318 11 66 43 153 61 164
6 3 15 15 20 26 18 34 -7 21 -39 -20z"/>
<path d="M7321 2120 c-57 -154 -102 -282 -99 -285 2 -3 42 95 88 218 45 122
93 250 106 285 13 34 20 62 16 62 -4 0 -54 -126 -111 -280z"/>
<path d="M7800 2392 c0 -5 9 -17 19 -26 11 -10 30 -41 43 -69 20 -46 23 -67
23 -182 0 -121 -2 -134 -27 -185 -15 -30 -35 -65 -44 -77 -10 -14 -12 -23 -5
-23 18 0 79 91 98 145 12 34 18 80 18 145 -1 86 -4 101 -32 160 -35 73 -93
143 -93 112z"/>
<path d="M10931 2361 c-61 -77 -76 -124 -76 -246 0 -98 3 -116 26 -165 26 -55
87 -135 96 -126 3 3 -9 25 -26 49 -56 77 -80 203 -62 318 11 66 43 153 61 164
6 3 15 15 20 26 18 34 -7 21 -39 -20z"/>
<path d="M11481 2120 c-57 -154 -102 -282 -99 -285 2 -3 42 95 88 218 45 122
93 250 106 285 13 34 20 62 16 62 -4 0 -54 -126 -111 -280z"/>
<path d="M11960 2392 c0 -5 9 -17 19 -26 11 -10 30 -41 43 -69 20 -46 23 -67
23 -182 0 -121 -2 -134 -27 -185 -15 -30 -35 -65 -44 -77 -10 -14 -12 -23 -5
-23 18 0 79 91 98 145 12 34 18 80 18 145 -1 86 -4 101 -32 160 -35 73 -93
143 -93 112z"/>
<path d="M18143 2258 c-50 -79 -89 -146 -87 -150 3 -5 39 -8 80 -8 l74 0 0
-35 c0 -30 -3 -35 -24 -35 -14 0 -28 -4 -31 -10 -4 -6 23 -10 74 -10 47 0 81
4 81 10 0 6 -11 10 -25 10 -22 0 -25 4 -25 35 0 31 3 35 25 35 14 0 25 5 25
10 0 6 -11 10 -25 10 l-24 0 -3 137 c-2 80 -7 138 -13 139 -5 2 -51 -60 -102
-138z m67 -38 l0 -100 -65 0 c-36 0 -65 3 -65 6 0 8 121 194 126 194 2 0 4
-45 4 -100z"/>
<path d="M19960 2387 c0 -4 14 -10 30 -14 l30 -6 -2 -171 -3 -171 -27 -3 c-16
-2 -28 -8 -28 -13 0 -5 64 -9 150 -9 170 0 152 -10 165 98 7 60 -9 65 -20 6
-3 -20 -17 -47 -30 -60 -21 -20 -34 -24 -90 -24 l-65 0 2 172 3 171 40 13 c22
6 38 13 35 13 -19 6 -190 4 -190 -2z"/>
<path d="M25343 2258 c-50 -79 -89 -146 -87 -150 3 -5 39 -8 80 -8 l74 0 0
-35 c0 -30 -3 -35 -24 -35 -14 0 -28 -4 -31 -10 -4 -6 23 -10 74 -10 47 0 81
4 81 10 0 6 -11 10 -25 10 -22 0 -25 4 -25 35 0 31 3 35 25 35 14 0 25 5 25
10 0 6 -11 10 -25 10 l-24 0 -3 137 c-2 80 -7 138 -13 139 -5 2 -51 -60 -102
-138z m67 -38 l0 -100 -65 0 c-36 0 -65 3 -65 6 0 8 121 194 126 194 2 0 4
-45 4 -100z"/>
<path d="M28093 2258 c-50 -79 -89 -146 -87 -150 3 -5 39 -8 80 -8 l74 0 0
-35 c0 -30 -3 -35 -24 -35 -14 0 -28 -4 -31 -10 -4 -6 23 -10 74 -10 47 0 81
4 81 10 0 6 -11 10 -25 10 -22 0 -25 4 -25 35 0 31 3 35 25 35 14 0 25 5 25
10 0 6 -11 10 -25 10 l-24 0 -3 137 c-2 80 -7 138 -13 139 -5 2 -51 -60 -102
-138z m67 -38 l0 -100 -65 0 c-36 0 -65 3 -65 6 0 8 121 194 126 194 2 0 4
-45 4 -100z"/>
<path d="M21823 2248 c-50 -79 -89 -146 -87 -150 3 -5 39 -8 80 -8 l74 0 0
-35 c0 -30 -3 -35 -24 -35 -14 0 -28 -4 -31 -10 -4 -6 23 -10 74 -10 47 0 81
4 81 10 0 6 -11 10 -25 10 -22 0 -25 4 -25 35 0 31 3 35 25 35 14 0 25 5 25
10 0 6 -11 10 -25 10 l-24 0 -3 137 c-2 80 -7 138 -13 139 -5 2 -51 -60 -102
-138z m67 -38 l0 -100 -65 0 c-36 0 -65 3 -65 6 0 8 121 194 126 194 2 0 4
-45 4 -100z"/>
<path d="M5710 2357 c0 -4 14 -10 30 -14 l30 -6 -2 -171 -3 -171 -27 -3 c-16
-2 -28 -8 -28 -13 0 -5 64 -9 150 -9 170 0 152 -10 165 98 7 60 -9 65 -20 6
-3 -20 -17 -47 -30 -60 -21 -20 -34 -24 -90 -24 l-65 0 2 172 3 171 40 13 c22
6 38 13 35 13 -19 6 -190 4 -190 -2z"/>
<path d="M9870 2357 c0 -4 14 -10 30 -14 l30 -6 -2 -171 -3 -171 -27 -3 c-16
-2 -28 -8 -28 -13 0 -5 64 -9 150 -9 170 0 152 -10 165 98 7 60 -9 65 -20 6
-3 -20 -17 -47 -30 -60 -21 -20 -34 -24 -90 -24 l-65 0 2 172 3 171 40 13 c22
6 38 13 35 13 -19 6 -190 4 -190 -2z"/>
<path d="M7573 2218 c-50 -79 -89 -146 -87 -150 3 -5 39 -8 80 -8 l74 0 0 -35
c0 -30 -3 -35 -24 -35 -14 0 -28 -4 -31 -10 -4 -6 23 -10 74 -10 47 0 81 4 81
10 0 6 -11 10 -25 10 -22 0 -25 4 -25 35 0 31 3 35 25 35 14 0 25 5 25 10 0 6
-11 10 -25 10 l-24 0 -3 137 c-2 80 -7 138 -13 139 -5 2 -51 -60 -102 -138z
m67 -38 l0 -100 -65 0 c-36 0 -65 3 -65 6 0 8 121 194 126 194 2 0 4 -45 4
-100z"/>
<path d="M11733 2218 c-50 -79 -89 -146 -87 -150 3 -5 39 -8 80 -8 l74 0 0
-35 c0 -30 -3 -35 -24 -35 -14 0 -28 -4 -31 -10 -4 -6 23 -10 74 -10 47 0 81
4 81 10 0 6 -11 10 -25 10 -22 0 -25 4 -25 35 0 31 3 35 25 35 14 0 25 5 25
10 0 6 -11 10 -25 10 l-24 0 -3 137 c-2 80 -7 138 -13 139 -5 2 -51 -60 -102
-138z m67 -38 l0 -100 -65 0 c-36 0 -65 3 -65 6 0 8 121 194 126 194 2 0 4
-45 4 -100z"/>
<path d="M2072 2277 c-18 -21 -33 -67 -22 -67 6 0 10 6 10 14 0 8 8 24 18 36
30 37 32 6 7 -98 -13 -55 -18 -95 -13 -98 16 -10 26 8 47 91 14 58 27 86 46
103 59 50 77 18 47 -84 -23 -76 -21 -98 5 -108 20 -8 60 18 68 44 10 32 -3 37
-15 6 -9 -26 -35 -44 -46 -33 -3 3 4 37 17 75 14 43 19 79 15 95 -8 35 -50 46
-89 24 -25 -15 -30 -15 -43 -2 -19 18 -38 19 -52 2z"/>
<path d="M16713 2255 c-98 -42 -95 -200 4 -241 50 -21 99 -10 140 31 28 28 33
40 33 82 0 60 -28 109 -75 129 -42 17 -61 17 -102 -1z m101 -18 c39 -28 39
-155 0 -198 -26 -29 -78 -25 -103 7 -35 44 -26 170 13 196 18 12 71 9 90 -5z"/>
<path d="M17010 2258 c-42 -16 -60 -39 -60 -78 0 -20 5 -41 10 -46 7 -7 7 -19
2 -35 -6 -14 -6 -34 0 -48 7 -19 4 -29 -12 -46 -11 -12 -20 -33 -20 -48 0 -21
8 -31 40 -47 106 -54 249 14 197 94 -19 29 -71 46 -139 46 -38 0 -48 4 -53 20
-9 29 2 40 33 31 71 -20 136 42 111 107 -8 21 -7 29 7 39 24 17 35 16 28 -2
-4 -9 0 -15 9 -15 23 0 29 16 11 31 -12 10 -22 10 -48 1 -20 -8 -43 -9 -62 -3
-16 5 -40 4 -54 -1z m61 -24 c7 -9 14 -33 14 -54 0 -44 -19 -70 -49 -70 -33 0
-46 19 -46 70 0 25 5 51 12 58 17 17 53 15 69 -4z m60 -243 c20 -16 22 -22 12
-44 -30 -64 -183 -50 -183 16 0 36 19 47 86 47 46 0 68 -5 85 -19z"/>
<path d="M17613 2249 c-32 -17 -38 -17 -46 -4 -4 8 -21 15 -36 15 -23 0 -32
-7 -45 -34 -18 -38 -20 -56 -7 -56 5 0 12 12 16 27 7 31 23 53 36 53 15 0 10
-51 -15 -148 -15 -57 -20 -94 -14 -98 17 -11 28 10 53 101 26 94 61 145 101
145 33 0 36 -33 9 -124 -21 -72 -22 -83 -9 -103 16 -26 26 -28 55 -13 22 12
52 66 46 83 -2 7 -13 -6 -23 -28 -20 -42 -54 -60 -54 -28 0 10 9 47 20 81 11
35 20 76 20 92 0 50 -50 68 -107 39z"/>
<path d="M26663 2255 c-98 -42 -95 -200 4 -241 50 -21 99 -10 140 31 28 28 33
40 33 82 0 60 -28 109 -75 129 -42 17 -61 17 -102 -1z m101 -18 c39 -28 39
-155 0 -198 -26 -29 -78 -25 -103 7 -35 44 -26 170 13 196 18 12 71 9 90 -5z"/>
<path d="M26960 2258 c-42 -16 -60 -39 -60 -78 0 -20 5 -41 10 -46 7 -7 7 -19
2 -35 -6 -14 -6 -34 0 -48 7 -19 4 -29 -12 -46 -11 -12 -20 -33 -20 -48 0 -21
8 -31 40 -47 106 -54 249 14 197 94 -19 29 -71 46 -139 46 -38 0 -48 4 -53 20
-9 29 2 40 33 31 71 -20 136 42 111 107 -8 21 -7 29 7 39 24 17 35 16 28 -2
-4 -9 0 -15 9 -15 23 0 29 16 11 31 -12 10 -22 10 -48 1 -20 -8 -43 -9 -62 -3
-16 5 -40 4 -54 -1z m61 -24 c7 -9 14 -33 14 -54 0 -44 -19 -70 -49 -70 -33 0
-46 19 -46 70 0 25 5 51 12 58 17 17 53 15 69 -4z m60 -243 c20 -16 22 -22 12
-44 -30 -64 -183 -50 -183 16 0 36 19 47 86 47 46 0 68 -5 85 -19z"/>
<path d="M27563 2249 c-32 -17 -38 -17 -46 -4 -4 8 -21 15 -36 15 -23 0 -32
-7 -45 -34 -18 -38 -20 -56 -7 -56 5 0 12 12 16 27 7 31 23 53 36 53 15 0 10
-51 -15 -148 -15 -57 -20 -94 -14 -98 17 -11 28 10 53 101 26 94 61 145 101
145 33 0 36 -33 9 -124 -21 -72 -22 -83 -9 -103 16 -26 26 -28 55 -13 22 12
52 66 46 83 -2 7 -13 -6 -23 -28 -20 -42 -54 -60 -54 -28 0 10 9 47 20 81 11
35 20 76 20 92 0 50 -50 68 -107 39z"/>
<path d="M20393 2245 c-98 -42 -95 -200 4 -241 50 -21 99 -10 140 31 28 28 33
40 33 82 0 60 -28 109 -75 129 -42 17 -61 17 -102 -1z m101 -18 c39 -28 39
-155 0 -198 -26 -29 -78 -25 -103 7 -35 44 -26 170 13 196 18 12 71 9 90 -5z"/>
<path d="M20690 2248 c-42 -16 -60 -39 -60 -78 0 -20 5 -41 10 -46 7 -7 7 -19
2 -35 -6 -14 -6 -34 0 -48 7 -19 4 -29 -12 -46 -11 -12 -20 -33 -20 -48 0 -21
8 -31 40 -47 106 -54 249 14 197 94 -19 29 -71 46 -139 46 -38 0 -48 4 -53 20
-9 29 2 40 33 31 71 -20 136 42 111 107 -8 21 -7 29 7 39 24 17 35 16 28 -2
-4 -9 0 -15 9 -15 23 0 29 16 11 31 -12 10 -22 10 -48 1 -20 -8 -43 -9 -62 -3
-16 5 -40 4 -54 -1z m61 -24 c7 -9 14 -33 14 -54 0 -44 -19 -70 -49 -70 -33 0
-46 19 -46 70 0 25 5 51 12 58 17 17 53 15 69 -4z m60 -243 c20 -16 22 -22 12
-44 -30 -64 -183 -50 -183 16 0 36 19 47 86 47 46 0 68 -5 85 -19z"/>
<path d="M21293 2239 c-32 -17 -38 -17 -46 -4 -4 8 -21 15 -36 15 -23 0 -32
-7 -45 -34 -18 -38 -20 -56 -7 -56 5 0 12 12 16 27 7 31 23 53 36 53 15 0 10
-51 -15 -148 -15 -57 -20 -94 -14 -98 17 -11 28 10 53 101 26 94 61 145 101
145 33 0 36 -33 9 -124 -21 -72 -22 -83 -9 -103 16 -26 26 -28 55 -13 22 12
52 66 46 83 -2 7 -13 -6 -23 -28 -20 -42 -54 -60 -54 -28 0 10 9 47 20 81 11
35 20 76 20 92 0 50 -50 68 -107 39z"/>
<path d="M6143 2215 c-98 -42 -95 -200 4 -241 50 -21 99 -10 140 31 28 28 33
40 33 82 0 60 -28 109 -75 129 -42 17 -61 17 -102 -1z m101 -18 c39 -28 39
-155 0 -198 -26 -29 -78 -25 -103 7 -35 44 -26 170 13 196 18 12 71 9 90 -5z"/>
<path d="M6440 2218 c-42 -16 -60 -39 -60 -78 0 -20 5 -41 10 -46 7 -7 7 -19
2 -35 -6 -14 -6 -34 0 -48 7 -19 4 -29 -12 -46 -11 -12 -20 -33 -20 -48 0 -21
8 -31 40 -47 106 -54 249 14 197 94 -19 29 -71 46 -139 46 -38 0 -48 4 -53 20
-9 29 2 40 33 31 71 -20 136 42 111 107 -8 21 -7 29 7 39 24 17 35 16 28 -2
-4 -9 0 -15 9 -15 23 0 29 16 11 31 -12 10 -22 10 -48 1 -20 -8 -43 -9 -62 -3
-16 5 -40 4 -54 -1z m61 -24 c7 -9 14 -33 14 -54 0 -44 -19 -70 -49 -70 -33 0
-46 19 -46 70 0 25 5 51 12 58 17 17 53 15 69 -4z m60 -243 c20 -16 22 -22 12
-44 -30 -64 -183 -50 -183 16 0 36 19 47 86 47 46 0 68 -5 85 -19z"/>
<path d="M7043 2209 c-32 -17 -38 -17 -46 -4 -4 8 -21 15 -36 15 -23 0 -32 -7
-45 -34 -18 -38 -20 -56 -7 -56 5 0 12 12 16 27 7 31 23 53 36 53 15 0 10 -51
-15 -148 -15 -57 -20 -94 -14 -98 17 -11 28 10 53 101 26 94 61 145 101 145
33 0 36 -33 9 -124 -21 -72 -22 -83 -9 -103 16 -26 26 -28 55 -13 22 12 52 66
46 83 -2 7 -13 -6 -23 -28 -20 -42 -54 -60 -54 -28 0 10 9 47 20 81 11 35 20
76 20 92 0 50 -50 68 -107 39z"/>
<path d="M10303 2215 c-98 -42 -95 -200 4 -241 50 -21 99 -10 140 31 28 28 33
40 33 82 0 60 -28 109 -75 129 -42 17 -61 17 -102 -1z m101 -18 c39 -28 39
-155 0 -198 -26 -29 -78 -25 -103 7 -35 44 -26 170 13 196 18 12 71 9 90 -5z"/>
<path d="M10600 2218 c-42 -16 -60 -39 -60 -78 0 -20 5 -41 10 -46 7 -7 7 -19
2 -35 -6 -14 -6 -34 0 -48 7 -19 4 -29 -12 -46 -11 -12 -20 -33 -20 -48 0 -21
8 -31 40 -47 106 -54 249 14 197 94 -19 29 -71 46 -139 46 -38 0 -48 4 -53 20
-9 29 2 40 33 31 71 -20 136 42 111 107 -8 21 -7 29 7 39 24 17 35 16 28 -2
-4 -9 0 -15 9 -15 23 0 29 16 11 31 -12 10 -22 10 -48 1 -20 -8 -43 -9 -62 -3
-16 5 -40 4 -54 -1z m61 -24 c7 -9 14 -33 14 -54 0 -44 -19 -70 -49 -70 -33 0
-46 19 -46 70 0 25 5 51 12 58 17 17 53 15 69 -4z m60 -243 c20 -16 22 -22 12
-44 -30 -64 -183 -50 -183 16 0 36 19 47 86 47 46 0 68 -5 85 -19z"/>
<path d="M11203 2209 c-32 -17 -38 -17 -46 -4 -4 8 -21 15 -36 15 -23 0 -32
-7 -45 -34 -18 -38 -20 -56 -7 -56 5 0 12 12 16 27 7 31 23 53 36 53 15 0 10
-51 -15 -148 -15 -57 -20 -94 -14 -98 17 -11 28 10 53 101 26 94 61 145 101
145 33 0 36 -33 9 -124 -21 -72 -22 -83 -9 -103 16 -26 26 -28 55 -13 22 12
52 66 46 83 -2 7 -13 -6 -23 -28 -20 -42 -54 -60 -54 -28 0 10 9 47 20 81 11
35 20 76 20 92 0 50 -50 68 -107 39z"/>
<path d="M10271 1539 c-39 -57 -47 -89 -22 -89 9 0 70 77 95 119 8 12 -7 30
-25 31 -3 0 -24 -28 -48 -61z"/>
<path d="M16959 1528 c-77 -95 -72 -86 -52 -97 16 -8 27 1 70 53 39 47 49 66
40 75 -17 17 -21 15 -58 -31z"/>
<path d="M17901 1546 c-9 -11 -2 -25 40 -70 54 -59 66 -66 75 -41 4 10 -12 35
-42 68 -57 62 -58 62 -73 43z"/>
<path d="M11325 1520 c-9 -14 8 -40 58 -89 41 -39 67 -47 67 -20 0 12 -100
119 -111 119 -4 0 -11 -4 -14 -10z"/>
<path d="M6383 1448 c-46 -56 -50 -65 -37 -78 14 -13 18 -12 40 15 75 90 78
95 63 111 -13 13 -21 7 -66 -48z"/>
<path d="M21244 1451 c-27 -34 -49 -66 -49 -73 0 -31 34 -12 79 43 43 54 47
62 34 75 -13 14 -21 8 -64 -45z"/>
<path d="M7340 1485 c-10 -12 -3 -25 40 -75 47 -54 55 -60 68 -46 13 13 9 21
-37 75 -29 34 -54 61 -56 61 -1 0 -8 -7 -15 -15z"/>
<path d="M22374 1485 c-16 -11 -13 -17 37 -71 29 -33 55 -61 57 -63 1 -3 10 2
18 11 15 14 11 21 -39 76 -49 53 -58 59 -73 47z"/>
<path d="M10102 1300 c-46 -65 -49 -75 -27 -84 17 -6 110 117 100 134 -13 21
-32 8 -73 -50z"/>
<path d="M16760 1291 c-32 -38 -50 -67 -46 -76 9 -25 22 -18 77 46 46 54 50
62 37 75 -13 14 -21 8 -68 -45z"/>
<path d="M18093 1324 c-4 -10 11 -33 43 -67 27 -28 49 -53 50 -55 2 -6 34 11
34 18 0 12 -100 120 -111 120 -5 0 -12 -7 -16 -16z"/>
<path d="M11521 1306 c-12 -14 -7 -23 40 -74 63 -67 63 -67 78 -49 9 11 -1 27
-47 77 -52 56 -59 61 -71 46z"/>
<path d="M6195 1225 c-28 -33 -45 -61 -41 -70 9 -25 22 -17 75 43 38 45 47 62
39 70 -18 18 -22 16 -73 -43z"/>
<path d="M7532 1267 c-8 -9 2 -27 39 -70 49 -55 71 -68 84 -47 6 10 -92 130
-106 130 -4 0 -11 -6 -17 -13z"/>
<path d="M21050 1220 c-48 -56 -56 -80 -26 -80 21 0 109 108 102 125 -9 25
-22 17 -76 -45z"/>
<path d="M22571 1266 c-11 -13 -4 -25 41 -75 45 -51 55 -58 67 -46 11 11 10
18 -7 42 -11 15 -36 43 -55 61 -29 29 -35 31 -46 18z"/>
<path d="M9935 1065 c-42 -60 -46 -69 -32 -82 13 -13 20 -8 62 52 43 59 46 68
33 81 -14 14 -20 8 -63 -51z"/>
<path d="M18291 1116 c-12 -14 -6 -23 39 -73 60 -67 63 -68 78 -50 9 10 -1 27
-46 76 -51 57 -59 62 -71 47z"/>
<path d="M16567 1060 c-46 -56 -53 -80 -23 -80 15 0 101 104 101 122 0 32 -34
13 -78 -42z"/>
<path d="M11720 1085 c-10 -12 -3 -25 41 -75 46 -53 54 -59 67 -46 13 13 10
21 -26 64 -59 70 -67 75 -82 57z"/>
<path d="M6045 1046 c-6 -8 -28 -35 -49 -61 -35 -41 -38 -48 -24 -61 13 -13
20 -8 66 47 39 48 49 66 40 76 -13 17 -21 16 -33 -1z"/>
<path d="M7725 1050 c-13 -21 94 -138 114 -126 19 12 11 30 -39 84 -49 52 -64
61 -75 42z"/>
<path d="M20862 998 c-45 -56 -49 -65 -36 -78 14 -13 18 -12 40 15 80 96 83
102 72 113 -7 7 -15 12 -18 12 -4 0 -29 -28 -58 -62z"/>
<path d="M22763 1049 c-9 -9 1 -27 40 -70 55 -63 55 -63 76 -50 12 7 4 22 -38
70 -56 65 -61 67 -78 50z"/>
<path d="M778 877 c8 -9 4 -39 -13 -107 -27 -106 -29 -120 -15 -120 5 0 14 18
20 40 13 47 37 45 42 -3 2 -17 8 -32 14 -34 18 -6 4 60 -17 80 -23 21 -23 27
-4 97 8 30 15 56 15 58 0 1 -12 2 -26 2 -21 0 -24 -3 -16 -13z"/>
<path d="M2688 877 c8 -9 4 -39 -13 -107 -27 -106 -29 -120 -15 -120 5 0 14
18 20 40 13 47 37 45 42 -3 2 -17 8 -32 14 -34 18 -6 4 60 -17 80 -23 21 -23
27 -4 97 8 30 15 56 15 58 0 1 -12 2 -26 2 -21 0 -24 -3 -16 -13z"/>
<path d="M24318 857 c8 -9 4 -39 -13 -107 -27 -106 -29 -120 -15 -120 5 0 14
18 20 40 13 47 37 45 42 -3 2 -17 8 -32 14 -34 18 -6 4 60 -17 80 -23 21 -23
27 -4 97 8 30 15 56 15 58 0 1 -12 2 -26 2 -21 0 -24 -3 -16 -13z"/>
<path d="M5618 847 c8 -9 4 -39 -13 -107 -27 -106 -29 -120 -15 -120 5 0 14
18 20 40 13 47 37 45 42 -3 2 -17 8 -32 14 -34 18 -6 4 60 -17 80 -23 21 -23
27 -4 97 8 30 15 56 15 58 0 1 -12 2 -26 2 -21 0 -24 -3 -16 -13z"/>
<path d="M10988 847 c8 -9 4 -39 -13 -107 -27 -106 -29 -120 -15 -120 5 0 14
18 20 40 13 47 37 45 42 -3 2 -17 8 -32 14 -34 18 -6 4 60 -17 80 -23 21 -23
27 -4 97 8 30 15 56 15 58 0 1 -12 2 -26 2 -21 0 -24 -3 -16 -13z"/>
<path d="M21768 847 c8 -9 4 -39 -13 -107 -27 -106 -29 -120 -15 -120 5 0 14
18 20 40 13 47 37 45 42 -3 2 -17 8 -32 14 -34 18 -6 4 60 -17 80 -23 21 -23
27 -4 97 8 30 15 56 15 58 0 1 -12 2 -26 2 -21 0 -24 -3 -16 -13z"/>
<path d="M8508 837 c8 -9 4 -39 -13 -107 -27 -106 -29 -120 -15 -120 5 0 14
18 20 40 13 47 37 45 42 -3 2 -17 8 -32 14 -34 18 -6 4 60 -17 80 -23 21 -23
27 -4 97 8 30 15 56 15 58 0 1 -12 2 -26 2 -21 0 -24 -3 -16 -13z"/>
<path d="M13548 837 c8 -9 4 -39 -13 -107 -27 -106 -29 -120 -15 -120 5 0 14
18 20 40 13 47 37 45 42 -3 2 -17 8 -32 14 -34 18 -6 4 60 -17 80 -23 21 -23
27 -4 97 8 30 15 56 15 58 0 1 -12 2 -26 2 -21 0 -24 -3 -16 -13z"/>
<path d="M16208 837 c8 -9 4 -39 -13 -107 -27 -106 -29 -120 -15 -120 5 0 14
18 20 40 13 47 37 45 42 -3 2 -17 8 -32 14 -34 18 -6 4 60 -17 80 -23 21 -23
27 -4 97 8 30 15 56 15 58 0 1 -12 2 -26 2 -21 0 -24 -3 -16 -13z"/>
<path d="M19098 827 c8 -9 4 -39 -13 -107 -27 -106 -29 -120 -15 -120 5 0 14
18 20 40 13 47 37 45 42 -3 2 -17 8 -32 14 -34 18 -6 4 60 -17 80 -23 21 -23
27 -4 97 8 30 15 56 15 58 0 1 -12 2 -26 2 -21 0 -24 -3 -16 -13z"/>
<path d="M25628 817 c8 -9 4 -39 -13 -107 -27 -106 -29 -120 -15 -120 5 0 14
18 20 40 13 47 37 45 42 -3 2 -17 8 -32 14 -34 18 -6 4 60 -17 80 -23 21 -23
27 -4 97 8 30 15 56 15 58 0 1 -12 2 -26 2 -21 0 -24 -3 -16 -13z"/>
<path d="M28378 817 c8 -9 4 -39 -13 -107 -27 -106 -29 -120 -15 -120 5 0 14
18 20 40 13 47 37 45 42 -3 2 -17 8 -32 14 -34 18 -6 4 60 -17 80 -23 21 -23
27 -4 97 8 30 15 56 15 58 0 1 -12 2 -26 2 -21 0 -24 -3 -16 -13z"/>
<path d="M819 773 l-24 -28 26 23 c30 26 39 28 39 6 0 -8 5 -12 10 -9 6 3 10
13 10 21 0 23 -35 16 -61 -13z"/>
<path d="M2729 773 l-24 -28 26 23 c30 26 39 28 39 6 0 -8 5 -12 10 -9 6 3 10
13 10 21 0 23 -35 16 -61 -13z"/>
<path d="M1156 744 l7 -47 -38 26 c-21 14 -42 24 -47 21 -14 -9 2 -25 41 -41
l36 -15 -37 -19 c-20 -10 -40 -23 -43 -29 -11 -17 21 -11 48 10 35 28 39 26
35 -20 -2 -22 1 -38 7 -37 6 1 9 19 8 40 -2 43 0 44 34 17 27 -21 53 -26 53
-10 0 5 -19 18 -42 28 l-43 19 36 15 c39 17 55 33 41 42 -5 3 -24 -6 -42 -19
-19 -14 -36 -25 -38 -25 -2 0 0 20 4 45 5 38 4 45 -10 45 -15 0 -16 -7 -10
-46z"/>
<path d="M1775 758 c-52 -61 -69 -114 -70 -213 0 -78 4 -98 27 -145 30 -62 64
-108 72 -99 4 3 -3 18 -15 33 -75 95 -77 303 -4 411 33 48 26 56 -10 13z"/>
<path d="M2312 738 c-11 -29 -52 -138 -91 -242 -39 -104 -69 -191 -66 -194 2
-3 8 6 13 19 5 13 46 122 91 242 46 120 81 221 78 223 -3 3 -14 -19 -25 -48z"/>
<path d="M2835 755 c74 -96 78 -303 10 -405 -35 -52 -34 -66 2 -27 79 85 102
261 48 369 -24 46 -64 98 -76 98 -6 0 2 -16 16 -35z"/>
<path d="M26023 740 c3 -27 3 -50 0 -50 -3 0 -21 11 -39 25 -37 29 -54 32 -54
10 0 -8 18 -22 40 -31 22 -9 40 -19 40 -24 0 -4 -18 -15 -40 -25 -22 -10 -40
-24 -40 -32 0 -20 18 -16 54 12 18 14 36 25 39 25 3 0 3 -22 0 -50 -5 -43 -3
-50 12 -50 15 0 17 7 13 50 -3 28 -3 50 0 50 3 0 20 -11 38 -25 37 -29 54 -32
54 -10 0 8 -18 22 -40 31 -22 9 -40 20 -40 24 0 4 18 14 40 23 23 9 40 22 40
31 0 23 -16 20 -54 -9 -18 -14 -35 -25 -38 -25 -3 0 -3 23 0 50 4 43 2 50 -13
50 -15 0 -17 -7 -12 -50z"/>
<path d="M27451 751 c-61 -77 -76 -124 -76 -246 0 -98 3 -116 26 -165 26 -55
87 -135 96 -126 3 3 -9 25 -26 49 -56 77 -80 203 -62 318 11 66 43 153 61 164
6 3 15 15 20 26 18 34 -7 21 -39 -20z"/>
<path d="M28510 782 c0 -5 9 -17 19 -26 11 -10 30 -41 43 -69 20 -46 23 -67
23 -182 0 -121 -2 -134 -27 -185 -15 -30 -35 -65 -44 -77 -10 -14 -12 -23 -5
-23 18 0 79 91 98 145 12 34 18 80 18 145 -1 86 -4 101 -32 160 -35 73 -93
143 -93 112z"/>
<path d="M24359 753 l-24 -28 26 23 c30 26 39 28 39 6 0 -8 5 -12 10 -9 6 3
10 13 10 21 0 23 -35 16 -61 -13z"/>
<path d="M5659 743 l-24 -28 26 23 c30 26 39 28 39 6 0 -8 5 -12 10 -9 6 3 10
13 10 21 0 23 -35 16 -61 -13z"/>
<path d="M11029 743 l-24 -28 26 23 c30 26 39 28 39 6 0 -8 5 -12 10 -9 6 3
10 13 10 21 0 23 -35 16 -61 -13z"/>
<path d="M21809 743 l-24 -28 26 23 c30 26 39 28 39 6 0 -8 5 -12 10 -9 6 3
10 13 10 21 0 23 -35 16 -61 -13z"/>
<path d="M23405 738 c-52 -61 -69 -114 -70 -213 0 -78 4 -98 27 -145 30 -62
64 -108 72 -99 4 3 -3 18 -15 33 -75 95 -77 303 -4 411 33 48 26 56 -10 13z"/>
<path d="M23942 718 c-11 -29 -52 -138 -91 -242 -39 -104 -69 -191 -66 -194 2
-3 8 6 13 19 5 13 46 122 91 242 46 120 81 221 78 223 -3 3 -14 -19 -25 -48z"/>
<path d="M24465 735 c74 -96 78 -303 10 -405 -35 -52 -34 -66 2 -28 79 86 102
262 48 370 -24 46 -64 98 -76 98 -6 0 2 -16 16 -35z"/>
<path d="M1406 728 c-23 -55 -28 -78 -18 -78 6 0 13 11 16 25 11 42 41 65 86
65 39 0 40 -1 34 -27 -64 -256 -68 -268 -94 -271 -14 -2 -29 -8 -34 -13 -6 -5
24 -9 78 -9 55 0 85 4 81 10 -3 6 -17 10 -31 10 -30 0 -30 -1 2 123 49 195 40
177 83 177 47 0 66 -19 57 -60 -3 -17 -2 -30 3 -30 5 0 11 17 15 38 12 77 21
72 -130 72 l-135 0 -13 -32z"/>
<path d="M4705 728 c-52 -61 -69 -114 -70 -213 0 -78 4 -98 27 -145 30 -62 64
-108 72 -99 4 3 -3 18 -15 33 -75 95 -77 303 -4 411 33 48 26 56 -10 13z"/>
<path d="M5242 708 c-11 -29 -52 -138 -91 -242 -39 -104 -69 -191 -66 -194 2
-3 8 6 13 19 5 13 46 122 91 242 46 120 81 221 78 223 -3 3 -14 -19 -25 -48z"/>
<path d="M5765 725 c74 -96 78 -303 10 -405 -35 -52 -34 -66 2 -28 79 86 102
262 48 370 -24 46 -64 98 -76 98 -6 0 2 -16 16 -35z"/>
<path d="M8549 733 l-24 -28 26 23 c30 26 39 28 39 6 0 -8 5 -12 10 -9 6 3 10
13 10 21 0 23 -35 16 -61 -13z"/>
<path d="M10075 728 c-52 -61 -69 -114 -70 -213 0 -78 4 -98 27 -145 30 -62
64 -108 72 -99 4 3 -3 18 -15 33 -75 95 -77 303 -4 411 33 48 26 56 -10 13z"/>
<path d="M10612 708 c-11 -29 -52 -138 -91 -242 -39 -104 -69 -191 -66 -194 2
-3 8 6 13 19 5 13 46 122 91 242 46 120 81 221 78 223 -3 3 -14 -19 -25 -48z"/>
<path d="M11135 725 c74 -96 78 -303 10 -405 -35 -52 -34 -66 2 -28 79 86 102
262 48 370 -24 46 -64 98 -76 98 -6 0 2 -16 16 -35z"/>
<path d="M13589 733 l-24 -28 26 23 c30 26 39 28 39 6 0 -8 5 -12 10 -9 6 3
10 13 10 21 0 23 -35 16 -61 -13z"/>
<path d="M16249 733 l-24 -28 26 23 c30 26 39 28 39 6 0 -8 5 -12 10 -9 6 3
10 13 10 21 0 23 -35 16 -61 -13z"/>
<path d="M20855 728 c-52 -61 -69 -114 -70 -213 0 -78 4 -98 27 -145 30 -62
64 -108 72 -99 4 3 -3 18 -15 33 -75 95 -77 303 -4 411 33 48 26 56 -10 13z"/>
<path d="M21392 708 c-11 -29 -52 -138 -91 -242 -39 -104 -69 -191 -66 -194 2
-3 8 6 13 19 5 13 46 122 91 242 46 120 81 221 78 223 -3 3 -14 -19 -25 -48z"/>
<path d="M21915 725 c74 -96 78 -303 10 -405 -35 -52 -34 -66 2 -28 79 86 102
262 48 370 -24 46 -64 98 -76 98 -6 0 2 -16 16 -35z"/>
<path d="M26390 747 c0 -4 14 -10 30 -14 l30 -6 -2 -171 -3 -171 -27 -3 c-16
-2 -28 -8 -28 -13 0 -5 64 -9 150 -9 170 0 152 -10 165 98 7 60 -9 65 -20 6
-3 -20 -17 -47 -30 -60 -21 -20 -34 -24 -90 -24 l-65 0 2 172 3 171 40 13 c22
6 38 13 35 13 -19 6 -190 4 -190 -2z"/>
<path d="M535 738 c-30 -17 -44 -40 -45 -70 0 -34 17 -45 38 -24 14 14 14 17
-4 37 -18 21 -18 21 1 35 24 18 79 18 94 1 20 -24 23 -72 8 -108 -8 -19 -42
-65 -76 -104 -33 -38 -61 -73 -61 -77 0 -5 40 -8 89 -8 84 0 89 1 95 23 3 12
6 31 5 42 0 18 -1 18 -9 -2 -8 -21 -16 -23 -77 -23 l-68 1 67 62 c36 34 71 72
77 84 43 86 -51 178 -134 131z"/>
<path d="M2445 738 c-30 -17 -44 -40 -45 -70 0 -34 17 -45 38 -24 14 14 14 17
-4 37 -18 21 -18 21 1 35 24 18 79 18 94 1 20 -24 23 -72 8 -108 -8 -19 -42
-65 -76 -104 -33 -38 -61 -73 -61 -77 0 -5 40 -8 89 -8 84 0 89 1 95 23 3 12
6 31 5 42 0 18 -1 18 -9 -2 -8 -21 -16 -23 -77 -23 l-68 1 67 62 c36 34 71 72
77 84 43 86 -51 178 -134 131z"/>
<path d="M7595 718 c-52 -61 -69 -114 -70 -213 0 -78 4 -98 27 -145 30 -62 64
-108 72 -99 4 3 -3 18 -15 33 -75 95 -77 303 -4 411 33 48 26 56 -10 13z"/>
<path d="M8132 698 c-11 -29 -52 -138 -91 -242 -39 -104 -69 -191 -66 -194 2
-3 8 6 13 19 5 13 46 122 91 242 46 120 81 221 78 223 -3 3 -14 -19 -25 -48z"/>
<path d="M8655 715 c74 -96 78 -303 10 -405 -35 -52 -34 -66 2 -28 79 86 102
262 48 370 -24 46 -64 98 -76 98 -6 0 2 -16 16 -35z"/>
<path d="M12635 718 c-52 -61 -69 -114 -70 -213 0 -78 4 -98 27 -145 30 -62
64 -108 72 -99 4 3 -3 18 -15 33 -75 95 -77 303 -4 411 33 48 26 56 -10 13z"/>
<path d="M13172 698 c-11 -29 -52 -138 -91 -242 -39 -104 -69 -191 -66 -194 2
-3 8 6 13 19 5 13 46 122 91 242 46 120 81 221 78 223 -3 3 -14 -19 -25 -48z"/>
<path d="M13695 715 c74 -96 78 -303 10 -405 -35 -52 -34 -66 2 -28 79 86 102
262 48 370 -24 46 -64 98 -76 98 -6 0 2 -16 16 -35z"/>
<path d="M15295 718 c-52 -61 -69 -114 -70 -213 0 -78 4 -98 27 -145 30 -62
64 -108 72 -99 4 3 -3 18 -15 33 -75 95 -77 303 -4 411 33 48 26 56 -10 13z"/>
<path d="M15832 698 c-11 -29 -52 -138 -91 -242 -39 -104 -69 -191 -66 -194 2
-3 8 6 13 19 5 13 46 122 91 242 46 120 81 221 78 223 -3 3 -14 -19 -25 -48z"/>
<path d="M16355 715 c74 -96 78 -303 10 -405 -35 -52 -34 -66 2 -28 79 86 102
262 48 370 -24 46 -64 98 -76 98 -6 0 2 -16 16 -35z"/>
<path d="M19139 723 l-24 -28 26 23 c30 26 39 28 39 6 0 -8 5 -12 10 -9 6 3
10 13 10 21 0 23 -35 16 -61 -13z"/>
<path d="M18185 708 c-52 -61 -69 -114 -70 -213 0 -78 4 -98 27 -145 30 -62
64 -108 72 -99 4 3 -3 18 -15 33 -75 95 -77 303 -4 411 33 48 26 56 -10 13z"/>
<path d="M18722 688 c-11 -29 -52 -138 -91 -242 -39 -104 -69 -191 -66 -194 2
-3 8 6 13 19 5 13 46 122 91 242 46 120 81 221 78 223 -3 3 -14 -19 -25 -48z"/>
<path d="M19245 705 c74 -96 78 -303 10 -405 -35 -52 -34 -66 2 -28 79 86 102
262 48 370 -24 46 -64 98 -76 98 -6 0 2 -16 16 -35z"/>
<path d="M22490 730 c0 -5 11 -10 25 -10 l25 0 0 -150 0 -150 -25 0 c-14 0
-25 -4 -25 -10 0 -6 50 -10 129 -10 l129 0 7 61 c9 73 2 86 -14 25 -14 -55
-35 -68 -104 -64 l-52 3 0 145 0 145 25 3 c14 2 29 8 35 13 5 5 -23 9 -73 9
-48 0 -82 -4 -82 -10z"/>
<path d="M25669 713 l-24 -28 26 23 c30 26 39 28 39 6 0 -8 5 -12 10 -9 6 3
10 13 10 21 0 23 -35 16 -61 -13z"/>
<path d="M28419 713 l-24 -28 26 23 c30 26 39 28 39 6 0 -8 5 -12 10 -9 6 3
10 13 10 21 0 23 -35 16 -61 -13z"/>
<path d="M3790 720 c0 -5 11 -10 25 -10 l25 0 0 -150 0 -150 -25 0 c-14 0 -25
-4 -25 -10 0 -6 50 -10 129 -10 l129 0 7 61 c9 73 2 86 -14 25 -14 -55 -35
-68 -104 -64 l-52 3 0 145 0 145 25 3 c14 2 29 8 35 13 5 5 -23 9 -73 9 -48 0
-82 -4 -82 -10z"/>
<path d="M9160 720 c0 -5 11 -10 25 -10 l25 0 0 -150 0 -150 -25 0 c-14 0 -25
-4 -25 -10 0 -6 50 -10 129 -10 l129 0 7 61 c9 73 2 86 -14 25 -14 -55 -35
-68 -104 -64 l-52 3 0 145 0 145 25 3 c14 2 29 8 35 13 5 5 -23 9 -73 9 -48 0
-82 -4 -82 -10z"/>
<path d="M19940 720 c0 -5 11 -10 25 -10 l25 0 0 -150 0 -150 -25 0 c-14 0
-25 -4 -25 -10 0 -6 50 -10 129 -10 l129 0 7 61 c9 73 2 86 -14 25 -14 -55
-35 -68 -104 -64 l-52 3 0 145 0 145 25 3 c14 2 29 8 35 13 5 5 -23 9 -73 9
-48 0 -82 -4 -82 -10z"/>
<path d="M24075 718 c-30 -17 -44 -40 -45 -70 0 -34 17 -45 38 -24 14 14 14
17 -4 37 -18 21 -18 21 1 35 24 18 79 18 94 1 20 -24 23 -72 8 -108 -8 -19
-42 -65 -76 -104 -33 -38 -61 -73 -61 -77 0 -5 40 -8 89 -8 84 0 89 1 95 23 3
12 6 31 5 42 0 18 -1 18 -9 -2 -8 -21 -16 -23 -77 -23 l-68 1 67 62 c36 34 71
72 77 84 43 86 -51 178 -134 131z"/>
<path d="M28002 678 c-11 -29 -52 -138 -91 -242 -39 -104 -69 -191 -66 -194 2
-3 8 6 13 19 5 13 46 122 91 242 46 120 81 221 78 223 -3 3 -14 -19 -25 -48z"/>
<path d="M5375 708 c-30 -17 -44 -40 -45 -70 0 -34 17 -45 38 -24 14 14 14 17
-4 37 -18 21 -18 21 1 35 24 18 79 18 94 1 20 -24 23 -72 8 -108 -8 -19 -42
-65 -76 -104 -33 -38 -61 -73 -61 -77 0 -5 40 -8 89 -8 84 0 89 1 95 23 3 12
6 31 5 42 0 18 -1 18 -9 -2 -8 -21 -16 -23 -77 -23 l-68 1 67 62 c36 34 71 72
77 84 43 86 -51 178 -134 131z"/>
<path d="M6680 710 c0 -5 11 -10 25 -10 l25 0 0 -150 0 -150 -25 0 c-14 0 -25
-4 -25 -10 0 -6 50 -10 129 -10 l129 0 7 61 c9 73 2 86 -14 25 -14 -55 -35
-68 -104 -64 l-52 3 0 145 0 145 25 3 c14 2 29 8 35 13 5 5 -23 9 -73 9 -48 0
-82 -4 -82 -10z"/>
<path d="M10745 708 c-30 -17 -44 -40 -45 -70 0 -34 17 -45 38 -24 14 14 14
17 -4 37 -18 21 -18 21 1 35 24 18 79 18 94 1 20 -24 23 -72 8 -108 -8 -19
-42 -65 -76 -104 -33 -38 -61 -73 -61 -77 0 -5 40 -8 89 -8 84 0 89 1 95 23 3
12 6 31 5 42 0 18 -1 18 -9 -2 -8 -21 -16 -23 -77 -23 l-68 1 67 62 c36 34 71
72 77 84 43 86 -51 178 -134 131z"/>
<path d="M11720 710 c0 -5 11 -10 25 -10 l25 0 0 -150 0 -150 -25 0 c-14 0
-25 -4 -25 -10 0 -6 50 -10 129 -10 l129 0 7 61 c9 73 2 86 -14 25 -14 -55
-35 -68 -104 -64 l-52 3 0 145 0 145 25 3 c14 2 29 8 35 13 5 5 -23 9 -73 9
-48 0 -82 -4 -82 -10z"/>
<path d="M14380 710 c0 -5 11 -10 25 -10 l25 0 0 -150 0 -150 -25 0 c-14 0
-25 -4 -25 -10 0 -6 50 -10 129 -10 l129 0 7 61 c9 73 2 86 -14 25 -14 -55
-35 -68 -104 -64 l-52 3 0 145 0 145 25 3 c14 2 29 8 35 13 5 5 -23 9 -73 9
-48 0 -82 -4 -82 -10z"/>
<path d="M21525 708 c-30 -17 -44 -40 -45 -70 0 -34 17 -45 38 -24 14 14 14
17 -4 37 -18 21 -18 21 1 35 24 18 79 18 94 1 20 -24 23 -72 8 -108 -8 -19
-42 -65 -76 -104 -33 -38 -61 -73 -61 -77 0 -5 40 -8 89 -8 84 0 89 1 95 23 3
12 6 31 5 42 0 18 -1 18 -9 -2 -8 -21 -16 -23 -77 -23 l-68 1 67 62 c36 34 71
72 77 84 43 86 -51 178 -134 131z"/>
<path d="M8265 698 c-30 -17 -44 -40 -45 -70 0 -34 17 -45 38 -24 14 14 14 17
-4 37 -18 21 -18 21 1 35 24 18 79 18 94 1 20 -24 23 -72 8 -108 -8 -19 -42
-65 -76 -104 -33 -38 -61 -73 -61 -77 0 -5 40 -8 89 -8 84 0 89 1 95 23 3 12
6 31 5 42 0 18 -1 18 -9 -2 -8 -21 -16 -23 -77 -23 l-68 1 67 62 c36 34 71 72
77 84 43 86 -51 178 -134 131z"/>
<path d="M13305 698 c-30 -17 -44 -40 -45 -70 0 -34 17 -45 38 -24 14 14 14
17 -4 37 -18 21 -18 21 1 35 24 18 79 18 94 1 20 -24 23 -72 8 -108 -8 -19
-42 -65 -76 -104 -33 -38 -61 -73 -61 -77 0 -5 40 -8 89 -8 84 0 89 1 95 23 3
12 6 31 5 42 0 18 -1 18 -9 -2 -8 -21 -16 -23 -77 -23 l-68 1 67 62 c36 34 71
72 77 84 43 86 -51 178 -134 131z"/>
<path d="M15965 698 c-30 -17 -44 -40 -45 -70 0 -34 17 -45 38 -24 14 14 14
17 -4 37 -18 21 -18 21 1 35 24 18 79 18 94 1 20 -24 23 -72 8 -108 -8 -19
-42 -65 -76 -104 -33 -38 -61 -73 -61 -77 0 -5 40 -8 89 -8 84 0 89 1 95 23 3
12 6 31 5 42 0 18 -1 18 -9 -2 -8 -21 -16 -23 -77 -23 l-68 1 67 62 c36 34 71
72 77 84 43 86 -51 178 -134 131z"/>
<path d="M17270 700 c0 -5 11 -10 25 -10 l25 0 0 -150 0 -150 -25 0 c-14 0
-25 -4 -25 -10 0 -6 50 -10 129 -10 l129 0 7 61 c9 73 2 86 -14 25 -14 -55
-35 -68 -104 -64 l-52 3 0 145 0 145 25 3 c14 2 29 8 35 13 5 5 -23 9 -73 9
-48 0 -82 -4 -82 -10z"/>
<path d="M861 673 c-10 -26 -10 -27 4 -9 8 11 15 23 15 28 0 15 -7 8 -19 -19z"/>
<path d="M2771 673 c-10 -26 -10 -27 4 -9 8 11 15 23 15 28 0 15 -7 8 -19 -19z"/>
<path d="M18855 688 c-30 -17 -44 -40 -45 -70 0 -34 17 -45 38 -24 14 14 14
17 -4 37 -18 21 -18 21 1 35 24 18 79 18 94 1 20 -24 23 -72 8 -108 -8 -19
-42 -65 -76 -104 -33 -38 -61 -73 -61 -77 0 -5 40 -8 89 -8 84 0 89 1 95 23 3
12 6 31 5 42 0 18 -1 18 -9 -2 -8 -21 -16 -23 -77 -23 l-68 1 67 62 c36 34 71
72 77 84 43 86 -51 178 -134 131z"/>
<path d="M25385 678 c-30 -17 -44 -40 -45 -70 0 -34 17 -45 38 -24 14 14 14
17 -4 37 -18 21 -18 21 1 35 24 18 79 18 94 1 20 -24 23 -72 8 -108 -8 -19
-42 -65 -76 -104 -33 -38 -61 -73 -61 -77 0 -5 40 -8 89 -8 84 0 89 1 95 23 3
12 6 31 5 42 0 18 -1 18 -9 -2 -8 -21 -16 -23 -77 -23 l-68 1 67 62 c36 34 71
72 77 84 43 86 -51 178 -134 131z"/>
<path d="M28135 678 c-30 -17 -44 -40 -45 -70 0 -34 17 -45 38 -24 14 14 14
17 -4 37 -18 21 -18 21 1 35 24 18 79 18 94 1 20 -24 23 -72 8 -108 -8 -19
-42 -65 -76 -104 -33 -38 -61 -73 -61 -77 0 -5 40 -8 89 -8 84 0 89 1 95 23 3
12 6 31 5 42 0 18 -1 18 -9 -2 -8 -21 -16 -23 -77 -23 l-68 1 67 62 c36 34 71
72 77 84 43 86 -51 178 -134 131z"/>
<path d="M24401 653 c-10 -26 -10 -27 4 -9 8 11 15 23 15 28 0 15 -7 8 -19
-19z"/>
<path d="M5701 643 c-10 -26 -10 -27 4 -9 8 11 15 23 15 28 0 15 -7 8 -19 -19z"/>
<path d="M11071 643 c-10 -26 -10 -27 4 -9 8 11 15 23 15 28 0 15 -7 8 -19
-19z"/>
<path d="M21851 643 c-10 -26 -10 -27 4 -9 8 11 15 23 15 28 0 15 -7 8 -19
-19z"/>
<path d="M8591 633 c-10 -26 -10 -27 4 -9 8 11 15 23 15 28 0 15 -7 8 -19 -19z"/>
<path d="M13631 633 c-10 -26 -10 -27 4 -9 8 11 15 23 15 28 0 15 -7 8 -19
-19z"/>
<path d="M16291 633 c-10 -26 -10 -27 4 -9 8 11 15 23 15 28 0 15 -7 8 -19
-19z"/>
<path d="M19181 623 c-10 -26 -10 -27 4 -9 8 11 15 23 15 28 0 15 -7 8 -19
-19z"/>
<path d="M1912 627 c-18 -21 -33 -67 -22 -67 6 0 10 6 10 14 0 8 8 24 18 36
30 37 32 6 7 -98 -13 -55 -18 -95 -13 -98 16 -10 26 8 47 91 14 58 27 86 46
103 59 50 77 18 47 -84 -23 -76 -21 -98 5 -108 20 -8 60 18 68 44 10 32 -3 37
-15 6 -9 -26 -35 -44 -46 -33 -3 3 4 37 17 75 14 43 19 79 15 95 -8 35 -50 46
-89 24 -25 -15 -30 -15 -43 -2 -19 18 -38 19 -52 2z"/>
<path d="M25711 613 c-10 -26 -10 -27 4 -9 8 11 15 23 15 28 0 15 -7 8 -19
-19z"/>
<path d="M28461 613 c-10 -26 -10 -27 4 -9 8 11 15 23 15 28 0 15 -7 8 -19
-19z"/>
<path d="M23218 616 c-16 -8 -31 -10 -39 -5 -26 16 -66 9 -94 -17 -22 -21 -26
-31 -21 -57 12 -61 12 -137 0 -141 -20 -8 -23 -45 -4 -68 14 -17 31 -23 81
-26 54 -3 68 -1 92 18 60 47 15 110 -79 110 -41 0 -55 4 -62 18 -15 28 -4 43
21 31 52 -23 121 38 98 87 -6 14 -9 30 -6 35 8 12 35 12 35 -1 0 -5 7 -10 15
-10 18 0 19 14 2 28 -9 8 -20 7 -39 -2z m-54 -22 c20 -19 21 -78 2 -94 -8 -6
-25 -10 -38 -8 -19 3 -23 10 -26 48 -3 33 1 47 14 57 23 17 29 16 48 -3z m54
-206 c17 -17 15 -38 -5 -60 -33 -37 -143 -14 -143 31 0 30 22 41 80 41 31 0
61 -5 68 -12z"/>
<path d="M4518 606 c-16 -8 -31 -10 -39 -5 -26 16 -66 9 -94 -17 -22 -21 -26
-31 -21 -57 12 -61 12 -137 0 -141 -20 -8 -23 -45 -4 -68 14 -17 31 -23 81
-26 54 -3 68 -1 92 18 60 47 15 110 -79 110 -41 0 -55 4 -62 18 -15 28 -4 43
21 31 52 -23 121 38 98 87 -6 14 -9 30 -6 35 8 12 35 12 35 -1 0 -5 7 -10 15
-10 18 0 19 14 2 28 -9 8 -20 7 -39 -2z m-54 -22 c20 -19 21 -78 2 -94 -8 -6
-25 -10 -38 -8 -19 3 -23 10 -26 48 -3 33 1 47 14 57 23 17 29 16 48 -3z m54
-206 c17 -17 15 -38 -5 -60 -33 -37 -143 -14 -143 31 0 30 22 41 80 41 31 0
61 -5 68 -12z"/>
<path d="M9888 606 c-16 -8 -31 -10 -39 -5 -26 16 -66 9 -94 -17 -22 -21 -26
-31 -21 -57 12 -61 12 -137 0 -141 -20 -8 -23 -45 -4 -68 14 -17 31 -23 81
-26 54 -3 68 -1 92 18 60 47 15 110 -79 110 -41 0 -55 4 -62 18 -15 28 -4 43
21 31 52 -23 121 38 98 87 -6 14 -9 30 -6 35 8 12 35 12 35 -1 0 -5 7 -10 15
-10 18 0 19 14 2 28 -9 8 -20 7 -39 -2z m-54 -22 c20 -19 21 -78 2 -94 -8 -6
-25 -10 -38 -8 -19 3 -23 10 -26 48 -3 33 1 47 14 57 23 17 29 16 48 -3z m54
-206 c17 -17 15 -38 -5 -60 -33 -37 -143 -14 -143 31 0 30 22 41 80 41 31 0
61 -5 68 -12z"/>
<path d="M20668 606 c-16 -8 -31 -10 -39 -5 -26 16 -66 9 -94 -17 -22 -21 -26
-31 -21 -57 12 -61 12 -137 0 -141 -20 -8 -23 -45 -4 -68 14 -17 31 -23 81
-26 54 -3 68 -1 92 18 60 47 15 110 -79 110 -41 0 -55 4 -62 18 -15 28 -4 43
21 31 52 -23 121 38 98 87 -6 14 -9 30 -6 35 8 12 35 12 35 -1 0 -5 7 -10 15
-10 18 0 19 14 2 28 -9 8 -20 7 -39 -2z m-54 -22 c20 -19 21 -78 2 -94 -8 -6
-25 -10 -38 -8 -19 3 -23 10 -26 48 -3 33 1 47 14 57 23 17 29 16 48 -3z m54
-206 c17 -17 15 -38 -5 -60 -33 -37 -143 -14 -143 31 0 30 22 41 80 41 31 0
61 -5 68 -12z"/>
<path d="M22840 593 c-38 -35 -51 -78 -36 -123 12 -37 65 -80 100 -80 35 0 86
38 102 76 44 106 -83 202 -166 127z m110 -3 c15 -15 20 -33 20 -78 0 -73 -18
-102 -65 -102 -47 0 -65 29 -65 102 0 66 22 98 65 98 14 0 34 -9 45 -20z"/>
<path d="M23542 607 c-18 -21 -33 -67 -22 -67 6 0 10 6 10 14 0 8 8 24 18 36
30 37 32 6 7 -98 -13 -55 -18 -95 -13 -98 16 -10 26 8 47 91 14 58 27 86 46
103 59 50 77 18 47 -84 -23 -76 -21 -98 5 -108 20 -8 60 18 68 44 10 32 -3 37
-15 6 -9 -26 -35 -44 -46 -33 -3 3 4 37 17 75 14 43 19 79 15 95 -8 35 -50 46
-89 24 -25 -15 -30 -15 -43 -2 -19 18 -38 19 -52 2z"/>
<path d="M26823 605 c-98 -42 -95 -200 4 -241 50 -21 99 -10 140 31 28 28 33
40 33 82 0 60 -28 109 -75 129 -42 17 -61 17 -102 -1z m101 -18 c39 -28 39
-155 0 -198 -26 -29 -78 -25 -103 7 -35 44 -26 170 13 196 18 12 71 9 90 -5z"/>
<path d="M27120 608 c-42 -16 -60 -39 -60 -78 0 -20 5 -41 10 -46 7 -7 7 -19
2 -35 -6 -14 -6 -34 0 -48 7 -19 4 -29 -12 -46 -11 -12 -20 -33 -20 -48 0 -21
8 -31 40 -47 106 -54 249 14 197 94 -19 29 -71 46 -139 46 -38 0 -48 4 -53 20
-9 29 2 40 33 31 71 -20 136 42 111 107 -8 21 -7 29 7 39 24 17 35 16 28 -2
-4 -9 0 -15 9 -15 23 0 29 16 11 31 -12 10 -22 10 -48 1 -20 -8 -43 -9 -62 -3
-16 5 -40 4 -54 -1z m61 -24 c7 -9 14 -33 14 -54 0 -44 -19 -70 -49 -70 -33 0
-46 19 -46 70 0 25 5 51 12 58 17 17 53 15 69 -4z m60 -243 c20 -16 22 -22 12
-44 -30 -64 -183 -50 -183 16 0 36 19 47 86 47 46 0 68 -5 85 -19z"/>
<path d="M4140 583 c-38 -35 -51 -78 -36 -123 12 -37 65 -80 100 -80 35 0 86
38 102 76 44 106 -83 202 -166 127z m110 -3 c15 -15 20 -33 20 -78 0 -73 -18
-102 -65 -102 -47 0 -65 29 -65 102 0 66 22 98 65 98 14 0 34 -9 45 -20z"/>
<path d="M4842 597 c-18 -21 -33 -67 -22 -67 6 0 10 6 10 14 0 8 8 24 18 36
30 37 32 6 7 -98 -13 -55 -18 -95 -13 -98 16 -10 26 8 47 91 14 58 27 86 46
103 59 50 77 18 47 -84 -23 -76 -21 -98 5 -108 20 -8 60 18 68 44 10 32 -3 37
-15 6 -9 -26 -35 -44 -46 -33 -3 3 4 37 17 75 14 43 19 79 15 95 -8 35 -50 46
-89 24 -25 -15 -30 -15 -43 -2 -19 18 -38 19 -52 2z"/>
<path d="M7408 596 c-16 -8 -31 -10 -39 -5 -26 16 -66 9 -94 -17 -22 -21 -26
-31 -21 -57 12 -61 12 -137 0 -141 -20 -8 -23 -45 -4 -68 14 -17 31 -23 81
-26 54 -3 68 -1 92 18 60 47 15 110 -79 110 -41 0 -55 4 -62 18 -15 28 -4 43
21 31 52 -23 121 38 98 87 -6 14 -9 30 -6 35 8 12 35 12 35 -1 0 -5 7 -10 15
-10 18 0 19 14 2 28 -9 8 -20 7 -39 -2z m-54 -22 c20 -19 21 -78 2 -94 -8 -6
-25 -10 -38 -8 -19 3 -23 10 -26 48 -3 33 1 47 14 57 23 17 29 16 48 -3z m54
-206 c17 -17 15 -38 -5 -60 -33 -37 -143 -14 -143 31 0 30 22 41 80 41 31 0
61 -5 68 -12z"/>
<path d="M9510 583 c-38 -35 -51 -78 -36 -123 12 -37 65 -80 100 -80 35 0 86
38 102 76 44 106 -83 202 -166 127z m110 -3 c15 -15 20 -33 20 -78 0 -73 -18
-102 -65 -102 -47 0 -65 29 -65 102 0 66 22 98 65 98 14 0 34 -9 45 -20z"/>
<path d="M10212 597 c-18 -21 -33 -67 -22 -67 6 0 10 6 10 14 0 8 8 24 18 36
30 37 32 6 7 -98 -13 -55 -18 -95 -13 -98 16 -10 26 8 47 91 14 58 27 86 46
103 59 50 77 18 47 -84 -23 -76 -21 -98 5 -108 20 -8 60 18 68 44 10 32 -3 37
-15 6 -9 -26 -35 -44 -46 -33 -3 3 4 37 17 75 14 43 19 79 15 95 -8 35 -50 46
-89 24 -25 -15 -30 -15 -43 -2 -19 18 -38 19 -52 2z"/>
<path d="M12448 596 c-16 -8 -31 -10 -39 -5 -26 16 -66 9 -94 -17 -22 -21 -26
-31 -21 -57 12 -61 12 -137 0 -141 -20 -8 -23 -45 -4 -68 14 -17 31 -23 81
-26 54 -3 68 -1 92 18 60 47 15 110 -79 110 -41 0 -55 4 -62 18 -15 28 -4 43
21 31 52 -23 121 38 98 87 -6 14 -9 30 -6 35 8 12 35 12 35 -1 0 -5 7 -10 15
-10 18 0 19 14 2 28 -9 8 -20 7 -39 -2z m-54 -22 c20 -19 21 -78 2 -94 -8 -6
-25 -10 -38 -8 -19 3 -23 10 -26 48 -3 33 1 47 14 57 23 17 29 16 48 -3z m54
-206 c17 -17 15 -38 -5 -60 -33 -37 -143 -14 -143 31 0 30 22 41 80 41 31 0
61 -5 68 -12z"/>
<path d="M15108 596 c-16 -8 -31 -10 -39 -5 -26 16 -66 9 -94 -17 -22 -21 -26
-31 -21 -57 12 -61 12 -137 0 -141 -20 -8 -23 -45 -4 -68 14 -17 31 -23 81
-26 54 -3 68 -1 92 18 60 47 15 110 -79 110 -41 0 -55 4 -62 18 -15 28 -4 43
21 31 52 -23 121 38 98 87 -6 14 -9 30 -6 35 8 12 35 12 35 -1 0 -5 7 -10 15
-10 18 0 19 14 2 28 -9 8 -20 7 -39 -2z m-54 -22 c20 -19 21 -78 2 -94 -8 -6
-25 -10 -38 -8 -19 3 -23 10 -26 48 -3 33 1 47 14 57 23 17 29 16 48 -3z m54
-206 c17 -17 15 -38 -5 -60 -33 -37 -143 -14 -143 31 0 30 22 41 80 41 31 0
61 -5 68 -12z"/>
<path d="M20290 583 c-38 -35 -51 -78 -36 -123 12 -37 65 -80 100 -80 35 0 86
38 102 76 44 106 -83 202 -166 127z m110 -3 c15 -15 20 -33 20 -78 0 -73 -18
-102 -65 -102 -47 0 -65 29 -65 102 0 66 22 98 65 98 14 0 34 -9 45 -20z"/>
<path d="M20992 597 c-18 -21 -33 -67 -22 -67 6 0 10 6 10 14 0 8 8 24 18 36
30 37 32 6 7 -98 -13 -55 -18 -95 -13 -98 16 -10 26 8 47 91 14 58 27 86 46
103 59 50 77 18 47 -84 -23 -76 -21 -98 5 -108 20 -8 60 18 68 44 10 32 -3 37
-15 6 -9 -26 -35 -44 -46 -33 -3 3 4 37 17 75 14 43 19 79 15 95 -8 35 -50 46
-89 24 -25 -15 -30 -15 -43 -2 -19 18 -38 19 -52 2z"/>
<path d="M7030 573 c-38 -35 -51 -78 -36 -123 12 -37 65 -80 100 -80 35 0 86
38 102 76 44 106 -83 202 -166 127z m110 -3 c15 -15 20 -33 20 -78 0 -73 -18
-102 -65 -102 -47 0 -65 29 -65 102 0 66 22 98 65 98 14 0 34 -9 45 -20z"/>
<path d="M7732 587 c-18 -21 -33 -67 -22 -67 6 0 10 6 10 14 0 8 8 24 18 36
30 37 32 6 7 -98 -13 -55 -18 -95 -13 -98 16 -10 26 8 47 91 14 58 27 86 46
103 59 50 77 18 47 -84 -23 -76 -21 -98 5 -108 20 -8 60 18 68 44 10 32 -3 37
-15 6 -9 -26 -35 -44 -46 -33 -3 3 4 37 17 75 14 43 19 79 15 95 -8 35 -50 46
-89 24 -25 -15 -30 -15 -43 -2 -19 18 -38 19 -52 2z"/>
<path d="M12070 573 c-38 -35 -51 -78 -36 -123 12 -37 65 -80 100 -80 35 0 86
38 102 76 44 106 -83 202 -166 127z m110 -3 c15 -15 20 -33 20 -78 0 -73 -18
-102 -65 -102 -47 0 -65 29 -65 102 0 66 22 98 65 98 14 0 34 -9 45 -20z"/>
<path d="M12772 587 c-18 -21 -33 -67 -22 -67 6 0 10 6 10 14 0 8 8 24 18 36
30 37 32 6 7 -98 -13 -55 -18 -95 -13 -98 16 -10 26 8 47 91 14 58 27 86 46
103 59 50 77 18 47 -84 -23 -76 -21 -98 5 -108 20 -8 60 18 68 44 10 32 -3 37
-15 6 -9 -26 -35 -44 -46 -33 -3 3 4 37 17 75 14 43 19 79 15 95 -8 35 -50 46
-89 24 -25 -15 -30 -15 -43 -2 -19 18 -38 19 -52 2z"/>
<path d="M14730 573 c-38 -35 -51 -78 -36 -123 12 -37 65 -80 100 -80 35 0 86
38 102 76 44 106 -83 202 -166 127z m110 -3 c15 -15 20 -33 20 -78 0 -73 -18
-102 -65 -102 -47 0 -65 29 -65 102 0 66 22 98 65 98 14 0 34 -9 45 -20z"/>
<path d="M15432 587 c-18 -21 -33 -67 -22 -67 6 0 10 6 10 14 0 8 8 24 18 36
30 37 32 6 7 -98 -13 -55 -18 -95 -13 -98 16 -10 26 8 47 91 14 58 27 86 46
103 59 50 77 18 47 -84 -23 -76 -21 -98 5 -108 20 -8 60 18 68 44 10 32 -3 37
-15 6 -9 -26 -35 -44 -46 -33 -3 3 4 37 17 75 14 43 19 79 15 95 -8 35 -50 46
-89 24 -25 -15 -30 -15 -43 -2 -19 18 -38 19 -52 2z"/>
<path d="M17998 586 c-16 -8 -31 -10 -39 -5 -26 16 -66 9 -94 -17 -22 -21 -26
-31 -21 -57 12 -61 12 -137 0 -141 -20 -8 -23 -45 -4 -68 14 -17 31 -23 81
-26 54 -3 68 -1 92 18 60 47 15 110 -79 110 -41 0 -55 4 -62 18 -15 28 -4 43
21 31 52 -23 121 38 98 87 -6 14 -9 30 -6 35 8 12 35 12 35 -1 0 -5 7 -10 15
-10 18 0 19 14 2 28 -9 8 -20 7 -39 -2z m-54 -22 c20 -19 21 -78 2 -94 -8 -6
-25 -10 -38 -8 -19 3 -23 10 -26 48 -3 33 1 47 14 57 23 17 29 16 48 -3z m54
-206 c17 -17 15 -38 -5 -60 -33 -37 -143 -14 -143 31 0 30 22 41 80 41 31 0
61 -5 68 -12z"/>
<path d="M17620 563 c-38 -35 -51 -78 -36 -123 12 -37 65 -80 100 -80 35 0 86
38 102 76 44 106 -83 202 -166 127z m110 -3 c15 -15 20 -33 20 -78 0 -73 -18
-102 -65 -102 -47 0 -65 29 -65 102 0 66 22 98 65 98 14 0 34 -9 45 -20z"/>
<path d="M18322 577 c-18 -21 -33 -67 -22 -67 6 0 10 6 10 14 0 8 8 24 18 36
30 37 32 6 7 -98 -13 -55 -18 -95 -13 -98 16 -10 26 8 47 91 14 58 27 86 46
103 59 50 77 18 47 -84 -23 -76 -21 -98 5 -108 20 -8 60 18 68 44 10 32 -3 37
-15 6 -9 -26 -35 -44 -46 -33 -3 3 4 37 17 75 14 43 19 79 15 95 -8 35 -50 46
-89 24 -25 -15 -30 -15 -43 -2 -19 18 -38 19 -52 2z"/>
<path d="M27602 567 c-18 -21 -33 -67 -22 -67 6 0 10 6 10 14 0 8 8 24 18 36
30 37 32 6 7 -98 -13 -55 -18 -95 -13 -98 16 -10 26 8 47 91 14 58 27 86 46
103 59 50 77 18 47 -84 -23 -76 -21 -98 5 -108 20 -8 60 18 68 44 10 32 -3 37
-15 6 -9 -26 -35 -44 -46 -33 -3 3 4 37 17 75 14 43 19 79 15 95 -8 35 -50 46
-89 24 -25 -15 -30 -15 -43 -2 -19 18 -38 19 -52 2z"/>
</g>
</svg>
